%TF.GenerationSoftware,KiCad,Pcbnew,10.0.6*%
%TF.CreationDate,2026-10-09T19:12:30+02:00*%
%TF.ProjectId,wifi-geiger-counter,77696669-2d67-4656-9967-65722d636f75,rev?*%
%TF.SameCoordinates,Original*%
%TF.FileFunction,Soldermask,Top*%
%TF.FilePolarity,Negative*%
%FSLAX46Y46*%
G04 Gerber Fmt 4.6, Leading zero omitted, Abs format (unit mm)*
G04 Created by KiCad (PCBNEW 10.0.6) date 2026-10-09 19:12:30*
%MOMM*%
%LPD*%
G01*
G04 APERTURE LIST*
G04 Aperture macros list*
%AMRoundRect*
0 Rectangle with rounded corners*
0 $1 Rounding radius*
0 $2 $3 $4 $5 $6 $7 $8 $9 X,Y pos of 4 corners*
0 Add a 4 corners polygon primitive as box body*
4,1,4,$2,$3,$4,$5,$6,$7,$8,$9,$2,$3,0*
0 Add four circle primitives for the rounded corners*
1,1,$1+$1,$2,$3*
1,1,$1+$1,$4,$5*
1,1,$1+$1,$6,$7*
1,1,$1+$1,$8,$9*
0 Add four rect primitives between the rounded corners*
20,1,$1+$1,$2,$3,$4,$5,0*
20,1,$1+$1,$4,$5,$6,$7,0*
20,1,$1+$1,$6,$7,$8,$9,0*
20,1,$1+$1,$8,$9,$2,$3,0*%
%AMFreePoly0*
4,1,14,0.760322,0.760195,0.774967,0.724840,0.774967,-0.725145,0.760322,-0.760500,0.724967,-0.775145,-0.725018,-0.775145,-0.760373,-0.760500,-0.775018,-0.725145,-0.775018,0.124841,-0.760373,0.160196,-0.160374,0.760195,-0.125019,0.774840,0.724967,0.774840,0.760322,0.760195,0.760322,0.760195,$1*%
%AMFreePoly1*
4,1,13,0.335227,0.685443,0.349872,0.650088,0.349872,-0.649884,0.335227,-0.685239,0.299872,-0.699884,-0.300152,-0.699884,-0.335507,-0.685239,-0.350152,-0.649884,-0.350152,0.650088,-0.335507,0.685443,-0.300152,0.700088,0.299872,0.700088,0.335227,0.685443,0.335227,0.685443,$1*%
%AMFreePoly2*
4,1,17,0.335431,0.685290,0.350076,0.649935,0.350076,-0.650037,0.335431,-0.685392,0.300076,-0.700037,0.000187,-0.700037,0.000127,-0.700062,-0.299898,-0.700062,-0.335253,-0.685417,-0.349898,-0.650062,-0.349898,0.649910,-0.335253,0.685265,-0.299898,0.699910,-0.000009,0.699910,0.000051,0.699935,0.300076,0.699935,0.335431,0.685290,0.335431,0.685290,$1*%
%AMFreePoly3*
4,1,17,0.335278,0.685443,0.349923,0.650088,0.349923,-0.649935,0.335278,-0.685290,0.299923,-0.699935,0.000318,-0.699935,-0.000051,-0.700088,-0.300050,-0.700088,-0.335405,-0.685443,-0.350050,-0.650088,-0.350050,0.649935,-0.335405,0.685290,-0.300050,0.699935,-0.000445,0.699935,-0.000076,0.700088,0.299923,0.700088,0.335278,0.685443,0.335278,0.685443,$1*%
G04 Aperture macros list end*
%ADD10R,0.800000X0.400000*%
%ADD11R,0.400000X0.800000*%
%ADD12FreePoly0,180.000000*%
%ADD13R,1.450000X1.450000*%
%ADD14R,0.700000X0.700000*%
%ADD15RoundRect,0.250000X-0.262500X-0.450000X0.262500X-0.450000X0.262500X0.450000X-0.262500X0.450000X0*%
%ADD16RoundRect,0.243750X0.456250X-0.243750X0.456250X0.243750X-0.456250X0.243750X-0.456250X-0.243750X0*%
%ADD17R,1.485000X1.728000*%
%ADD18RoundRect,0.250000X-0.250000X-0.475000X0.250000X-0.475000X0.250000X0.475000X-0.250000X0.475000X0*%
%ADD19R,0.622000X1.105000*%
%ADD20RoundRect,0.250000X-0.312500X-0.625000X0.312500X-0.625000X0.312500X0.625000X-0.312500X0.625000X0*%
%ADD21R,2.000000X2.000000*%
%ADD22RoundRect,0.225000X-0.225000X-0.375000X0.225000X-0.375000X0.225000X0.375000X-0.225000X0.375000X0*%
%ADD23R,1.000000X0.650000*%
%ADD24RoundRect,0.243750X-0.243750X-0.456250X0.243750X-0.456250X0.243750X0.456250X-0.243750X0.456250X0*%
%ADD25RoundRect,0.150000X-0.587500X-0.150000X0.587500X-0.150000X0.587500X0.150000X-0.587500X0.150000X0*%
%ADD26R,3.300000X2.400000*%
%ADD27R,0.600000X1.200000*%
%ADD28RoundRect,0.250000X-0.300000X-0.300000X0.300000X-0.300000X0.300000X0.300000X-0.300000X0.300000X0*%
%ADD29RoundRect,0.150000X-0.512500X-0.150000X0.512500X-0.150000X0.512500X0.150000X-0.512500X0.150000X0*%
%ADD30C,1.700000*%
%ADD31R,1.700000X1.700000*%
%ADD32C,0.900000*%
%ADD33RoundRect,0.135000X-0.315000X-0.365000X0.315000X-0.365000X0.315000X0.365000X-0.315000X0.365000X0*%
%ADD34RoundRect,0.082500X-0.767500X-0.192500X0.767500X-0.192500X0.767500X0.192500X-0.767500X0.192500X0*%
%ADD35RoundRect,0.250000X0.450000X-0.262500X0.450000X0.262500X-0.450000X0.262500X-0.450000X-0.262500X0*%
%ADD36C,1.400000*%
%ADD37RoundRect,0.112500X-0.187500X-0.112500X0.187500X-0.112500X0.187500X0.112500X-0.187500X0.112500X0*%
%ADD38R,2.500000X5.700000*%
%ADD39R,1.300000X3.400000*%
%ADD40R,1.300000X0.300000*%
%ADD41FreePoly1,90.000000*%
%ADD42FreePoly2,90.000000*%
%ADD43FreePoly3,90.000000*%
%ADD44O,2.000000X1.200000*%
%ADD45O,1.800000X1.200000*%
%ADD46C,0.600000*%
G04 APERTURE END LIST*
D10*
%TO.C,U2*%
X104600000Y-164600000D03*
X104600000Y-163800000D03*
X104600000Y-163000000D03*
X104600000Y-162200000D03*
X104600000Y-161400000D03*
X104600000Y-160600000D03*
X104600000Y-159800000D03*
X104600000Y-159000000D03*
X104600000Y-158200000D03*
X104600000Y-157400000D03*
X104600000Y-156600000D03*
D11*
X103500000Y-155700000D03*
X102700000Y-155700000D03*
X101900000Y-155700000D03*
X101100000Y-155700000D03*
X100300000Y-155700000D03*
X99500000Y-155700000D03*
X98700000Y-155700000D03*
X97900000Y-155700000D03*
X97100000Y-155700000D03*
X96300000Y-155700000D03*
X95500000Y-155700000D03*
X94700000Y-155700000D03*
X93900000Y-155700000D03*
D10*
X92800000Y-156600000D03*
X92800000Y-157400000D03*
X92800000Y-158200000D03*
X92800000Y-159000000D03*
X92800000Y-159800000D03*
X92800000Y-160600000D03*
X92800000Y-161400000D03*
X92800000Y-162200000D03*
X92800000Y-163000000D03*
X92800000Y-163800000D03*
X92800000Y-164600000D03*
D11*
X93900000Y-165500000D03*
X94700000Y-165500000D03*
X95500000Y-165500000D03*
X96300000Y-165500000D03*
X97100000Y-165500000D03*
X97900000Y-165500000D03*
X98700000Y-165500000D03*
X99500000Y-165500000D03*
X100300000Y-165500000D03*
X101100000Y-165500000D03*
X101900000Y-165500000D03*
X102700000Y-165500000D03*
X103500000Y-165500000D03*
D12*
X100680000Y-162580000D03*
D13*
X100680000Y-160600000D03*
X100680000Y-158620000D03*
X98700000Y-162570000D03*
X98700000Y-160600000D03*
X98700000Y-158620000D03*
X96730000Y-162570000D03*
X96730000Y-160600000D03*
X96730000Y-158620000D03*
D14*
X92750000Y-165550000D03*
X92750000Y-155650000D03*
X104650000Y-155650000D03*
X104650000Y-165550000D03*
%TD*%
D15*
%TO.C,R4*%
X66000000Y-130000000D03*
X67825000Y-130000000D03*
%TD*%
D16*
%TO.C,D9*%
X90500000Y-159875000D03*
X90500000Y-158000000D03*
%TD*%
D15*
%TO.C,R24*%
X80675000Y-142500000D03*
X82500000Y-142500000D03*
%TD*%
D17*
%TO.C,C9*%
X127639000Y-152781000D03*
X130819000Y-152781000D03*
%TD*%
D18*
%TO.C,C1*%
X62000000Y-134000000D03*
X63900000Y-134000000D03*
%TD*%
D19*
%TO.C,U3*%
X98199000Y-123719000D03*
X99149000Y-123719000D03*
X100099000Y-123719000D03*
X100099000Y-121119000D03*
X98199000Y-121119000D03*
%TD*%
D20*
%TO.C,R15*%
X126319000Y-162505000D03*
X129244000Y-162505000D03*
%TD*%
D15*
%TO.C,R11*%
X121342000Y-129524000D03*
X119517000Y-129524000D03*
%TD*%
D21*
%TO.C,D3*%
X119119000Y-147781000D03*
X123519000Y-147781000D03*
%TD*%
D22*
%TO.C,D6*%
X66500000Y-172000000D03*
X69800000Y-172000000D03*
%TD*%
D23*
%TO.C,Q1*%
X123842000Y-128524000D03*
X125842000Y-127574000D03*
X125842000Y-129474000D03*
%TD*%
D24*
%TO.C,D2*%
X70000000Y-126500000D03*
X71875000Y-126500000D03*
%TD*%
D15*
%TO.C,R2*%
X57500000Y-132000000D03*
X59325000Y-132000000D03*
%TD*%
D17*
%TO.C,C8*%
X118061000Y-152380000D03*
X114881000Y-152380000D03*
%TD*%
D20*
%TO.C,R16*%
X131319000Y-162505000D03*
X134244000Y-162505000D03*
%TD*%
D18*
%TO.C,C3*%
X93199000Y-122619000D03*
X95099000Y-122619000D03*
%TD*%
D15*
%TO.C,R12*%
X128500000Y-171500000D03*
X130325000Y-171500000D03*
%TD*%
D20*
%TO.C,R13*%
X116394000Y-162505000D03*
X119319000Y-162505000D03*
%TD*%
D18*
%TO.C,C11*%
X136000000Y-171500000D03*
X137900000Y-171500000D03*
%TD*%
D25*
%TO.C,Q2*%
X86625000Y-145050000D03*
X86625000Y-146950000D03*
X88500000Y-146000000D03*
%TD*%
D15*
%TO.C,R7*%
X96500000Y-149000000D03*
X98325000Y-149000000D03*
%TD*%
D26*
%TO.C,U1*%
X62606000Y-124322000D03*
D27*
X60696000Y-121412000D03*
X61976000Y-121412000D03*
X63246000Y-121412000D03*
X64516000Y-121412000D03*
X64516000Y-127232000D03*
X63246000Y-127232000D03*
X61976000Y-127232000D03*
X60696000Y-127232000D03*
%TD*%
D20*
%TO.C,R21*%
X131394000Y-167005000D03*
X134319000Y-167005000D03*
%TD*%
D28*
%TO.C,D7*%
X55200000Y-142500000D03*
X58000000Y-142500000D03*
%TD*%
D29*
%TO.C,U4*%
X55500000Y-137050000D03*
X55500000Y-138000000D03*
X55500000Y-138950000D03*
X57775000Y-138950000D03*
X57775000Y-138000000D03*
X57775000Y-137050000D03*
%TD*%
D15*
%TO.C,R25*%
X80675000Y-146500000D03*
X82500000Y-146500000D03*
%TD*%
D18*
%TO.C,C5*%
X92600000Y-152500000D03*
X94500000Y-152500000D03*
%TD*%
D30*
%TO.C,J3*%
X137584000Y-139281000D03*
D31*
X135044000Y-139281000D03*
%TD*%
D20*
%TO.C,R17*%
X136394000Y-162505000D03*
X139319000Y-162505000D03*
%TD*%
D21*
%TO.C,D5*%
X135619000Y-147781000D03*
X140019000Y-147781000D03*
%TD*%
D20*
%TO.C,R18*%
X116394000Y-167005000D03*
X119319000Y-167005000D03*
%TD*%
D32*
%TO.C,SW2*%
X84975000Y-162550000D03*
X86925000Y-162550000D03*
D33*
X83900000Y-161000000D03*
X88000000Y-161000000D03*
X83900000Y-162600000D03*
X88000000Y-162600000D03*
D34*
X85950000Y-160375000D03*
%TD*%
D20*
%TO.C,R19*%
X121394000Y-167005000D03*
X124319000Y-167005000D03*
%TD*%
%TO.C,R20*%
X126394000Y-167005000D03*
X129319000Y-167005000D03*
%TD*%
D15*
%TO.C,R27*%
X67175000Y-158050000D03*
X69000000Y-158050000D03*
%TD*%
D32*
%TO.C,SW1*%
X85075000Y-156050000D03*
X87025000Y-156050000D03*
D33*
X84000000Y-154500000D03*
X88100000Y-154500000D03*
X84000000Y-156100000D03*
X88100000Y-156100000D03*
D34*
X86050000Y-153875000D03*
%TD*%
D25*
%TO.C,Q3*%
X67125000Y-166050000D03*
X67125000Y-167950000D03*
X69000000Y-167000000D03*
%TD*%
D35*
%TO.C,R30*%
X90500000Y-155825000D03*
X90500000Y-154000000D03*
%TD*%
D15*
%TO.C,R8*%
X92500000Y-146000000D03*
X94325000Y-146000000D03*
%TD*%
%TO.C,R6*%
X92500000Y-149000000D03*
X94325000Y-149000000D03*
%TD*%
%TO.C,R26*%
X80675000Y-138000000D03*
X82500000Y-138000000D03*
%TD*%
D20*
%TO.C,R14*%
X121394000Y-162505000D03*
X124319000Y-162505000D03*
%TD*%
D18*
%TO.C,C4*%
X93199000Y-127119000D03*
X95099000Y-127119000D03*
%TD*%
D17*
%TO.C,C10*%
X136139000Y-152781000D03*
X139319000Y-152781000D03*
%TD*%
D15*
%TO.C,R10*%
X121342000Y-126574000D03*
X119517000Y-126574000D03*
%TD*%
D20*
%TO.C,R23*%
X118106000Y-138303000D03*
X121031000Y-138303000D03*
%TD*%
D18*
%TO.C,C6*%
X96600000Y-152500000D03*
X98500000Y-152500000D03*
%TD*%
D36*
%TO.C,J2*%
X105581500Y-126586500D03*
X103581500Y-126586500D03*
%TD*%
D15*
%TO.C,R5*%
X70087500Y-130000000D03*
X71912500Y-130000000D03*
%TD*%
D18*
%TO.C,C2*%
X66500000Y-134000000D03*
X68400000Y-134000000D03*
%TD*%
D15*
%TO.C,R9*%
X96500000Y-146000000D03*
X98325000Y-146000000D03*
%TD*%
D37*
%TO.C,D8*%
X96400000Y-140500000D03*
X98500000Y-140500000D03*
%TD*%
D18*
%TO.C,C7*%
X100600000Y-152500000D03*
X102500000Y-152500000D03*
%TD*%
D15*
%TO.C,R1*%
X53175000Y-132000000D03*
X55000000Y-132000000D03*
%TD*%
%TO.C,R3*%
X62000000Y-130000000D03*
X63825000Y-130000000D03*
%TD*%
D38*
%TO.C,L1*%
X133042000Y-128504000D03*
X128342000Y-128524000D03*
%TD*%
D39*
%TO.C,BZ1*%
X54000000Y-167500000D03*
X62700000Y-167500000D03*
%TD*%
D20*
%TO.C,R22*%
X136394000Y-167005000D03*
X139319000Y-167005000D03*
%TD*%
D15*
%TO.C,R28*%
X67175000Y-161000000D03*
X69000000Y-161000000D03*
%TD*%
%TO.C,R29*%
X92675000Y-140500000D03*
X94500000Y-140500000D03*
%TD*%
D24*
%TO.C,D1*%
X70000000Y-121500000D03*
X71875000Y-121500000D03*
%TD*%
D21*
%TO.C,D4*%
X127419000Y-147781000D03*
X131819000Y-147781000D03*
%TD*%
D40*
%TO.C,J1*%
X47669600Y-126845000D03*
X47669600Y-125845000D03*
X47669600Y-124345000D03*
X47669600Y-123345000D03*
D41*
X47669600Y-122695000D03*
X47669600Y-121895000D03*
D40*
X47669600Y-123845000D03*
X47669600Y-124845000D03*
X47669600Y-125345000D03*
X47669600Y-126345000D03*
D42*
X47669600Y-127495000D03*
D43*
X47669600Y-128295000D03*
D44*
X48429600Y-129425000D03*
D45*
X52609600Y-129425000D03*
X52609600Y-120765000D03*
D44*
X48429600Y-120765000D03*
D46*
X48929600Y-122195000D03*
X48929600Y-127995000D03*
%TD*%
M02*
