M48
; DRILL file KiCad 10.0.6 date 2026-10-09T19:12:35
; FORMAT={-:-/ absolute / metric / decimal}
; #@! TF.CreationDate,2026-10-09T19:12:35+02:00
; #@! TF.GenerationSoftware,Kicad,Pcbnew,10.0.6
; #@! TF.FileFunction,Plated,1,2,PTH
FMAT,2
METRIC
; #@! TA.AperFunction,Plated,PTH,ViaDrill
T1C0.300
; #@! TA.AperFunction,Plated,PTH,ComponentDrill
T2C0.600
; #@! TA.AperFunction,Plated,PTH,ComponentDrill
T3C0.800
; #@! TA.AperFunction,Plated,PTH,ComponentDrill
T4C0.900
; #@! TA.AperFunction,Plated,PTH,ComponentDrill
T5C1.000
%
G90
G05
T1
X48.819Y-127.102
X50.241Y-126.492
X50.8Y-123.038
X51.816Y-124.257
X52.273Y-126.492
X53.34Y-138.633
X55.5Y-137.05
X59.055Y-142.494
X59.309Y-136.271
X59.69Y-122.555
X61.468Y-142.748
X61.595Y-138.176
X61.976Y-120.65
X62.535Y-137.211
X63.246Y-121.412
X63.881Y-135.636
X64.516Y-121.412
X64.516Y-127.232
X65.786Y-123.571
X65.913Y-128.651
X67.818Y-170.307
X70.0Y-121.5
X71.374Y-122.936
X74.422Y-159.766
X74.803Y-153.289
X76.327Y-134.747
X77.216Y-150.876
X77.597Y-156.464
X78.232Y-163.83
X78.537Y-147.828
X79.197Y-152.044
X79.883Y-153.67
X80.391Y-160.02
X81.534Y-126.873
X82.169Y-153.162
X84.963Y-142.494
X87.63Y-150.622
X87.63Y-153.289
X88.519Y-159.639
X88.773Y-129.286
X88.773Y-164.084
X89.789Y-149.86
X90.043Y-148.209
X90.297Y-155.194
X91.059Y-134.874
X91.313Y-152.4
X91.542Y-161.442
X91.745Y-154.889
X92.202Y-157.48
X94.107Y-163.703
X94.325Y-146.0
X94.361Y-157.353
X95.504Y-152.502
X96.5Y-146.0
X97.79Y-154.178
X98.298Y-150.876
X98.325Y-146.0
X98.325Y-149.0
X98.5Y-152.5
X98.933Y-154.178
X100.203Y-146.304
X100.584Y-144.653
X100.584Y-153.924
X100.584Y-156.972
X100.965Y-143.002
X100.965Y-148.59
X101.854Y-143.764
X101.981Y-148.463
X102.235Y-161.29
X102.489Y-140.081
X103.124Y-147.701
X103.251Y-161.417
X103.632Y-146.304
X103.886Y-149.86
X104.394Y-152.019
X104.394Y-154.305
X104.6Y-156.6
X104.902Y-153.416
X106.426Y-169.799
X106.934Y-144.78
X107.188Y-141.224
X118.106Y-138.303
X123.39Y-146.411
X123.842Y-128.524
X127.419Y-147.781
X130.819Y-152.781
X133.042Y-128.504
X135.455Y-143.236
X136.0Y-171.5
X137.795Y-121.92
X139.9Y-144.506
X140.97Y-168.021
T2
X48.93Y-122.195
X48.93Y-127.995
T4
X103.581Y-126.587
X105.581Y-126.587
T5
X135.044Y-139.281
X137.584Y-139.281
T3
G00X48.08Y-120.765
M15
G01X48.78Y-120.765
M16
G05
G00X48.08Y-129.425
M15
G01X48.78Y-129.425
M16
G05
G00X52.41Y-120.765
M15
G01X52.81Y-120.765
M16
G05
G00X52.41Y-129.425
M15
G01X52.81Y-129.425
M16
G05
M30
