%TF.GenerationSoftware,KiCad,Pcbnew,10.0.6*%
%TF.CreationDate,2026-10-09T19:12:30+02:00*%
%TF.ProjectId,wifi-geiger-counter,77696669-2d67-4656-9967-65722d636f75,rev?*%
%TF.SameCoordinates,Original*%
%TF.FileFunction,Copper,L2,Bot*%
%TF.FilePolarity,Positive*%
%FSLAX46Y46*%
G04 Gerber Fmt 4.6, Leading zero omitted, Abs format (unit mm)*
G04 Created by KiCad (PCBNEW 10.0.6) date 2026-10-09 19:12:30*
%MOMM*%
%LPD*%
G01*
G04 APERTURE LIST*
%TA.AperFunction,ComponentPad*%
%ADD10C,1.700000*%
%TD*%
%TA.AperFunction,ComponentPad*%
%ADD11R,1.700000X1.700000*%
%TD*%
%TA.AperFunction,ComponentPad*%
%ADD12C,1.400000*%
%TD*%
%TA.AperFunction,ComponentPad*%
%ADD13O,2.000000X1.200000*%
%TD*%
%TA.AperFunction,ComponentPad*%
%ADD14O,1.800000X1.200000*%
%TD*%
%TA.AperFunction,ComponentPad*%
%ADD15C,0.600000*%
%TD*%
%TA.AperFunction,ViaPad*%
%ADD16C,0.600000*%
%TD*%
%TA.AperFunction,Conductor*%
%ADD17C,0.200000*%
%TD*%
%TA.AperFunction,Conductor*%
%ADD18C,0.250000*%
%TD*%
%TA.AperFunction,Conductor*%
%ADD19C,0.500000*%
%TD*%
G04 APERTURE END LIST*
D10*
%TO.P,J3,2,Pin_2_2*%
%TO.N,/TUBE_K*%
X137584000Y-139281000D03*
D11*
%TO.P,J3,1,Pin_1_1*%
%TO.N,Net-(J3-Pin_1)*%
X135044000Y-139281000D03*
%TD*%
D12*
%TO.P,J2,1,1_1*%
%TO.N,/VBAT*%
X105581500Y-126586500D03*
%TO.P,J2,2,2_2*%
%TO.N,GND*%
X103581500Y-126586500D03*
%TD*%
D13*
%TO.P,J1,4,EH_4*%
%TO.N,GND*%
X48429600Y-129425000D03*
D14*
%TO.P,J1,3,EH_3*%
X52609600Y-129425000D03*
%TO.P,J1,2,EH_2*%
X52609600Y-120765000D03*
D13*
%TO.P,J1,1,EH_1*%
X48429600Y-120765000D03*
D15*
%TO.P,J1,*%
%TO.N,*%
X48929600Y-122195000D03*
X48929600Y-127995000D03*
%TD*%
D16*
%TO.N,GND*%
X104600000Y-156600000D03*
X91744800Y-154889200D03*
X91541600Y-161442400D03*
X78536800Y-147828000D03*
X62534800Y-137210800D03*
X79197200Y-152044400D03*
X95504000Y-152501600D03*
X98500000Y-152500000D03*
%TO.N,/VBUS*%
X50800000Y-123037600D03*
X48818800Y-127101600D03*
%TO.N,/USB_DP*%
X55500000Y-137050000D03*
X52273200Y-126492000D03*
%TO.N,/USB_DN*%
X53340000Y-138633200D03*
X50241200Y-126492000D03*
%TO.N,Net-(U2-IO8)*%
X98325000Y-146000000D03*
X100965000Y-143002000D03*
X103632000Y-146304000D03*
X104902000Y-153416000D03*
X100584000Y-153924000D03*
X100584000Y-156972000D03*
%TO.N,/BOOT*%
X79883000Y-153670000D03*
X98325000Y-149000000D03*
X100203000Y-146304000D03*
X100965000Y-148590000D03*
X103124000Y-147701000D03*
X80391000Y-160020000D03*
%TO.N,/VBAT*%
X64516000Y-121412000D03*
%TO.N,Net-(D1-K)*%
X70000000Y-121500000D03*
X61976000Y-120650000D03*
%TO.N,/VBAT*%
X81534000Y-126873000D03*
%TO.N,/VBUS*%
X64516000Y-127232000D03*
X59690000Y-122555000D03*
%TO.N,Net-(D2-K)*%
X63246000Y-121412000D03*
X65786000Y-123571000D03*
%TO.N,/HV*%
X118106000Y-138303000D03*
%TO.N,/HV_FB*%
X136000000Y-171500000D03*
X140970000Y-168021000D03*
%TO.N,/TUBE_K*%
X137795000Y-121920000D03*
%TO.N,/HV_X*%
X127419000Y-147781000D03*
%TO.N,/SW*%
X123842000Y-128524000D03*
%TO.N,/HV*%
X135455000Y-143236000D03*
%TO.N,/SW*%
X123390000Y-146411000D03*
%TO.N,/HV_X*%
X130819000Y-152781000D03*
X139900000Y-144506000D03*
%TO.N,/HV_PWM*%
X107188000Y-141224000D03*
%TO.N,/VBAT*%
X88773000Y-129286000D03*
%TO.N,+3V3*%
X67818000Y-170307000D03*
X96500000Y-146000000D03*
X100584000Y-144653000D03*
X91313000Y-152400000D03*
X101981000Y-148463000D03*
X102235000Y-161290000D03*
%TO.N,/IO2*%
X90297000Y-155194000D03*
X94325000Y-146000000D03*
X87630000Y-153289000D03*
X98298000Y-150876000D03*
X89789000Y-149860000D03*
%TO.N,/EN*%
X103886000Y-149860000D03*
X90043000Y-148209000D03*
X82169000Y-153162000D03*
X104394000Y-152019000D03*
%TO.N,/HV_FB*%
X103251000Y-161417000D03*
X106426000Y-169799000D03*
%TO.N,/PULSE_SAFE*%
X104394000Y-154305000D03*
X102489000Y-140081000D03*
X101854000Y-143764000D03*
X106934000Y-144780000D03*
%TO.N,/HV_PWM*%
X98933000Y-154178000D03*
%TO.N,/BUZZER*%
X97790000Y-154178000D03*
X77216000Y-150876000D03*
X74803000Y-153289000D03*
X87630000Y-150622000D03*
%TO.N,/BOOT*%
X88519000Y-159639000D03*
X94361000Y-157353000D03*
%TO.N,/USB_DN*%
X74422000Y-159766000D03*
X61468000Y-142748000D03*
X78232000Y-163830000D03*
X92202000Y-157480000D03*
%TO.N,/USB_DP*%
X61595000Y-138176000D03*
X94107000Y-163703000D03*
X88773000Y-164084000D03*
X59309000Y-136271000D03*
%TO.N,Net-(D1-A)*%
X65913000Y-128651000D03*
X71374000Y-122936000D03*
%TO.N,/VBUS*%
X63881000Y-135636000D03*
X59055000Y-142494000D03*
%TO.N,/TUBE_K*%
X84963000Y-142494000D03*
%TO.N,/SW*%
X133042000Y-128504000D03*
%TO.N,/BOOT*%
X91059000Y-134874000D03*
X76327000Y-134747000D03*
X77597000Y-156464000D03*
%TO.N,/USB_DP*%
X51816000Y-124256800D03*
%TD*%
%TO.N,GND*%
D17*
X98399600Y-152501600D02*
X98450400Y-152552400D01*
X95504000Y-152501600D02*
X98399600Y-152501600D01*
X98500000Y-152502800D02*
X98500000Y-152500000D01*
X98450400Y-152552400D02*
X98500000Y-152502800D01*
%TO.N,/VBUS*%
X50800000Y-123291600D02*
X50800000Y-123037600D01*
X48818800Y-125272800D02*
X50800000Y-123291600D01*
X48818800Y-127101600D02*
X48818800Y-125272800D01*
%TO.N,/USB_DP*%
X54914800Y-136464800D02*
X55500000Y-137050000D01*
X54813200Y-128371600D02*
X54914800Y-128473200D01*
X52273200Y-126492000D02*
X54152800Y-128371600D01*
X54152800Y-128371600D02*
X54813200Y-128371600D01*
X54914800Y-128473200D02*
X54914800Y-136464800D01*
%TO.N,/USB_DN*%
X51968400Y-138633200D02*
X53340000Y-138633200D01*
X50241200Y-136906000D02*
X51968400Y-138633200D01*
X50241200Y-126492000D02*
X50241200Y-136906000D01*
%TO.N,Net-(U2-IO8)*%
D18*
X100584000Y-145542000D02*
X98783000Y-145542000D01*
X100965000Y-145796000D02*
X100838000Y-145796000D01*
X101727000Y-145034000D02*
X100965000Y-145796000D01*
X101727000Y-144780000D02*
X101727000Y-145034000D01*
X100838000Y-145796000D02*
X100584000Y-145542000D01*
X100965000Y-144018000D02*
X101727000Y-144780000D01*
X100965000Y-143002000D02*
X100965000Y-144018000D01*
X98783000Y-145542000D02*
X98325000Y-146000000D01*
X105410000Y-146304000D02*
X103632000Y-146304000D01*
X105664000Y-146558000D02*
X105410000Y-146304000D01*
X105664000Y-152654000D02*
X105664000Y-146558000D01*
X104902000Y-153416000D02*
X105664000Y-152654000D01*
X100584000Y-156972000D02*
X100584000Y-153924000D01*
%TO.N,/BOOT*%
X98298000Y-148973000D02*
X98325000Y-149000000D01*
X98298000Y-148209000D02*
X98298000Y-148973000D01*
X100203000Y-146304000D02*
X98298000Y-148209000D01*
X101854000Y-147701000D02*
X100965000Y-148590000D01*
X103124000Y-147701000D02*
X101854000Y-147701000D01*
D19*
X81661000Y-158750000D02*
X80391000Y-160020000D01*
X88519000Y-158750000D02*
X81661000Y-158750000D01*
X88519000Y-159639000D02*
X88519000Y-158750000D01*
%TO.N,Net-(D1-K)*%
D18*
X74129000Y-121500000D02*
X70000000Y-121500000D01*
X74422000Y-121793000D02*
X74129000Y-121500000D01*
X74422000Y-126873000D02*
X74422000Y-121793000D01*
X71120000Y-130175000D02*
X74422000Y-126873000D01*
X60833000Y-130175000D02*
X71120000Y-130175000D01*
X57785000Y-127127000D02*
X60833000Y-130175000D01*
X61595000Y-120523000D02*
X60960000Y-121158000D01*
X60960000Y-121158000D02*
X57785000Y-121158000D01*
X61722000Y-120523000D02*
X61595000Y-120523000D01*
X57785000Y-121158000D02*
X57785000Y-127127000D01*
X61849000Y-120650000D02*
X61722000Y-120523000D01*
X61976000Y-120650000D02*
X61849000Y-120650000D01*
%TO.N,/VBAT*%
D19*
X83947000Y-129286000D02*
X81534000Y-126873000D01*
%TO.N,/VBUS*%
D18*
X64643000Y-125857000D02*
X64643000Y-127105000D01*
X64643000Y-127105000D02*
X64516000Y-127232000D01*
X61341000Y-122555000D02*
X64643000Y-125857000D01*
X59690000Y-122555000D02*
X61341000Y-122555000D01*
%TO.N,Net-(D2-K)*%
X63119000Y-121539000D02*
X63246000Y-121412000D01*
X63119000Y-122555000D02*
X63119000Y-121539000D01*
X65786000Y-123571000D02*
X64135000Y-123571000D01*
X64135000Y-123571000D02*
X63119000Y-122555000D01*
%TO.N,/VBAT*%
D19*
X75184000Y-120523000D02*
X65405000Y-120523000D01*
X88773000Y-129286000D02*
X83947000Y-129286000D01*
X81534000Y-126873000D02*
X75184000Y-120523000D01*
X65405000Y-120523000D02*
X64516000Y-121412000D01*
%TO.N,/SW*%
X112649000Y-141605000D02*
X117455000Y-146411000D01*
X117455000Y-146411000D02*
X123390000Y-146411000D01*
X109982000Y-131064000D02*
X109982000Y-132969000D01*
X123695000Y-131064000D02*
X109982000Y-131064000D01*
X123842000Y-130917000D02*
X123695000Y-131064000D01*
X109982000Y-132969000D02*
X112649000Y-135636000D01*
X112649000Y-135636000D02*
X112649000Y-141605000D01*
%TO.N,/HV*%
D18*
X120753000Y-140950000D02*
X118106000Y-138303000D01*
X131899000Y-140950000D02*
X120753000Y-140950000D01*
%TO.N,/HV_FB*%
X135636000Y-171136000D02*
X136000000Y-171500000D01*
X135636000Y-168910000D02*
X135636000Y-171136000D01*
X140081000Y-168910000D02*
X135636000Y-168910000D01*
X140970000Y-168021000D02*
X140081000Y-168910000D01*
%TO.N,/TUBE_K*%
D19*
X137795000Y-121920000D02*
X96266000Y-121920000D01*
X96266000Y-121920000D02*
X94742000Y-120396000D01*
%TO.N,/HV_X*%
D18*
X130494000Y-150856000D02*
X127419000Y-147781000D01*
X133296000Y-150856000D02*
X130494000Y-150856000D01*
X133296000Y-150856000D02*
X133296000Y-153142000D01*
%TO.N,/SW*%
D19*
X130629000Y-130917000D02*
X133042000Y-128504000D01*
X123842000Y-130917000D02*
X130629000Y-130917000D01*
X123842000Y-130917000D02*
X123842000Y-128524000D01*
%TO.N,/HV*%
D18*
X134947000Y-142728000D02*
X135328000Y-143109000D01*
X131899000Y-142093000D02*
X132534000Y-142728000D01*
X132534000Y-142728000D02*
X134947000Y-142728000D01*
X131899000Y-140950000D02*
X131899000Y-142093000D01*
%TO.N,/HV_X*%
X131180000Y-153142000D02*
X130819000Y-152781000D01*
X133296000Y-153142000D02*
X131180000Y-153142000D01*
X135709000Y-144506000D02*
X133296000Y-146919000D01*
X139900000Y-144506000D02*
X135709000Y-144506000D01*
X133296000Y-146919000D02*
X133296000Y-150856000D01*
%TO.N,/TUBE_K*%
D19*
X93853000Y-121285000D02*
X93853000Y-142494000D01*
X94742000Y-120396000D02*
X93853000Y-121285000D01*
%TO.N,/HV_PWM*%
X99441000Y-148971000D02*
X107188000Y-141224000D01*
X99441000Y-154178000D02*
X99441000Y-148971000D01*
X98933000Y-154178000D02*
X99441000Y-154178000D01*
%TO.N,+3V3*%
X102235000Y-149098000D02*
X101981000Y-148844000D01*
X101981000Y-148844000D02*
X101981000Y-148463000D01*
X67818000Y-170307000D02*
X85725000Y-152400000D01*
X96754000Y-144653000D02*
X96500000Y-144399000D01*
X85725000Y-152400000D02*
X91313000Y-152400000D01*
X100584000Y-144653000D02*
X96754000Y-144653000D01*
X96500000Y-144399000D02*
X96500000Y-146000000D01*
X102235000Y-161290000D02*
X102235000Y-149098000D01*
%TO.N,/IO2*%
X98298000Y-150876000D02*
X96393000Y-150876000D01*
X95377000Y-147052000D02*
X94325000Y-146000000D01*
X95377000Y-149860000D02*
X95377000Y-147052000D01*
X88392000Y-153289000D02*
X87630000Y-153289000D01*
X90297000Y-155194000D02*
X88392000Y-153289000D01*
X96393000Y-150876000D02*
X95377000Y-149860000D01*
X89789000Y-149860000D02*
X95377000Y-149860000D01*
%TO.N,/EN*%
X104394000Y-149860000D02*
X103886000Y-149860000D01*
X84963000Y-148209000D02*
X82169000Y-151003000D01*
X104394000Y-152019000D02*
X104394000Y-149860000D01*
X82169000Y-151003000D02*
X82169000Y-153162000D01*
X90043000Y-148209000D02*
X84963000Y-148209000D01*
%TO.N,/HV_FB*%
X106426000Y-169799000D02*
X106426000Y-164465000D01*
X103251000Y-164465000D02*
X103251000Y-161417000D01*
X106426000Y-164465000D02*
X103251000Y-164465000D01*
%TO.N,/PULSE_SAFE*%
X104394000Y-154305000D02*
X108712000Y-154305000D01*
X101854000Y-143764000D02*
X101854000Y-140716000D01*
X108839000Y-154178000D02*
X108839000Y-145542000D01*
X108077000Y-144780000D02*
X106934000Y-144780000D01*
X101854000Y-140716000D02*
X102489000Y-140081000D01*
X108712000Y-154305000D02*
X108839000Y-154178000D01*
X108839000Y-145542000D02*
X108077000Y-144780000D01*
%TO.N,/BUZZER*%
X92329000Y-153416000D02*
X92837000Y-152908000D01*
X92329000Y-150622000D02*
X87630000Y-150622000D01*
X77216000Y-150876000D02*
X74803000Y-153289000D01*
X92329000Y-154178000D02*
X92329000Y-153416000D01*
X97790000Y-154178000D02*
X92329000Y-154178000D01*
X92837000Y-151130000D02*
X92329000Y-150622000D01*
X92837000Y-152908000D02*
X92837000Y-151130000D01*
%TO.N,/BOOT*%
X88519000Y-158750000D02*
X88519000Y-157861000D01*
X89916000Y-156464000D02*
X93472000Y-156464000D01*
X93472000Y-156464000D02*
X94361000Y-157353000D01*
X88519000Y-157861000D02*
X89916000Y-156464000D01*
%TO.N,/USB_DN*%
X61595000Y-142748000D02*
X61468000Y-142748000D01*
X74422000Y-155575000D02*
X61595000Y-142748000D01*
X80772000Y-161290000D02*
X78232000Y-163830000D01*
X88265000Y-161290000D02*
X80772000Y-161290000D01*
X92202000Y-157480000D02*
X90170000Y-159512000D01*
X89027000Y-162052000D02*
X88265000Y-161290000D01*
X90170000Y-159512000D02*
X90170000Y-162052000D01*
X74422000Y-159766000D02*
X74422000Y-155575000D01*
X90170000Y-162052000D02*
X89027000Y-162052000D01*
%TO.N,/USB_DP*%
X93726000Y-164084000D02*
X94107000Y-163703000D01*
X61595000Y-138049000D02*
X61595000Y-138176000D01*
X59817000Y-136271000D02*
X61595000Y-138049000D01*
X59309000Y-136271000D02*
X59817000Y-136271000D01*
X88773000Y-164084000D02*
X93726000Y-164084000D01*
%TO.N,Net-(D1-A)*%
X65913000Y-128397000D02*
X65913000Y-128651000D01*
X71374000Y-122936000D02*
X65913000Y-128397000D01*
%TO.N,/VBUS*%
X59055000Y-142494000D02*
X63881000Y-137668000D01*
X63881000Y-137668000D02*
X63881000Y-135636000D01*
%TO.N,/TUBE_K*%
X84963000Y-142494000D02*
X93853000Y-142494000D01*
X137868000Y-138997000D02*
X137584000Y-139281000D01*
%TO.N,/BOOT*%
D18*
X77597000Y-156464000D02*
X79883000Y-154178000D01*
X79883000Y-154178000D02*
X79883000Y-153670000D01*
X76327000Y-134747000D02*
X89154000Y-134747000D01*
X89154000Y-134747000D02*
X89281000Y-134620000D01*
X89281000Y-134620000D02*
X90805000Y-134620000D01*
X90805000Y-134620000D02*
X91059000Y-134874000D01*
%TO.N,/USB_DP*%
D17*
X51816000Y-126034800D02*
X52273200Y-126492000D01*
X51816000Y-124256800D02*
X51816000Y-126034800D01*
%TD*%
%TA.AperFunction,Conductor*%
%TO.N,GND*%
G36*
X95081809Y-150630185D02*
G01*
X95102451Y-150646819D01*
X95914586Y-151458954D01*
X95941066Y-151476646D01*
X95954308Y-151485494D01*
X96037505Y-151541084D01*
X96037506Y-151541084D01*
X96037507Y-151541085D01*
X96174082Y-151597656D01*
X96174087Y-151597658D01*
X96174091Y-151597658D01*
X96174092Y-151597659D01*
X96319079Y-151626500D01*
X96319082Y-151626500D01*
X96319083Y-151626500D01*
X96466917Y-151626500D01*
X97993396Y-151626500D01*
X98040844Y-151635937D01*
X98064503Y-151645737D01*
X98064508Y-151645738D01*
X98064511Y-151645739D01*
X98219153Y-151676499D01*
X98219156Y-151676500D01*
X98219158Y-151676500D01*
X98376844Y-151676500D01*
X98376845Y-151676499D01*
X98422831Y-151667352D01*
X98537472Y-151644549D01*
X98537755Y-151645976D01*
X98600356Y-151645409D01*
X98659473Y-151682650D01*
X98689073Y-151745940D01*
X98690500Y-151764698D01*
X98690500Y-153329137D01*
X98670815Y-153396176D01*
X98618011Y-153441931D01*
X98613953Y-153443698D01*
X98553824Y-153468604D01*
X98553814Y-153468609D01*
X98430391Y-153551079D01*
X98363714Y-153571957D01*
X98296333Y-153553473D01*
X98292609Y-153551079D01*
X98169185Y-153468609D01*
X98169172Y-153468602D01*
X98023501Y-153408264D01*
X98023489Y-153408261D01*
X97868845Y-153377500D01*
X97868842Y-153377500D01*
X97711158Y-153377500D01*
X97711155Y-153377500D01*
X97556511Y-153408260D01*
X97556506Y-153408262D01*
X97556504Y-153408262D01*
X97556503Y-153408263D01*
X97532844Y-153418062D01*
X97485396Y-153427500D01*
X93619730Y-153427500D01*
X93552691Y-153407815D01*
X93506936Y-153355011D01*
X93496992Y-153285853D01*
X93505169Y-153256047D01*
X93511276Y-153241303D01*
X93558658Y-153126913D01*
X93566174Y-153089127D01*
X93587500Y-152981918D01*
X93587500Y-151056082D01*
X93587500Y-151056079D01*
X93558659Y-150911092D01*
X93558658Y-150911091D01*
X93558658Y-150911087D01*
X93505168Y-150781952D01*
X93497700Y-150712483D01*
X93528975Y-150650004D01*
X93589064Y-150614352D01*
X93619730Y-150610500D01*
X95014770Y-150610500D01*
X95081809Y-150630185D01*
G37*
%TD.AperFunction*%
%TA.AperFunction,Conductor*%
G36*
X51329608Y-120020185D02*
G01*
X51375363Y-120072989D01*
X51385307Y-120142147D01*
X51370289Y-120183767D01*
X51371008Y-120184134D01*
X51290191Y-120342744D01*
X51236685Y-120507415D01*
X51235484Y-120514999D01*
X51235485Y-120515000D01*
X52093916Y-120515000D01*
X52089521Y-120519395D01*
X52036860Y-120610606D01*
X52009601Y-120712339D01*
X52009601Y-120817661D01*
X52036860Y-120919394D01*
X52089521Y-121010605D01*
X52093916Y-121015000D01*
X51235485Y-121015000D01*
X51236685Y-121022584D01*
X51290191Y-121187255D01*
X51368795Y-121341524D01*
X51470567Y-121481602D01*
X51592997Y-121604032D01*
X51733075Y-121705804D01*
X51887342Y-121784408D01*
X52052015Y-121837914D01*
X52223029Y-121865000D01*
X52359600Y-121865000D01*
X52359600Y-121164999D01*
X52859600Y-121164999D01*
X52859600Y-121865000D01*
X52996171Y-121865000D01*
X53167184Y-121837914D01*
X53331857Y-121784408D01*
X53486124Y-121705804D01*
X53626202Y-121604032D01*
X53748632Y-121481602D01*
X53850404Y-121341524D01*
X53929008Y-121187255D01*
X53982514Y-121022584D01*
X53983715Y-121015000D01*
X53125284Y-121015000D01*
X53129679Y-121010605D01*
X53182340Y-120919394D01*
X53209599Y-120817661D01*
X53209599Y-120712339D01*
X53182340Y-120610606D01*
X53129679Y-120519395D01*
X53125284Y-120515000D01*
X53983715Y-120515000D01*
X53983715Y-120514999D01*
X53982514Y-120507415D01*
X53929008Y-120342744D01*
X53848192Y-120184134D01*
X53849348Y-120183544D01*
X53832660Y-120121840D01*
X53853778Y-120055238D01*
X53907551Y-120010627D01*
X53956631Y-120000500D01*
X60933547Y-120000500D01*
X61000586Y-120020185D01*
X61046341Y-120072989D01*
X61056285Y-120142147D01*
X61027260Y-120205703D01*
X61021228Y-120212181D01*
X60737229Y-120496181D01*
X60675906Y-120529666D01*
X60649548Y-120532500D01*
X57723389Y-120532500D01*
X57602555Y-120556535D01*
X57602545Y-120556538D01*
X57488716Y-120603687D01*
X57488707Y-120603692D01*
X57386267Y-120672141D01*
X57386263Y-120672144D01*
X57299144Y-120759263D01*
X57299141Y-120759267D01*
X57230692Y-120861707D01*
X57230687Y-120861716D01*
X57183538Y-120975545D01*
X57183535Y-120975555D01*
X57159500Y-121096389D01*
X57159500Y-127188609D01*
X57164888Y-127215695D01*
X57164888Y-127215697D01*
X57172145Y-127252179D01*
X57176034Y-127271733D01*
X57183537Y-127309451D01*
X57230688Y-127423286D01*
X57230689Y-127423287D01*
X57262111Y-127470314D01*
X57262112Y-127470315D01*
X57269104Y-127480779D01*
X57299142Y-127525733D01*
X57299145Y-127525736D01*
X57299148Y-127525740D01*
X57390586Y-127617178D01*
X57390608Y-127617198D01*
X60344016Y-130570606D01*
X60344045Y-130570637D01*
X60434263Y-130660855D01*
X60434271Y-130660861D01*
X60489983Y-130698087D01*
X60489985Y-130698088D01*
X60536710Y-130729309D01*
X60536709Y-130729309D01*
X60536712Y-130729310D01*
X60536715Y-130729312D01*
X60603396Y-130756931D01*
X60603398Y-130756933D01*
X60643640Y-130773601D01*
X60650548Y-130776463D01*
X60710971Y-130788481D01*
X60771393Y-130800500D01*
X71181607Y-130800500D01*
X71242029Y-130788481D01*
X71302452Y-130776463D01*
X71302455Y-130776461D01*
X71302458Y-130776461D01*
X71335787Y-130762654D01*
X71335786Y-130762654D01*
X71335792Y-130762652D01*
X71416286Y-130729312D01*
X71467509Y-130695084D01*
X71518733Y-130660858D01*
X71605858Y-130573733D01*
X71605859Y-130573731D01*
X71612925Y-130566665D01*
X71612928Y-130566661D01*
X74820729Y-127358860D01*
X74820733Y-127358858D01*
X74907858Y-127271733D01*
X74976311Y-127169286D01*
X75023463Y-127055452D01*
X75047500Y-126934606D01*
X75047500Y-121860741D01*
X75047501Y-121860720D01*
X75047501Y-121747230D01*
X75067186Y-121680191D01*
X75119990Y-121634436D01*
X75189148Y-121624492D01*
X75252704Y-121653517D01*
X75259168Y-121659536D01*
X77876799Y-124277166D01*
X80787926Y-127188293D01*
X80814806Y-127228520D01*
X80824606Y-127252178D01*
X80824609Y-127252185D01*
X80912210Y-127383288D01*
X80912213Y-127383292D01*
X81023710Y-127494789D01*
X81070032Y-127525740D01*
X81154821Y-127582394D01*
X81178475Y-127592191D01*
X81218703Y-127619071D01*
X83364048Y-129764415D01*
X83364049Y-129764416D01*
X83424632Y-129824999D01*
X83468585Y-129868952D01*
X83591498Y-129951080D01*
X83591511Y-129951087D01*
X83698469Y-129995390D01*
X83728087Y-130007658D01*
X83728091Y-130007658D01*
X83728092Y-130007659D01*
X83873079Y-130036500D01*
X83873082Y-130036500D01*
X88468396Y-130036500D01*
X88515844Y-130045937D01*
X88539503Y-130055737D01*
X88539508Y-130055738D01*
X88539511Y-130055739D01*
X88694153Y-130086499D01*
X88694156Y-130086500D01*
X88694158Y-130086500D01*
X88851844Y-130086500D01*
X88851845Y-130086499D01*
X89006497Y-130055737D01*
X89152179Y-129995394D01*
X89283289Y-129907789D01*
X89394789Y-129796289D01*
X89482394Y-129665179D01*
X89542737Y-129519497D01*
X89573500Y-129364842D01*
X89573500Y-129207158D01*
X89573500Y-129207155D01*
X89573499Y-129207153D01*
X89542737Y-129052503D01*
X89533487Y-129030172D01*
X89482397Y-128906827D01*
X89482390Y-128906814D01*
X89394789Y-128775711D01*
X89394786Y-128775707D01*
X89283292Y-128664213D01*
X89283288Y-128664210D01*
X89152185Y-128576609D01*
X89152172Y-128576602D01*
X89006501Y-128516264D01*
X89006489Y-128516261D01*
X88851845Y-128485500D01*
X88851842Y-128485500D01*
X88694158Y-128485500D01*
X88694155Y-128485500D01*
X88539511Y-128516260D01*
X88539506Y-128516262D01*
X88539504Y-128516262D01*
X88539503Y-128516263D01*
X88515844Y-128526062D01*
X88468396Y-128535500D01*
X84309229Y-128535500D01*
X84242190Y-128515815D01*
X84221548Y-128499181D01*
X82280071Y-126557703D01*
X82253191Y-126517475D01*
X82243394Y-126493821D01*
X82209614Y-126443265D01*
X82155789Y-126362710D01*
X82044292Y-126251213D01*
X82044288Y-126251210D01*
X81913185Y-126163609D01*
X81913180Y-126163607D01*
X81913179Y-126163606D01*
X81889519Y-126153805D01*
X81849293Y-126126926D01*
X75934549Y-120212181D01*
X75901064Y-120150858D01*
X75906048Y-120081166D01*
X75947920Y-120025233D01*
X76013384Y-120000816D01*
X76022230Y-120000500D01*
X93776770Y-120000500D01*
X93843809Y-120020185D01*
X93889564Y-120072989D01*
X93899508Y-120142147D01*
X93870483Y-120205703D01*
X93864451Y-120212181D01*
X93270052Y-120806578D01*
X93270049Y-120806581D01*
X93235901Y-120857687D01*
X93235902Y-120857688D01*
X93187914Y-120929508D01*
X93131343Y-121066082D01*
X93131340Y-121066092D01*
X93102500Y-121211079D01*
X93102500Y-141619500D01*
X93082815Y-141686539D01*
X93030011Y-141732294D01*
X92978500Y-141743500D01*
X85267604Y-141743500D01*
X85220155Y-141734062D01*
X85196497Y-141724263D01*
X85196493Y-141724262D01*
X85196488Y-141724260D01*
X85041845Y-141693500D01*
X85041842Y-141693500D01*
X84884158Y-141693500D01*
X84884155Y-141693500D01*
X84729510Y-141724261D01*
X84729498Y-141724264D01*
X84583827Y-141784602D01*
X84583814Y-141784609D01*
X84452711Y-141872210D01*
X84452707Y-141872213D01*
X84341213Y-141983707D01*
X84341210Y-141983711D01*
X84253609Y-142114814D01*
X84253605Y-142114823D01*
X84193264Y-142260498D01*
X84193261Y-142260510D01*
X84162500Y-142415153D01*
X84162500Y-142572846D01*
X84193261Y-142727489D01*
X84193264Y-142727501D01*
X84253602Y-142873172D01*
X84253609Y-142873185D01*
X84341210Y-143004288D01*
X84341213Y-143004292D01*
X84452707Y-143115786D01*
X84452711Y-143115789D01*
X84583814Y-143203390D01*
X84583827Y-143203397D01*
X84729498Y-143263735D01*
X84729503Y-143263737D01*
X84884153Y-143294499D01*
X84884156Y-143294500D01*
X84884158Y-143294500D01*
X85041844Y-143294500D01*
X85041845Y-143294499D01*
X85118152Y-143279320D01*
X85196488Y-143263739D01*
X85196489Y-143263738D01*
X85196497Y-143263737D01*
X85220155Y-143253937D01*
X85267604Y-143244500D01*
X93926920Y-143244500D01*
X94024462Y-143225096D01*
X94071913Y-143215658D01*
X94208495Y-143159084D01*
X94331416Y-143076951D01*
X94435951Y-142972416D01*
X94518084Y-142849495D01*
X94574658Y-142712913D01*
X94603500Y-142567918D01*
X94603500Y-133042920D01*
X109231499Y-133042920D01*
X109260340Y-133187907D01*
X109260343Y-133187917D01*
X109316914Y-133324492D01*
X109349812Y-133373727D01*
X109349813Y-133373730D01*
X109399046Y-133447414D01*
X109399052Y-133447421D01*
X111862181Y-135910548D01*
X111895666Y-135971871D01*
X111898500Y-135998229D01*
X111898500Y-141678918D01*
X111898500Y-141678920D01*
X111898499Y-141678920D01*
X111927340Y-141823907D01*
X111927343Y-141823917D01*
X111983912Y-141960488D01*
X111983916Y-141960495D01*
X112002776Y-141988721D01*
X112002777Y-141988724D01*
X112066046Y-142083414D01*
X112066052Y-142083421D01*
X115671974Y-145689341D01*
X116872048Y-146889415D01*
X116872049Y-146889416D01*
X116931818Y-146949185D01*
X116976585Y-146993952D01*
X117099498Y-147076080D01*
X117099511Y-147076087D01*
X117168107Y-147104500D01*
X117236087Y-147132658D01*
X117236091Y-147132658D01*
X117236092Y-147132659D01*
X117381079Y-147161500D01*
X117381082Y-147161500D01*
X123085396Y-147161500D01*
X123132844Y-147170937D01*
X123156503Y-147180737D01*
X123156508Y-147180738D01*
X123156511Y-147180739D01*
X123311153Y-147211499D01*
X123311156Y-147211500D01*
X123311158Y-147211500D01*
X123468844Y-147211500D01*
X123468845Y-147211499D01*
X123623497Y-147180737D01*
X123769179Y-147120394D01*
X123900289Y-147032789D01*
X124011789Y-146921289D01*
X124099394Y-146790179D01*
X124159737Y-146644497D01*
X124190500Y-146489842D01*
X124190500Y-146332158D01*
X124190500Y-146332155D01*
X124190499Y-146332153D01*
X124176488Y-146261714D01*
X124159737Y-146177503D01*
X124155594Y-146167500D01*
X124099397Y-146031827D01*
X124099390Y-146031814D01*
X124011789Y-145900711D01*
X124011786Y-145900707D01*
X123900292Y-145789213D01*
X123900288Y-145789210D01*
X123769185Y-145701609D01*
X123769172Y-145701602D01*
X123623501Y-145641264D01*
X123623489Y-145641261D01*
X123468845Y-145610500D01*
X123468842Y-145610500D01*
X123311158Y-145610500D01*
X123311155Y-145610500D01*
X123156511Y-145641260D01*
X123156506Y-145641262D01*
X123156504Y-145641262D01*
X123156503Y-145641263D01*
X123132844Y-145651062D01*
X123085396Y-145660500D01*
X117817229Y-145660500D01*
X117750190Y-145640815D01*
X117729548Y-145624181D01*
X113435819Y-141330451D01*
X113402334Y-141269128D01*
X113399500Y-141242770D01*
X113399500Y-138224153D01*
X117305500Y-138224153D01*
X117305500Y-138381846D01*
X117336261Y-138536489D01*
X117336264Y-138536501D01*
X117396602Y-138682172D01*
X117396609Y-138682185D01*
X117484210Y-138813288D01*
X117484213Y-138813292D01*
X117595707Y-138924786D01*
X117595711Y-138924789D01*
X117726814Y-139012390D01*
X117726827Y-139012397D01*
X117814230Y-139048599D01*
X117872503Y-139072737D01*
X117983716Y-139094858D01*
X118045623Y-139127241D01*
X118047203Y-139128793D01*
X120264016Y-141345606D01*
X120264045Y-141345637D01*
X120354263Y-141435855D01*
X120354267Y-141435858D01*
X120456707Y-141504307D01*
X120456713Y-141504310D01*
X120456714Y-141504311D01*
X120570548Y-141551463D01*
X120630971Y-141563481D01*
X120691393Y-141575500D01*
X120691394Y-141575500D01*
X131149500Y-141575500D01*
X131216539Y-141595185D01*
X131262294Y-141647989D01*
X131273500Y-141699500D01*
X131273500Y-142154610D01*
X131285518Y-142215029D01*
X131297537Y-142275452D01*
X131297538Y-142275454D01*
X131297538Y-142275456D01*
X131309468Y-142304257D01*
X131344685Y-142389281D01*
X131344688Y-142389287D01*
X131358666Y-142410205D01*
X131373037Y-142431712D01*
X131373038Y-142431715D01*
X131373039Y-142431715D01*
X131413140Y-142491731D01*
X131413141Y-142491732D01*
X131413142Y-142491733D01*
X131500267Y-142578858D01*
X131500268Y-142578858D01*
X131507335Y-142585925D01*
X131507334Y-142585925D01*
X131507338Y-142585928D01*
X132135263Y-143213855D01*
X132135267Y-143213858D01*
X132237715Y-143282312D01*
X132280583Y-143300068D01*
X132280584Y-143300069D01*
X132280585Y-143300069D01*
X132351548Y-143329463D01*
X132371597Y-143333451D01*
X132405196Y-143340134D01*
X132472392Y-143353501D01*
X132472394Y-143353501D01*
X132601721Y-143353501D01*
X132601741Y-143353500D01*
X134560426Y-143353500D01*
X134627465Y-143373185D01*
X134673220Y-143425989D01*
X134682042Y-143453306D01*
X134685263Y-143469496D01*
X134685263Y-143469498D01*
X134745602Y-143615172D01*
X134745609Y-143615185D01*
X134833210Y-143746288D01*
X134833213Y-143746292D01*
X134944707Y-143857786D01*
X134944711Y-143857789D01*
X135075814Y-143945390D01*
X135075821Y-143945394D01*
X135123000Y-143964936D01*
X135177403Y-144008776D01*
X135199469Y-144075070D01*
X135182191Y-144142769D01*
X135163229Y-144167178D01*
X133457601Y-145872808D01*
X132897269Y-146433140D01*
X132897267Y-146433142D01*
X132853703Y-146476705D01*
X132810140Y-146520268D01*
X132787396Y-146554309D01*
X132787394Y-146554312D01*
X132741687Y-146622715D01*
X132741685Y-146622718D01*
X132694540Y-146736538D01*
X132694535Y-146736554D01*
X132675334Y-146833089D01*
X132675334Y-146833090D01*
X132670500Y-146857391D01*
X132670500Y-150106500D01*
X132650815Y-150173539D01*
X132598011Y-150219294D01*
X132546500Y-150230500D01*
X130804453Y-150230500D01*
X130737414Y-150210815D01*
X130716772Y-150194181D01*
X128244793Y-147722203D01*
X128211308Y-147660880D01*
X128210887Y-147658864D01*
X128188737Y-147547503D01*
X128147962Y-147449062D01*
X128128397Y-147401827D01*
X128128390Y-147401814D01*
X128040789Y-147270711D01*
X128040786Y-147270707D01*
X127929292Y-147159213D01*
X127929288Y-147159210D01*
X127798185Y-147071609D01*
X127798172Y-147071602D01*
X127652501Y-147011264D01*
X127652489Y-147011261D01*
X127497845Y-146980500D01*
X127497842Y-146980500D01*
X127340158Y-146980500D01*
X127340155Y-146980500D01*
X127185510Y-147011261D01*
X127185498Y-147011264D01*
X127039827Y-147071602D01*
X127039814Y-147071609D01*
X126908711Y-147159210D01*
X126908707Y-147159213D01*
X126797213Y-147270707D01*
X126797210Y-147270711D01*
X126709609Y-147401814D01*
X126709602Y-147401827D01*
X126649264Y-147547498D01*
X126649261Y-147547510D01*
X126618500Y-147702153D01*
X126618500Y-147859846D01*
X126649261Y-148014489D01*
X126649264Y-148014501D01*
X126709602Y-148160172D01*
X126709609Y-148160185D01*
X126797210Y-148291288D01*
X126797213Y-148291292D01*
X126908707Y-148402786D01*
X126908711Y-148402789D01*
X127039814Y-148490390D01*
X127039827Y-148490397D01*
X127066633Y-148501500D01*
X127185503Y-148550737D01*
X127296716Y-148572858D01*
X127358623Y-148605241D01*
X127360203Y-148606793D01*
X130095263Y-151341855D01*
X130095267Y-151341858D01*
X130197710Y-151410309D01*
X130197711Y-151410309D01*
X130197715Y-151410312D01*
X130264396Y-151437931D01*
X130264398Y-151437933D01*
X130306198Y-151455247D01*
X130311548Y-151457463D01*
X130331597Y-151461451D01*
X130365196Y-151468134D01*
X130432392Y-151481501D01*
X130432394Y-151481501D01*
X130561721Y-151481501D01*
X130561741Y-151481500D01*
X132546500Y-151481500D01*
X132613539Y-151501185D01*
X132659294Y-151553989D01*
X132670500Y-151605500D01*
X132670500Y-152392500D01*
X132650815Y-152459539D01*
X132598011Y-152505294D01*
X132546500Y-152516500D01*
X131658749Y-152516500D01*
X131591710Y-152496815D01*
X131545955Y-152444011D01*
X131544202Y-152439986D01*
X131528394Y-152401821D01*
X131528389Y-152401814D01*
X131440789Y-152270711D01*
X131440786Y-152270707D01*
X131329292Y-152159213D01*
X131329288Y-152159210D01*
X131198185Y-152071609D01*
X131198172Y-152071602D01*
X131052501Y-152011264D01*
X131052489Y-152011261D01*
X130897845Y-151980500D01*
X130897842Y-151980500D01*
X130740158Y-151980500D01*
X130740155Y-151980500D01*
X130585510Y-152011261D01*
X130585498Y-152011264D01*
X130439827Y-152071602D01*
X130439814Y-152071609D01*
X130308711Y-152159210D01*
X130308707Y-152159213D01*
X130197213Y-152270707D01*
X130197210Y-152270711D01*
X130109609Y-152401814D01*
X130109602Y-152401827D01*
X130049264Y-152547498D01*
X130049261Y-152547510D01*
X130018500Y-152702153D01*
X130018500Y-152859846D01*
X130049261Y-153014489D01*
X130049264Y-153014501D01*
X130109602Y-153160172D01*
X130109609Y-153160185D01*
X130197210Y-153291288D01*
X130197213Y-153291292D01*
X130308707Y-153402786D01*
X130308711Y-153402789D01*
X130439814Y-153490390D01*
X130439827Y-153490397D01*
X130549082Y-153535651D01*
X130585503Y-153550737D01*
X130696715Y-153572858D01*
X130758622Y-153605241D01*
X130760149Y-153606740D01*
X130770831Y-153617422D01*
X130781266Y-153627857D01*
X130821138Y-153654499D01*
X130821139Y-153654499D01*
X130821140Y-153654500D01*
X130883714Y-153696312D01*
X130945848Y-153722048D01*
X130945849Y-153722049D01*
X130987447Y-153739279D01*
X130997548Y-153743463D01*
X131024591Y-153748842D01*
X131118391Y-153767499D01*
X131118392Y-153767500D01*
X131118393Y-153767500D01*
X133357607Y-153767500D01*
X133357608Y-153767499D01*
X133478452Y-153743463D01*
X133592286Y-153696311D01*
X133694733Y-153627858D01*
X133781858Y-153540733D01*
X133850311Y-153438286D01*
X133897463Y-153324452D01*
X133921500Y-153203606D01*
X133921500Y-150794394D01*
X133921500Y-147229452D01*
X133941185Y-147162413D01*
X133957819Y-147141771D01*
X135931772Y-145167819D01*
X135993095Y-145134334D01*
X136019453Y-145131500D01*
X139357650Y-145131500D01*
X139424689Y-145151185D01*
X139426541Y-145152398D01*
X139520821Y-145215394D01*
X139520823Y-145215395D01*
X139520827Y-145215397D01*
X139666498Y-145275735D01*
X139666503Y-145275737D01*
X139821153Y-145306499D01*
X139821156Y-145306500D01*
X139821158Y-145306500D01*
X139978844Y-145306500D01*
X139978845Y-145306499D01*
X140133497Y-145275737D01*
X140279179Y-145215394D01*
X140410289Y-145127789D01*
X140521789Y-145016289D01*
X140609394Y-144885179D01*
X140669737Y-144739497D01*
X140700500Y-144584842D01*
X140700500Y-144427158D01*
X140700500Y-144427155D01*
X140700499Y-144427153D01*
X140692271Y-144385788D01*
X140669737Y-144272503D01*
X140638483Y-144197048D01*
X140609397Y-144126827D01*
X140609390Y-144126814D01*
X140521789Y-143995711D01*
X140521786Y-143995707D01*
X140410292Y-143884213D01*
X140410288Y-143884210D01*
X140279185Y-143796609D01*
X140279172Y-143796602D01*
X140133501Y-143736264D01*
X140133489Y-143736261D01*
X139978845Y-143705500D01*
X139978842Y-143705500D01*
X139821158Y-143705500D01*
X139821155Y-143705500D01*
X139666510Y-143736261D01*
X139666498Y-143736264D01*
X139520827Y-143796602D01*
X139520815Y-143796609D01*
X139426541Y-143859602D01*
X139359864Y-143880480D01*
X139357650Y-143880500D01*
X136219100Y-143880500D01*
X136152061Y-143860815D01*
X136106306Y-143808011D01*
X136096362Y-143738853D01*
X136115998Y-143687609D01*
X136164390Y-143615185D01*
X136164390Y-143615184D01*
X136164394Y-143615179D01*
X136224737Y-143469497D01*
X136255500Y-143314842D01*
X136255500Y-143157158D01*
X136255500Y-143157155D01*
X136255499Y-143157153D01*
X136247271Y-143115789D01*
X136224737Y-143002503D01*
X136212274Y-142972415D01*
X136164397Y-142856827D01*
X136164390Y-142856814D01*
X136076789Y-142725711D01*
X136076786Y-142725707D01*
X135965292Y-142614213D01*
X135965288Y-142614210D01*
X135834185Y-142526609D01*
X135834172Y-142526602D01*
X135688501Y-142466264D01*
X135688489Y-142466261D01*
X135577285Y-142444141D01*
X135515374Y-142411756D01*
X135513795Y-142410205D01*
X135439928Y-142336338D01*
X135439925Y-142336334D01*
X135439925Y-142336335D01*
X135432859Y-142329269D01*
X135432858Y-142329267D01*
X135345733Y-142242142D01*
X135345729Y-142242139D01*
X135345728Y-142242138D01*
X135264633Y-142187952D01*
X135264631Y-142187950D01*
X135264631Y-142187951D01*
X135243285Y-142173687D01*
X135197219Y-142154607D01*
X135158345Y-142138505D01*
X135129453Y-142126537D01*
X135119427Y-142124543D01*
X135069029Y-142114518D01*
X135008610Y-142102500D01*
X135008607Y-142102500D01*
X135008606Y-142102500D01*
X132844453Y-142102500D01*
X132777414Y-142082815D01*
X132756772Y-142066181D01*
X132560819Y-141870228D01*
X132527334Y-141808905D01*
X132524500Y-141782547D01*
X132524500Y-140888393D01*
X132524499Y-140888389D01*
X132515832Y-140844814D01*
X132500463Y-140767548D01*
X132453311Y-140653714D01*
X132453310Y-140653713D01*
X132453307Y-140653707D01*
X132384858Y-140551267D01*
X132384855Y-140551263D01*
X132297736Y-140464144D01*
X132297732Y-140464141D01*
X132195292Y-140395692D01*
X132195283Y-140395687D01*
X132081454Y-140348538D01*
X132081455Y-140348538D01*
X132081452Y-140348537D01*
X132081448Y-140348536D01*
X132081444Y-140348535D01*
X131960610Y-140324500D01*
X131960606Y-140324500D01*
X121063452Y-140324500D01*
X120996413Y-140304815D01*
X120975771Y-140288181D01*
X119070725Y-138383135D01*
X133693500Y-138383135D01*
X133693500Y-140178870D01*
X133693501Y-140178876D01*
X133699908Y-140238483D01*
X133750202Y-140373328D01*
X133750206Y-140373335D01*
X133836452Y-140488544D01*
X133836455Y-140488547D01*
X133951664Y-140574793D01*
X133951671Y-140574797D01*
X134086517Y-140625091D01*
X134086516Y-140625091D01*
X134093444Y-140625835D01*
X134146127Y-140631500D01*
X135941872Y-140631499D01*
X136001483Y-140625091D01*
X136136331Y-140574796D01*
X136251546Y-140488546D01*
X136337796Y-140373331D01*
X136386810Y-140241916D01*
X136428681Y-140185984D01*
X136494145Y-140161566D01*
X136562418Y-140176417D01*
X136590673Y-140197569D01*
X136704213Y-140311109D01*
X136876179Y-140436048D01*
X136876181Y-140436049D01*
X136876184Y-140436051D01*
X137065588Y-140532557D01*
X137267757Y-140598246D01*
X137477713Y-140631500D01*
X137477714Y-140631500D01*
X137690286Y-140631500D01*
X137690287Y-140631500D01*
X137900243Y-140598246D01*
X138102412Y-140532557D01*
X138291816Y-140436051D01*
X138378138Y-140373335D01*
X138463786Y-140311109D01*
X138463788Y-140311106D01*
X138463792Y-140311104D01*
X138614104Y-140160792D01*
X138614106Y-140160788D01*
X138614109Y-140160786D01*
X138739048Y-139988820D01*
X138739047Y-139988820D01*
X138739051Y-139988816D01*
X138835557Y-139799412D01*
X138901246Y-139597243D01*
X138934500Y-139387287D01*
X138934500Y-139174713D01*
X138901246Y-138964757D01*
X138835557Y-138762588D01*
X138739051Y-138573184D01*
X138739049Y-138573181D01*
X138739048Y-138573179D01*
X138614109Y-138401213D01*
X138463786Y-138250890D01*
X138291820Y-138125951D01*
X138102414Y-138029444D01*
X138102413Y-138029443D01*
X138102412Y-138029443D01*
X137900243Y-137963754D01*
X137900241Y-137963753D01*
X137900240Y-137963753D01*
X137738957Y-137938208D01*
X137690287Y-137930500D01*
X137477713Y-137930500D01*
X137429042Y-137938208D01*
X137267760Y-137963753D01*
X137065585Y-138029444D01*
X136876179Y-138125951D01*
X136704215Y-138250889D01*
X136590673Y-138364431D01*
X136529350Y-138397915D01*
X136459658Y-138392931D01*
X136403725Y-138351059D01*
X136386810Y-138320082D01*
X136337797Y-138188671D01*
X136337793Y-138188664D01*
X136251547Y-138073455D01*
X136251544Y-138073452D01*
X136136335Y-137987206D01*
X136136328Y-137987202D01*
X136001482Y-137936908D01*
X136001483Y-137936908D01*
X135941883Y-137930501D01*
X135941881Y-137930500D01*
X135941873Y-137930500D01*
X135941864Y-137930500D01*
X134146129Y-137930500D01*
X134146123Y-137930501D01*
X134086516Y-137936908D01*
X133951671Y-137987202D01*
X133951664Y-137987206D01*
X133836455Y-138073452D01*
X133836452Y-138073455D01*
X133750206Y-138188664D01*
X133750202Y-138188671D01*
X133699908Y-138323517D01*
X133693501Y-138383116D01*
X133693500Y-138383135D01*
X119070725Y-138383135D01*
X118931793Y-138244203D01*
X118898308Y-138182880D01*
X118897887Y-138180864D01*
X118875737Y-138069503D01*
X118835483Y-137972320D01*
X118815397Y-137923827D01*
X118815390Y-137923814D01*
X118727789Y-137792711D01*
X118727786Y-137792707D01*
X118616292Y-137681213D01*
X118616288Y-137681210D01*
X118485185Y-137593609D01*
X118485172Y-137593602D01*
X118339501Y-137533264D01*
X118339489Y-137533261D01*
X118184845Y-137502500D01*
X118184842Y-137502500D01*
X118027158Y-137502500D01*
X118027155Y-137502500D01*
X117872510Y-137533261D01*
X117872498Y-137533264D01*
X117726827Y-137593602D01*
X117726814Y-137593609D01*
X117595711Y-137681210D01*
X117595707Y-137681213D01*
X117484213Y-137792707D01*
X117484210Y-137792711D01*
X117396609Y-137923814D01*
X117396602Y-137923827D01*
X117336264Y-138069498D01*
X117336261Y-138069510D01*
X117305500Y-138224153D01*
X113399500Y-138224153D01*
X113399500Y-135562081D01*
X113399499Y-135562080D01*
X113387052Y-135499501D01*
X113370659Y-135417088D01*
X113333704Y-135327873D01*
X113314084Y-135280505D01*
X113298254Y-135256814D01*
X113231954Y-135157588D01*
X113231953Y-135157587D01*
X113231951Y-135157584D01*
X113127416Y-135053049D01*
X110768819Y-132694451D01*
X110735334Y-132633128D01*
X110732500Y-132606770D01*
X110732500Y-131938500D01*
X110752185Y-131871461D01*
X110804989Y-131825706D01*
X110856500Y-131814500D01*
X123768920Y-131814500D01*
X123866462Y-131795096D01*
X123913913Y-131785658D01*
X124050495Y-131729084D01*
X124099729Y-131696186D01*
X124111387Y-131688397D01*
X124178065Y-131667520D01*
X124180276Y-131667500D01*
X130702920Y-131667500D01*
X130800462Y-131648096D01*
X130847913Y-131638658D01*
X130984495Y-131582084D01*
X131033729Y-131549186D01*
X131107416Y-131499952D01*
X133357295Y-129250070D01*
X133397519Y-129223193D01*
X133421179Y-129213394D01*
X133552289Y-129125789D01*
X133663789Y-129014289D01*
X133751394Y-128883179D01*
X133811737Y-128737497D01*
X133842500Y-128582842D01*
X133842500Y-128425158D01*
X133842500Y-128425155D01*
X133842499Y-128425153D01*
X133835022Y-128387565D01*
X133811737Y-128270503D01*
X133800898Y-128244334D01*
X133751397Y-128124827D01*
X133751390Y-128124814D01*
X133663789Y-127993711D01*
X133663786Y-127993707D01*
X133552292Y-127882213D01*
X133552288Y-127882210D01*
X133421185Y-127794609D01*
X133421172Y-127794602D01*
X133275501Y-127734264D01*
X133275489Y-127734261D01*
X133120845Y-127703500D01*
X133120842Y-127703500D01*
X132963158Y-127703500D01*
X132963155Y-127703500D01*
X132808510Y-127734261D01*
X132808498Y-127734264D01*
X132662827Y-127794602D01*
X132662814Y-127794609D01*
X132531711Y-127882210D01*
X132531707Y-127882213D01*
X132420213Y-127993707D01*
X132420207Y-127993715D01*
X132332607Y-128124818D01*
X132332605Y-128124822D01*
X132322805Y-128148480D01*
X132295927Y-128188704D01*
X130354451Y-130130181D01*
X130293128Y-130163666D01*
X130266770Y-130166500D01*
X124716500Y-130166500D01*
X124649461Y-130146815D01*
X124603706Y-130094011D01*
X124592500Y-130042500D01*
X124592500Y-128828604D01*
X124601939Y-128781151D01*
X124604194Y-128775707D01*
X124611737Y-128757497D01*
X124642500Y-128602842D01*
X124642500Y-128445158D01*
X124642500Y-128445155D01*
X124642499Y-128445153D01*
X124636999Y-128417503D01*
X124611737Y-128290503D01*
X124593469Y-128246400D01*
X124551397Y-128144827D01*
X124551390Y-128144814D01*
X124463789Y-128013711D01*
X124463786Y-128013707D01*
X124352292Y-127902213D01*
X124352288Y-127902210D01*
X124221185Y-127814609D01*
X124221172Y-127814602D01*
X124075501Y-127754264D01*
X124075489Y-127754261D01*
X123920845Y-127723500D01*
X123920842Y-127723500D01*
X123763158Y-127723500D01*
X123763155Y-127723500D01*
X123608510Y-127754261D01*
X123608498Y-127754264D01*
X123462827Y-127814602D01*
X123462814Y-127814609D01*
X123331711Y-127902210D01*
X123331707Y-127902213D01*
X123220213Y-128013707D01*
X123220210Y-128013711D01*
X123132609Y-128144814D01*
X123132602Y-128144827D01*
X123072264Y-128290498D01*
X123072261Y-128290510D01*
X123041500Y-128445153D01*
X123041500Y-128602846D01*
X123072261Y-128757489D01*
X123072263Y-128757497D01*
X123082061Y-128781151D01*
X123091500Y-128828604D01*
X123091500Y-130189500D01*
X123071815Y-130256539D01*
X123019011Y-130302294D01*
X122967500Y-130313500D01*
X109908080Y-130313500D01*
X109763092Y-130342340D01*
X109763082Y-130342343D01*
X109626511Y-130398912D01*
X109626498Y-130398919D01*
X109503584Y-130481048D01*
X109503580Y-130481051D01*
X109399051Y-130585580D01*
X109399048Y-130585584D01*
X109316919Y-130708498D01*
X109316912Y-130708511D01*
X109260343Y-130845082D01*
X109260340Y-130845092D01*
X109231500Y-130990079D01*
X109231500Y-130990082D01*
X109231500Y-133042918D01*
X109231500Y-133042920D01*
X109231499Y-133042920D01*
X94603500Y-133042920D01*
X94603500Y-126492052D01*
X102381500Y-126492052D01*
X102381500Y-126680947D01*
X102411048Y-126867502D01*
X102469414Y-127047137D01*
X102555166Y-127215433D01*
X102573616Y-127240828D01*
X103139352Y-126675093D01*
X103162156Y-126760198D01*
X103221401Y-126862814D01*
X103305186Y-126946599D01*
X103407802Y-127005844D01*
X103492905Y-127028647D01*
X102927169Y-127594382D01*
X102927170Y-127594383D01*
X102952559Y-127612829D01*
X103120862Y-127698585D01*
X103300497Y-127756951D01*
X103487053Y-127786500D01*
X103675947Y-127786500D01*
X103862502Y-127756951D01*
X104042137Y-127698585D01*
X104210437Y-127612831D01*
X104235828Y-127594383D01*
X104235828Y-127594382D01*
X103670094Y-127028647D01*
X103755198Y-127005844D01*
X103857814Y-126946599D01*
X103941599Y-126862814D01*
X104000844Y-126760198D01*
X104023647Y-126675093D01*
X104530969Y-127182415D01*
X104552151Y-127211567D01*
X104552193Y-127211542D01*
X104552514Y-127212066D01*
X104553768Y-127213792D01*
X104554740Y-127215699D01*
X104665810Y-127368573D01*
X104799427Y-127502190D01*
X104952301Y-127613260D01*
X105031847Y-127653790D01*
X105120663Y-127699045D01*
X105120665Y-127699045D01*
X105120668Y-127699047D01*
X105195926Y-127723500D01*
X105300381Y-127757440D01*
X105487014Y-127787000D01*
X105487019Y-127787000D01*
X105675986Y-127787000D01*
X105862618Y-127757440D01*
X105909238Y-127742292D01*
X106042332Y-127699047D01*
X106210699Y-127613260D01*
X106363573Y-127502190D01*
X106497190Y-127368573D01*
X106608260Y-127215699D01*
X106681598Y-127071765D01*
X106694045Y-127047336D01*
X106694045Y-127047335D01*
X106694047Y-127047332D01*
X106752440Y-126867618D01*
X106760529Y-126816548D01*
X106782000Y-126680986D01*
X106782000Y-126492013D01*
X106752440Y-126305381D01*
X106725346Y-126221997D01*
X106694047Y-126125668D01*
X106694045Y-126125665D01*
X106694045Y-126125663D01*
X106631863Y-126003625D01*
X106608260Y-125957301D01*
X106497190Y-125804427D01*
X106363573Y-125670810D01*
X106210699Y-125559740D01*
X106042336Y-125473954D01*
X105862618Y-125415559D01*
X105675986Y-125386000D01*
X105675981Y-125386000D01*
X105487019Y-125386000D01*
X105487014Y-125386000D01*
X105300381Y-125415559D01*
X105120663Y-125473954D01*
X104952300Y-125559740D01*
X104870076Y-125619480D01*
X104799427Y-125670810D01*
X104799424Y-125670812D01*
X104665812Y-125804424D01*
X104665812Y-125804425D01*
X104665810Y-125804427D01*
X104610275Y-125880864D01*
X104554738Y-125957303D01*
X104554734Y-125957310D01*
X104553765Y-125959212D01*
X104552512Y-125960935D01*
X104552193Y-125961457D01*
X104552151Y-125961431D01*
X104530969Y-125990583D01*
X104023647Y-126497905D01*
X104000844Y-126412802D01*
X103941599Y-126310186D01*
X103857814Y-126226401D01*
X103755198Y-126167156D01*
X103670094Y-126144352D01*
X104235828Y-125578616D01*
X104210433Y-125560166D01*
X104042137Y-125474414D01*
X103862502Y-125416048D01*
X103675947Y-125386500D01*
X103487053Y-125386500D01*
X103300497Y-125416048D01*
X103120862Y-125474414D01*
X102952560Y-125560169D01*
X102927170Y-125578616D01*
X102927169Y-125578616D01*
X103492906Y-126144352D01*
X103407802Y-126167156D01*
X103305186Y-126226401D01*
X103221401Y-126310186D01*
X103162156Y-126412802D01*
X103139352Y-126497905D01*
X102573616Y-125932169D01*
X102573616Y-125932170D01*
X102555169Y-125957560D01*
X102469414Y-126125862D01*
X102411048Y-126305497D01*
X102381500Y-126492052D01*
X94603500Y-126492052D01*
X94603500Y-121647230D01*
X94623185Y-121580191D01*
X94639816Y-121559552D01*
X94644062Y-121555305D01*
X94654317Y-121545050D01*
X94715638Y-121511564D01*
X94785330Y-121516546D01*
X94829681Y-121545048D01*
X95683048Y-122398415D01*
X95683049Y-122398416D01*
X95760786Y-122476153D01*
X95787585Y-122502952D01*
X95910498Y-122585080D01*
X95910511Y-122585087D01*
X95986608Y-122616607D01*
X96047087Y-122641658D01*
X96047091Y-122641658D01*
X96047092Y-122641659D01*
X96192079Y-122670500D01*
X96192082Y-122670500D01*
X137490396Y-122670500D01*
X137537844Y-122679937D01*
X137561503Y-122689737D01*
X137561508Y-122689738D01*
X137561511Y-122689739D01*
X137716153Y-122720499D01*
X137716156Y-122720500D01*
X137716158Y-122720500D01*
X137873844Y-122720500D01*
X137873845Y-122720499D01*
X138028497Y-122689737D01*
X138163431Y-122633846D01*
X138174172Y-122629397D01*
X138174172Y-122629396D01*
X138174179Y-122629394D01*
X138305289Y-122541789D01*
X138416789Y-122430289D01*
X138504394Y-122299179D01*
X138564737Y-122153497D01*
X138595500Y-121998842D01*
X138595500Y-121841158D01*
X138595500Y-121841155D01*
X138595499Y-121841153D01*
X138584382Y-121785263D01*
X138564737Y-121686503D01*
X138555549Y-121664321D01*
X138504397Y-121540827D01*
X138504390Y-121540814D01*
X138416789Y-121409711D01*
X138416786Y-121409707D01*
X138305292Y-121298213D01*
X138305288Y-121298210D01*
X138174185Y-121210609D01*
X138174172Y-121210602D01*
X138028501Y-121150264D01*
X138028489Y-121150261D01*
X137873845Y-121119500D01*
X137873842Y-121119500D01*
X137716158Y-121119500D01*
X137716155Y-121119500D01*
X137561511Y-121150260D01*
X137561506Y-121150262D01*
X137561504Y-121150262D01*
X137561503Y-121150263D01*
X137537844Y-121160062D01*
X137490396Y-121169500D01*
X96628229Y-121169500D01*
X96561190Y-121149815D01*
X96540548Y-121133181D01*
X95619549Y-120212181D01*
X95586064Y-120150858D01*
X95591048Y-120081166D01*
X95632920Y-120025233D01*
X95698384Y-120000816D01*
X95707230Y-120000500D01*
X141375500Y-120000500D01*
X141442539Y-120020185D01*
X141488294Y-120072989D01*
X141499500Y-120124500D01*
X141499500Y-167188291D01*
X141479815Y-167255330D01*
X141427011Y-167301085D01*
X141357853Y-167311029D01*
X141328048Y-167302853D01*
X141299397Y-167290985D01*
X141203497Y-167251263D01*
X141203492Y-167251262D01*
X141203489Y-167251261D01*
X141048845Y-167220500D01*
X141048842Y-167220500D01*
X140891158Y-167220500D01*
X140891155Y-167220500D01*
X140736510Y-167251261D01*
X140736498Y-167251264D01*
X140590827Y-167311602D01*
X140590814Y-167311609D01*
X140459711Y-167399210D01*
X140459707Y-167399213D01*
X140348213Y-167510707D01*
X140348210Y-167510711D01*
X140260609Y-167641814D01*
X140260602Y-167641827D01*
X140200264Y-167787498D01*
X140200261Y-167787508D01*
X140178141Y-167898714D01*
X140145756Y-167960625D01*
X140144206Y-167962203D01*
X139858227Y-168248182D01*
X139796907Y-168281666D01*
X139770548Y-168284500D01*
X135574389Y-168284500D01*
X135453555Y-168308535D01*
X135453545Y-168308538D01*
X135339716Y-168355687D01*
X135339707Y-168355692D01*
X135237267Y-168424141D01*
X135237263Y-168424144D01*
X135150144Y-168511263D01*
X135150141Y-168511267D01*
X135081692Y-168613707D01*
X135081687Y-168613716D01*
X135034538Y-168727545D01*
X135034535Y-168727555D01*
X135010500Y-168848389D01*
X135010500Y-171197604D01*
X135034349Y-171317509D01*
X135034536Y-171318447D01*
X135034539Y-171318456D01*
X135081685Y-171432280D01*
X135081690Y-171432289D01*
X135115914Y-171483507D01*
X135115915Y-171483509D01*
X135150140Y-171534731D01*
X135150141Y-171534732D01*
X135150142Y-171534733D01*
X135174205Y-171558796D01*
X135207690Y-171620117D01*
X135208141Y-171622286D01*
X135230261Y-171733489D01*
X135230264Y-171733501D01*
X135290602Y-171879172D01*
X135290609Y-171879185D01*
X135378210Y-172010288D01*
X135378213Y-172010292D01*
X135489707Y-172121786D01*
X135489711Y-172121789D01*
X135620814Y-172209390D01*
X135620827Y-172209397D01*
X135766498Y-172269735D01*
X135766503Y-172269737D01*
X135921153Y-172300499D01*
X135921156Y-172300500D01*
X135921158Y-172300500D01*
X136078844Y-172300500D01*
X136078845Y-172300499D01*
X136233497Y-172269737D01*
X136379179Y-172209394D01*
X136510289Y-172121789D01*
X136621789Y-172010289D01*
X136709394Y-171879179D01*
X136769737Y-171733497D01*
X136800500Y-171578842D01*
X136800500Y-171421158D01*
X136800500Y-171421155D01*
X136800499Y-171421153D01*
X136780069Y-171318447D01*
X136769737Y-171266503D01*
X136741199Y-171197606D01*
X136709397Y-171120827D01*
X136709390Y-171120814D01*
X136621789Y-170989711D01*
X136621786Y-170989707D01*
X136510292Y-170878213D01*
X136510288Y-170878210D01*
X136379185Y-170790609D01*
X136379179Y-170790606D01*
X136338046Y-170773568D01*
X136283643Y-170729726D01*
X136261579Y-170663432D01*
X136261500Y-170659007D01*
X136261500Y-169659500D01*
X136281185Y-169592461D01*
X136333989Y-169546706D01*
X136385500Y-169535500D01*
X140142607Y-169535500D01*
X140203029Y-169523481D01*
X140263452Y-169511463D01*
X140263455Y-169511461D01*
X140263458Y-169511461D01*
X140296787Y-169497654D01*
X140296786Y-169497654D01*
X140296792Y-169497652D01*
X140377286Y-169464312D01*
X140428509Y-169430084D01*
X140479733Y-169395858D01*
X140566858Y-169308733D01*
X140566859Y-169308731D01*
X140573925Y-169301665D01*
X140573928Y-169301661D01*
X141028797Y-168846791D01*
X141090118Y-168813308D01*
X141092128Y-168812889D01*
X141203497Y-168790737D01*
X141291057Y-168754468D01*
X141328048Y-168739147D01*
X141397517Y-168731678D01*
X141459996Y-168762954D01*
X141495648Y-168823043D01*
X141499500Y-168853708D01*
X141499500Y-173875500D01*
X141479815Y-173942539D01*
X141427011Y-173988294D01*
X141375500Y-173999500D01*
X47624500Y-173999500D01*
X47557461Y-173979815D01*
X47511706Y-173927011D01*
X47500500Y-173875500D01*
X47500500Y-170228153D01*
X67017500Y-170228153D01*
X67017500Y-170385846D01*
X67048261Y-170540489D01*
X67048264Y-170540501D01*
X67108602Y-170686172D01*
X67108609Y-170686185D01*
X67196210Y-170817288D01*
X67196213Y-170817292D01*
X67307707Y-170928786D01*
X67307711Y-170928789D01*
X67438814Y-171016390D01*
X67438827Y-171016397D01*
X67584498Y-171076735D01*
X67584503Y-171076737D01*
X67739153Y-171107499D01*
X67739156Y-171107500D01*
X67739158Y-171107500D01*
X67896844Y-171107500D01*
X67896845Y-171107499D01*
X68051497Y-171076737D01*
X68197179Y-171016394D01*
X68328289Y-170928789D01*
X68439789Y-170817289D01*
X68527394Y-170686179D01*
X68537191Y-170662524D01*
X68564069Y-170622297D01*
X79387192Y-159799174D01*
X79448513Y-159765691D01*
X79518205Y-159770675D01*
X79574138Y-159812547D01*
X79598555Y-159878011D01*
X79596489Y-159911046D01*
X79590500Y-159941157D01*
X79590500Y-160098846D01*
X79621261Y-160253489D01*
X79621264Y-160253501D01*
X79681602Y-160399172D01*
X79681609Y-160399185D01*
X79769210Y-160530288D01*
X79769213Y-160530292D01*
X79880707Y-160641786D01*
X79880711Y-160641789D01*
X80011814Y-160729390D01*
X80011816Y-160729391D01*
X80011821Y-160729394D01*
X80023802Y-160734356D01*
X80078205Y-160778194D01*
X80100272Y-160844488D01*
X80082995Y-160912188D01*
X80064032Y-160936599D01*
X77916703Y-163083927D01*
X77876480Y-163110805D01*
X77852819Y-163120606D01*
X77852818Y-163120607D01*
X77721715Y-163208207D01*
X77721707Y-163208213D01*
X77610213Y-163319707D01*
X77610210Y-163319711D01*
X77522609Y-163450814D01*
X77522602Y-163450827D01*
X77462264Y-163596498D01*
X77462261Y-163596510D01*
X77431500Y-163751153D01*
X77431500Y-163908846D01*
X77462261Y-164063489D01*
X77462264Y-164063501D01*
X77522602Y-164209172D01*
X77522609Y-164209185D01*
X77610210Y-164340288D01*
X77610213Y-164340292D01*
X77721707Y-164451786D01*
X77721711Y-164451789D01*
X77852814Y-164539390D01*
X77852827Y-164539397D01*
X77998498Y-164599735D01*
X77998503Y-164599737D01*
X78153153Y-164630499D01*
X78153156Y-164630500D01*
X78153158Y-164630500D01*
X78310844Y-164630500D01*
X78310845Y-164630499D01*
X78465497Y-164599737D01*
X78611179Y-164539394D01*
X78742289Y-164451789D01*
X78853789Y-164340289D01*
X78941394Y-164209179D01*
X78951191Y-164185524D01*
X78978069Y-164145297D01*
X79118213Y-164005153D01*
X87972500Y-164005153D01*
X87972500Y-164162846D01*
X88003261Y-164317489D01*
X88003264Y-164317501D01*
X88063602Y-164463172D01*
X88063609Y-164463185D01*
X88151210Y-164594288D01*
X88151213Y-164594292D01*
X88262707Y-164705786D01*
X88262711Y-164705789D01*
X88393814Y-164793390D01*
X88393827Y-164793397D01*
X88493060Y-164834500D01*
X88539503Y-164853737D01*
X88694153Y-164884499D01*
X88694156Y-164884500D01*
X88694158Y-164884500D01*
X88851844Y-164884500D01*
X88851845Y-164884499D01*
X88928152Y-164869320D01*
X89006488Y-164853739D01*
X89006489Y-164853738D01*
X89006497Y-164853737D01*
X89030155Y-164843937D01*
X89077604Y-164834500D01*
X93799920Y-164834500D01*
X93897462Y-164815096D01*
X93944913Y-164805658D01*
X94081495Y-164749084D01*
X94179031Y-164683913D01*
X94204416Y-164666952D01*
X94422297Y-164449068D01*
X94462525Y-164422190D01*
X94486179Y-164412394D01*
X94617289Y-164324789D01*
X94728789Y-164213289D01*
X94816394Y-164082179D01*
X94876737Y-163936497D01*
X94907500Y-163781842D01*
X94907500Y-163624158D01*
X94907500Y-163624155D01*
X94907499Y-163624153D01*
X94897465Y-163573711D01*
X94876737Y-163469503D01*
X94837428Y-163374602D01*
X94816397Y-163323827D01*
X94816390Y-163323814D01*
X94728789Y-163192711D01*
X94728786Y-163192707D01*
X94617292Y-163081213D01*
X94617288Y-163081210D01*
X94486185Y-162993609D01*
X94486172Y-162993602D01*
X94340501Y-162933264D01*
X94340489Y-162933261D01*
X94185845Y-162902500D01*
X94185842Y-162902500D01*
X94028158Y-162902500D01*
X94028155Y-162902500D01*
X93873510Y-162933261D01*
X93873498Y-162933264D01*
X93727827Y-162993602D01*
X93727814Y-162993609D01*
X93596711Y-163081210D01*
X93596707Y-163081213D01*
X93485213Y-163192707D01*
X93485210Y-163192711D01*
X93427961Y-163278391D01*
X93374349Y-163323196D01*
X93324859Y-163333500D01*
X89077604Y-163333500D01*
X89030155Y-163324062D01*
X89006497Y-163314263D01*
X89006493Y-163314262D01*
X89006488Y-163314260D01*
X88851845Y-163283500D01*
X88851842Y-163283500D01*
X88694158Y-163283500D01*
X88694155Y-163283500D01*
X88539510Y-163314261D01*
X88539498Y-163314264D01*
X88393827Y-163374602D01*
X88393814Y-163374609D01*
X88262711Y-163462210D01*
X88262707Y-163462213D01*
X88151213Y-163573707D01*
X88151210Y-163573711D01*
X88063609Y-163704814D01*
X88063602Y-163704827D01*
X88003264Y-163850498D01*
X88003261Y-163850510D01*
X87972500Y-164005153D01*
X79118213Y-164005153D01*
X81046548Y-162076819D01*
X81107871Y-162043334D01*
X81134229Y-162040500D01*
X84242320Y-162040500D01*
X84309359Y-162060185D01*
X84355114Y-162112989D01*
X84365058Y-162182147D01*
X84355261Y-162212023D01*
X84356556Y-162212560D01*
X84301421Y-162345667D01*
X84301418Y-162345677D01*
X84274500Y-162481004D01*
X84274500Y-162481007D01*
X84274500Y-162618993D01*
X84274500Y-162618995D01*
X84274499Y-162618995D01*
X84301418Y-162754322D01*
X84301421Y-162754332D01*
X84354221Y-162881804D01*
X84354228Y-162881817D01*
X84430885Y-162996541D01*
X84430888Y-162996545D01*
X84528454Y-163094111D01*
X84528458Y-163094114D01*
X84643182Y-163170771D01*
X84643195Y-163170778D01*
X84770667Y-163223578D01*
X84770672Y-163223580D01*
X84770676Y-163223580D01*
X84770677Y-163223581D01*
X84906004Y-163250500D01*
X84906007Y-163250500D01*
X85043995Y-163250500D01*
X85135041Y-163232389D01*
X85179328Y-163223580D01*
X85306811Y-163170775D01*
X85421542Y-163094114D01*
X85519114Y-162996542D01*
X85595775Y-162881811D01*
X85648580Y-162754328D01*
X85672326Y-162634951D01*
X85675500Y-162618995D01*
X85675500Y-162481004D01*
X85648581Y-162345677D01*
X85648580Y-162345676D01*
X85648580Y-162345672D01*
X85617614Y-162270913D01*
X85593444Y-162212560D01*
X85595942Y-162211524D01*
X85584080Y-162154553D01*
X85609078Y-162089309D01*
X85665383Y-162047937D01*
X85707680Y-162040500D01*
X86192320Y-162040500D01*
X86259359Y-162060185D01*
X86305114Y-162112989D01*
X86315058Y-162182147D01*
X86305261Y-162212023D01*
X86306556Y-162212560D01*
X86251421Y-162345667D01*
X86251418Y-162345677D01*
X86224500Y-162481004D01*
X86224500Y-162481007D01*
X86224500Y-162618993D01*
X86224500Y-162618995D01*
X86224499Y-162618995D01*
X86251418Y-162754322D01*
X86251421Y-162754332D01*
X86304221Y-162881804D01*
X86304228Y-162881817D01*
X86380885Y-162996541D01*
X86380888Y-162996545D01*
X86478454Y-163094111D01*
X86478458Y-163094114D01*
X86593182Y-163170771D01*
X86593195Y-163170778D01*
X86720667Y-163223578D01*
X86720672Y-163223580D01*
X86720676Y-163223580D01*
X86720677Y-163223581D01*
X86856004Y-163250500D01*
X86856007Y-163250500D01*
X86993995Y-163250500D01*
X87085041Y-163232389D01*
X87129328Y-163223580D01*
X87256811Y-163170775D01*
X87371542Y-163094114D01*
X87469114Y-162996542D01*
X87545775Y-162881811D01*
X87598580Y-162754328D01*
X87622326Y-162634951D01*
X87625500Y-162618995D01*
X87625500Y-162481004D01*
X87598581Y-162345677D01*
X87598580Y-162345676D01*
X87598580Y-162345672D01*
X87567614Y-162270913D01*
X87543444Y-162212560D01*
X87545942Y-162211524D01*
X87534080Y-162154553D01*
X87559078Y-162089309D01*
X87615383Y-162047937D01*
X87657680Y-162040500D01*
X87902770Y-162040500D01*
X87969809Y-162060185D01*
X87990451Y-162076819D01*
X88548586Y-162634954D01*
X88578058Y-162654645D01*
X88622268Y-162684184D01*
X88622270Y-162684187D01*
X88622271Y-162684187D01*
X88671496Y-162717079D01*
X88671511Y-162717087D01*
X88728079Y-162740518D01*
X88728080Y-162740518D01*
X88808088Y-162773659D01*
X88924241Y-162796763D01*
X88943468Y-162800587D01*
X88953081Y-162802500D01*
X88953082Y-162802500D01*
X90243920Y-162802500D01*
X90341462Y-162783096D01*
X90388913Y-162773658D01*
X90525495Y-162717084D01*
X90648416Y-162634951D01*
X90752951Y-162530416D01*
X90835084Y-162407495D01*
X90891658Y-162270913D01*
X90903372Y-162212023D01*
X90920500Y-162125920D01*
X90920500Y-159874229D01*
X90940185Y-159807190D01*
X90956814Y-159786553D01*
X92517297Y-158226069D01*
X92557524Y-158199191D01*
X92581179Y-158189394D01*
X92712289Y-158101789D01*
X92823789Y-157990289D01*
X92911394Y-157859179D01*
X92971737Y-157713497D01*
X93002500Y-157558842D01*
X93002500Y-157401158D01*
X92996511Y-157371049D01*
X93002737Y-157301460D01*
X93045599Y-157246282D01*
X93111489Y-157223036D01*
X93179486Y-157239103D01*
X93205809Y-157259177D01*
X93614927Y-157668295D01*
X93641807Y-157708523D01*
X93651604Y-157732175D01*
X93651609Y-157732185D01*
X93739210Y-157863288D01*
X93739213Y-157863292D01*
X93850707Y-157974786D01*
X93850711Y-157974789D01*
X93981814Y-158062390D01*
X93981827Y-158062397D01*
X94127498Y-158122735D01*
X94127503Y-158122737D01*
X94282153Y-158153499D01*
X94282156Y-158153500D01*
X94282158Y-158153500D01*
X94439844Y-158153500D01*
X94439845Y-158153499D01*
X94594497Y-158122737D01*
X94740179Y-158062394D01*
X94871289Y-157974789D01*
X94982789Y-157863289D01*
X95070394Y-157732179D01*
X95130737Y-157586497D01*
X95161500Y-157431842D01*
X95161500Y-157274158D01*
X95161500Y-157274155D01*
X95161499Y-157274153D01*
X95158520Y-157259177D01*
X95130737Y-157119503D01*
X95102297Y-157050842D01*
X95070397Y-156973827D01*
X95070390Y-156973814D01*
X94982789Y-156842711D01*
X94982786Y-156842707D01*
X94871292Y-156731213D01*
X94871288Y-156731210D01*
X94740185Y-156643609D01*
X94740175Y-156643604D01*
X94716523Y-156633807D01*
X94676295Y-156606927D01*
X93950421Y-155881052D01*
X93950414Y-155881046D01*
X93876729Y-155831812D01*
X93876729Y-155831813D01*
X93827491Y-155798913D01*
X93690917Y-155742343D01*
X93690907Y-155742340D01*
X93545920Y-155713500D01*
X93545918Y-155713500D01*
X91133850Y-155713500D01*
X91066811Y-155693815D01*
X91021056Y-155641011D01*
X91011112Y-155571853D01*
X91019289Y-155542048D01*
X91066735Y-155427501D01*
X91066737Y-155427497D01*
X91097500Y-155272842D01*
X91097500Y-155115158D01*
X91097500Y-155115155D01*
X91097499Y-155115153D01*
X91089459Y-155074735D01*
X91066737Y-154960503D01*
X91041535Y-154899659D01*
X91006397Y-154814827D01*
X91006390Y-154814814D01*
X90918789Y-154683711D01*
X90918786Y-154683707D01*
X90807292Y-154572213D01*
X90807288Y-154572210D01*
X90676185Y-154484609D01*
X90676175Y-154484604D01*
X90652523Y-154474807D01*
X90612295Y-154447927D01*
X89526549Y-153362181D01*
X89493064Y-153300858D01*
X89498048Y-153231166D01*
X89539920Y-153175233D01*
X89605384Y-153150816D01*
X89614230Y-153150500D01*
X91008396Y-153150500D01*
X91055844Y-153159937D01*
X91079503Y-153169737D01*
X91079508Y-153169738D01*
X91079511Y-153169739D01*
X91234153Y-153200499D01*
X91234156Y-153200500D01*
X91234158Y-153200500D01*
X91391843Y-153200500D01*
X91409000Y-153197087D01*
X91433497Y-153192214D01*
X91503088Y-153198440D01*
X91558265Y-153241303D01*
X91581511Y-153307192D01*
X91579308Y-153338012D01*
X91578500Y-153342072D01*
X91578500Y-153342082D01*
X91578500Y-154104082D01*
X91578500Y-154251918D01*
X91578500Y-154251920D01*
X91578499Y-154251920D01*
X91607340Y-154396907D01*
X91607343Y-154396917D01*
X91663912Y-154533488D01*
X91663919Y-154533501D01*
X91746048Y-154656415D01*
X91746051Y-154656419D01*
X91850580Y-154760948D01*
X91850584Y-154760951D01*
X91973498Y-154843080D01*
X91973511Y-154843087D01*
X92110082Y-154899656D01*
X92110087Y-154899658D01*
X92110091Y-154899658D01*
X92110092Y-154899659D01*
X92255079Y-154928500D01*
X92255082Y-154928500D01*
X97485396Y-154928500D01*
X97532844Y-154937937D01*
X97556503Y-154947737D01*
X97556508Y-154947738D01*
X97556511Y-154947739D01*
X97711153Y-154978499D01*
X97711156Y-154978500D01*
X97711158Y-154978500D01*
X97868844Y-154978500D01*
X97868845Y-154978499D01*
X98023497Y-154947737D01*
X98139576Y-154899656D01*
X98169172Y-154887397D01*
X98169172Y-154887396D01*
X98169179Y-154887394D01*
X98292610Y-154804919D01*
X98359286Y-154784042D01*
X98426666Y-154802526D01*
X98430366Y-154804904D01*
X98553821Y-154887394D01*
X98553823Y-154887395D01*
X98553827Y-154887397D01*
X98653060Y-154928500D01*
X98699503Y-154947737D01*
X98854153Y-154978499D01*
X98854156Y-154978500D01*
X98854158Y-154978500D01*
X99011844Y-154978500D01*
X99011845Y-154978499D01*
X99102283Y-154960510D01*
X99166488Y-154947739D01*
X99166489Y-154947738D01*
X99166497Y-154947737D01*
X99190155Y-154937937D01*
X99237604Y-154928500D01*
X99514920Y-154928500D01*
X99612462Y-154909096D01*
X99659913Y-154899658D01*
X99787048Y-154846996D01*
X99856516Y-154839528D01*
X99918996Y-154870803D01*
X99954648Y-154930892D01*
X99958500Y-154961558D01*
X99958500Y-156429650D01*
X99938815Y-156496689D01*
X99937602Y-156498541D01*
X99874609Y-156592815D01*
X99874602Y-156592828D01*
X99814264Y-156738498D01*
X99814261Y-156738510D01*
X99783500Y-156893153D01*
X99783500Y-157050846D01*
X99814261Y-157205489D01*
X99814264Y-157205501D01*
X99874602Y-157351172D01*
X99874609Y-157351185D01*
X99962210Y-157482288D01*
X99962213Y-157482292D01*
X100073707Y-157593786D01*
X100073711Y-157593789D01*
X100204814Y-157681390D01*
X100204827Y-157681397D01*
X100327442Y-157732185D01*
X100350503Y-157741737D01*
X100505153Y-157772499D01*
X100505156Y-157772500D01*
X100505158Y-157772500D01*
X100662844Y-157772500D01*
X100662845Y-157772499D01*
X100817497Y-157741737D01*
X100963179Y-157681394D01*
X101094289Y-157593789D01*
X101205789Y-157482289D01*
X101257398Y-157405051D01*
X101311010Y-157360246D01*
X101380335Y-157351539D01*
X101443362Y-157381693D01*
X101480082Y-157441136D01*
X101484500Y-157473942D01*
X101484500Y-160985396D01*
X101475062Y-161032844D01*
X101472999Y-161037827D01*
X101465262Y-161056506D01*
X101465260Y-161056511D01*
X101434500Y-161211153D01*
X101434500Y-161368846D01*
X101465261Y-161523489D01*
X101465264Y-161523501D01*
X101525602Y-161669172D01*
X101525609Y-161669185D01*
X101613210Y-161800288D01*
X101613213Y-161800292D01*
X101724707Y-161911786D01*
X101724711Y-161911789D01*
X101855814Y-161999390D01*
X101855827Y-161999397D01*
X101955060Y-162040500D01*
X102001503Y-162059737D01*
X102156153Y-162090499D01*
X102156156Y-162090500D01*
X102156158Y-162090500D01*
X102313844Y-162090500D01*
X102352308Y-162082849D01*
X102421900Y-162089076D01*
X102477077Y-162131939D01*
X102500322Y-162197829D01*
X102500500Y-162204466D01*
X102500500Y-164391082D01*
X102500500Y-164538918D01*
X102500500Y-164538920D01*
X102500499Y-164538920D01*
X102529340Y-164683907D01*
X102529341Y-164683911D01*
X102529342Y-164683913D01*
X102529343Y-164683915D01*
X102585912Y-164820488D01*
X102585919Y-164820501D01*
X102668048Y-164943415D01*
X102668051Y-164943419D01*
X102772580Y-165047948D01*
X102772584Y-165047951D01*
X102895498Y-165130080D01*
X102895511Y-165130087D01*
X103032082Y-165186656D01*
X103032087Y-165186658D01*
X103032091Y-165186658D01*
X103032092Y-165186659D01*
X103177079Y-165215500D01*
X103177082Y-165215500D01*
X105551500Y-165215500D01*
X105618539Y-165235185D01*
X105664294Y-165287989D01*
X105675500Y-165339500D01*
X105675500Y-169494396D01*
X105666062Y-169541844D01*
X105656263Y-169565503D01*
X105656262Y-169565506D01*
X105656260Y-169565511D01*
X105625500Y-169720153D01*
X105625500Y-169877846D01*
X105656261Y-170032489D01*
X105656264Y-170032501D01*
X105716602Y-170178172D01*
X105716609Y-170178185D01*
X105804210Y-170309288D01*
X105804213Y-170309292D01*
X105915707Y-170420786D01*
X105915711Y-170420789D01*
X106046814Y-170508390D01*
X106046827Y-170508397D01*
X106192498Y-170568735D01*
X106192503Y-170568737D01*
X106347153Y-170599499D01*
X106347156Y-170599500D01*
X106347158Y-170599500D01*
X106504844Y-170599500D01*
X106504845Y-170599499D01*
X106659497Y-170568737D01*
X106805179Y-170508394D01*
X106936289Y-170420789D01*
X107047789Y-170309289D01*
X107135394Y-170178179D01*
X107195737Y-170032497D01*
X107226500Y-169877842D01*
X107226500Y-169720158D01*
X107226500Y-169720155D01*
X107226499Y-169720153D01*
X107195739Y-169565511D01*
X107195738Y-169565508D01*
X107195737Y-169565503D01*
X107185937Y-169541844D01*
X107176500Y-169494396D01*
X107176500Y-164391079D01*
X107147659Y-164246092D01*
X107147658Y-164246091D01*
X107147658Y-164246087D01*
X107132370Y-164209179D01*
X107091087Y-164109511D01*
X107091080Y-164109498D01*
X107008951Y-163986584D01*
X107008948Y-163986580D01*
X106904419Y-163882051D01*
X106904415Y-163882048D01*
X106781501Y-163799919D01*
X106781488Y-163799912D01*
X106644917Y-163743343D01*
X106644907Y-163743340D01*
X106499920Y-163714500D01*
X106499918Y-163714500D01*
X104125500Y-163714500D01*
X104058461Y-163694815D01*
X104012706Y-163642011D01*
X104001500Y-163590500D01*
X104001500Y-161721604D01*
X104010939Y-161674151D01*
X104012996Y-161669185D01*
X104020737Y-161650497D01*
X104051500Y-161495842D01*
X104051500Y-161338158D01*
X104051500Y-161338155D01*
X104051499Y-161338153D01*
X104026237Y-161211153D01*
X104020737Y-161183503D01*
X104015745Y-161171450D01*
X103960397Y-161037827D01*
X103960390Y-161037814D01*
X103872789Y-160906711D01*
X103872786Y-160906707D01*
X103761292Y-160795213D01*
X103761288Y-160795210D01*
X103630185Y-160707609D01*
X103630172Y-160707602D01*
X103484501Y-160647264D01*
X103484489Y-160647261D01*
X103329845Y-160616500D01*
X103329842Y-160616500D01*
X103172158Y-160616500D01*
X103172156Y-160616500D01*
X103133692Y-160624151D01*
X103064100Y-160617924D01*
X103008923Y-160575061D01*
X102985678Y-160509171D01*
X102985500Y-160502534D01*
X102985500Y-150361942D01*
X103005185Y-150294903D01*
X103057989Y-150249148D01*
X103127147Y-150239204D01*
X103190703Y-150268229D01*
X103212602Y-150293051D01*
X103264210Y-150370289D01*
X103375710Y-150481789D01*
X103506815Y-150569390D01*
X103506821Y-150569394D01*
X103566953Y-150594301D01*
X103621355Y-150638139D01*
X103643421Y-150704433D01*
X103643500Y-150708861D01*
X103643500Y-151714396D01*
X103634062Y-151761844D01*
X103627283Y-151778213D01*
X103624262Y-151785506D01*
X103624260Y-151785511D01*
X103593500Y-151940153D01*
X103593500Y-152097846D01*
X103624261Y-152252489D01*
X103624264Y-152252501D01*
X103684602Y-152398172D01*
X103684609Y-152398185D01*
X103772210Y-152529288D01*
X103772213Y-152529292D01*
X103883707Y-152640786D01*
X103883711Y-152640789D01*
X104014814Y-152728390D01*
X104014827Y-152728397D01*
X104160500Y-152788736D01*
X104165029Y-152790110D01*
X104223467Y-152828408D01*
X104251923Y-152892221D01*
X104241361Y-152961288D01*
X104232135Y-152977660D01*
X104192608Y-153036816D01*
X104192602Y-153036827D01*
X104132264Y-153182498D01*
X104132261Y-153182510D01*
X104101500Y-153337153D01*
X104101500Y-153476847D01*
X104081815Y-153543886D01*
X104029011Y-153589641D01*
X104024959Y-153591406D01*
X104014822Y-153595605D01*
X104014814Y-153595609D01*
X103883711Y-153683210D01*
X103883707Y-153683213D01*
X103772213Y-153794707D01*
X103772210Y-153794711D01*
X103684609Y-153925814D01*
X103684602Y-153925827D01*
X103624264Y-154071498D01*
X103624261Y-154071510D01*
X103593500Y-154226153D01*
X103593500Y-154383846D01*
X103624261Y-154538489D01*
X103624264Y-154538501D01*
X103684602Y-154684172D01*
X103684609Y-154684185D01*
X103772210Y-154815288D01*
X103772213Y-154815292D01*
X103883707Y-154926786D01*
X103883711Y-154926789D01*
X104014814Y-155014390D01*
X104014827Y-155014397D01*
X104114060Y-155055500D01*
X104160503Y-155074737D01*
X104270335Y-155096584D01*
X104315153Y-155105499D01*
X104315156Y-155105500D01*
X104315158Y-155105500D01*
X104472844Y-155105500D01*
X104472845Y-155105499D01*
X104549152Y-155090320D01*
X104627488Y-155074739D01*
X104627489Y-155074738D01*
X104627497Y-155074737D01*
X104651155Y-155064937D01*
X104698604Y-155055500D01*
X108785920Y-155055500D01*
X108883462Y-155036096D01*
X108930913Y-155026658D01*
X109067495Y-154970084D01*
X109132291Y-154926789D01*
X109132294Y-154926786D01*
X109132296Y-154926786D01*
X109172899Y-154899656D01*
X109190416Y-154887952D01*
X109421951Y-154656416D01*
X109447930Y-154617535D01*
X109504084Y-154533495D01*
X109560658Y-154396913D01*
X109580831Y-154295501D01*
X109589500Y-154251920D01*
X109589500Y-145468081D01*
X109583763Y-145439242D01*
X109583763Y-145439240D01*
X109571624Y-145378213D01*
X109560659Y-145323088D01*
X109522209Y-145230263D01*
X109504084Y-145186505D01*
X109451270Y-145107463D01*
X109451268Y-145107460D01*
X109421954Y-145063586D01*
X108555417Y-144197049D01*
X108474093Y-144142711D01*
X108474092Y-144142710D01*
X108432500Y-144114919D01*
X108432488Y-144114912D01*
X108295917Y-144058343D01*
X108295907Y-144058340D01*
X108150920Y-144029500D01*
X108150918Y-144029500D01*
X107238604Y-144029500D01*
X107191155Y-144020062D01*
X107167497Y-144010263D01*
X107167493Y-144010262D01*
X107167488Y-144010260D01*
X107012845Y-143979500D01*
X107012842Y-143979500D01*
X106855158Y-143979500D01*
X106855155Y-143979500D01*
X106700510Y-144010261D01*
X106700498Y-144010264D01*
X106554827Y-144070602D01*
X106554814Y-144070609D01*
X106423711Y-144158210D01*
X106423707Y-144158213D01*
X106312213Y-144269707D01*
X106312210Y-144269711D01*
X106224609Y-144400814D01*
X106224602Y-144400827D01*
X106164264Y-144546498D01*
X106164261Y-144546510D01*
X106133500Y-144701153D01*
X106133500Y-144858846D01*
X106164261Y-145013489D01*
X106164264Y-145013501D01*
X106224602Y-145159172D01*
X106224609Y-145159185D01*
X106312210Y-145290288D01*
X106312213Y-145290292D01*
X106423707Y-145401786D01*
X106423711Y-145401789D01*
X106554814Y-145489390D01*
X106554827Y-145489397D01*
X106700498Y-145549735D01*
X106700503Y-145549737D01*
X106855153Y-145580499D01*
X106855156Y-145580500D01*
X106855158Y-145580500D01*
X107012844Y-145580500D01*
X107012845Y-145580499D01*
X107136906Y-145555822D01*
X107167488Y-145549739D01*
X107167489Y-145549738D01*
X107167497Y-145549737D01*
X107191155Y-145539937D01*
X107238604Y-145530500D01*
X107714770Y-145530500D01*
X107781809Y-145550185D01*
X107802451Y-145566819D01*
X108052181Y-145816549D01*
X108085666Y-145877872D01*
X108088500Y-145904230D01*
X108088500Y-153430500D01*
X108068815Y-153497539D01*
X108016011Y-153543294D01*
X107964500Y-153554500D01*
X105947451Y-153554500D01*
X105880412Y-153534815D01*
X105834657Y-153482011D01*
X105824713Y-153412853D01*
X105853738Y-153349297D01*
X105859770Y-153342819D01*
X105946542Y-153256047D01*
X106062729Y-153139860D01*
X106062733Y-153139858D01*
X106149858Y-153052733D01*
X106204641Y-152970744D01*
X106218312Y-152950285D01*
X106258247Y-152853873D01*
X106265463Y-152836452D01*
X106289500Y-152715606D01*
X106289500Y-146496394D01*
X106287523Y-146486457D01*
X106287523Y-146486452D01*
X106287522Y-146486453D01*
X106287522Y-146486452D01*
X106265463Y-146375549D01*
X106261344Y-146365606D01*
X106218311Y-146261714D01*
X106218309Y-146261712D01*
X106218309Y-146261710D01*
X106149858Y-146159267D01*
X106149855Y-146159263D01*
X106059637Y-146069045D01*
X106059606Y-146069016D01*
X105900198Y-145909608D01*
X105900178Y-145909586D01*
X105808733Y-145818141D01*
X105753278Y-145781088D01*
X105753277Y-145781087D01*
X105706290Y-145749690D01*
X105706286Y-145749688D01*
X105689770Y-145742847D01*
X105625792Y-145716347D01*
X105592452Y-145702537D01*
X105592448Y-145702536D01*
X105592444Y-145702535D01*
X105526113Y-145689341D01*
X105526112Y-145689341D01*
X105471611Y-145678500D01*
X105471607Y-145678500D01*
X105471606Y-145678500D01*
X104174350Y-145678500D01*
X104107311Y-145658815D01*
X104105458Y-145657601D01*
X104057429Y-145625508D01*
X104012624Y-145571895D01*
X104003918Y-145502570D01*
X104034074Y-145439543D01*
X104038622Y-145434744D01*
X107503295Y-141970070D01*
X107543519Y-141943193D01*
X107567179Y-141933394D01*
X107698289Y-141845789D01*
X107809789Y-141734289D01*
X107897394Y-141603179D01*
X107957737Y-141457497D01*
X107988500Y-141302842D01*
X107988500Y-141145158D01*
X107988500Y-141145155D01*
X107988499Y-141145153D01*
X107957738Y-140990510D01*
X107957737Y-140990503D01*
X107923855Y-140908704D01*
X107897397Y-140844827D01*
X107897390Y-140844814D01*
X107809789Y-140713711D01*
X107809786Y-140713707D01*
X107698292Y-140602213D01*
X107698288Y-140602210D01*
X107567185Y-140514609D01*
X107567172Y-140514602D01*
X107421501Y-140454264D01*
X107421489Y-140454261D01*
X107266845Y-140423500D01*
X107266842Y-140423500D01*
X107109158Y-140423500D01*
X107109155Y-140423500D01*
X106954510Y-140454261D01*
X106954498Y-140454264D01*
X106808827Y-140514602D01*
X106808814Y-140514609D01*
X106677711Y-140602210D01*
X106677707Y-140602213D01*
X106566213Y-140713707D01*
X106566207Y-140713715D01*
X106478607Y-140844818D01*
X106478605Y-140844822D01*
X106468805Y-140868480D01*
X106441927Y-140908704D01*
X102562951Y-144787680D01*
X102501628Y-144821165D01*
X102431936Y-144816181D01*
X102376003Y-144774309D01*
X102353652Y-144724189D01*
X102352500Y-144718397D01*
X102352500Y-144718394D01*
X102328463Y-144597548D01*
X102307319Y-144546503D01*
X102306474Y-144544464D01*
X102299002Y-144474999D01*
X102330272Y-144412518D01*
X102352145Y-144393903D01*
X102364290Y-144385788D01*
X102475786Y-144274292D01*
X102475789Y-144274289D01*
X102563394Y-144143179D01*
X102623737Y-143997497D01*
X102654500Y-143842842D01*
X102654500Y-143685158D01*
X102654500Y-143685155D01*
X102654499Y-143685153D01*
X102623739Y-143530511D01*
X102623738Y-143530508D01*
X102623737Y-143530503D01*
X102613937Y-143506844D01*
X102604500Y-143459396D01*
X102604500Y-141078229D01*
X102624185Y-141011190D01*
X102640813Y-140990553D01*
X102804299Y-140827067D01*
X102844522Y-140800192D01*
X102868179Y-140790394D01*
X102999289Y-140702789D01*
X103110789Y-140591289D01*
X103198394Y-140460179D01*
X103200845Y-140454263D01*
X103234367Y-140373331D01*
X103258737Y-140314497D01*
X103289500Y-140159842D01*
X103289500Y-140002158D01*
X103289500Y-140002155D01*
X103289499Y-140002153D01*
X103258738Y-139847510D01*
X103258737Y-139847503D01*
X103208194Y-139725480D01*
X103198397Y-139701827D01*
X103198390Y-139701814D01*
X103110789Y-139570711D01*
X103110786Y-139570707D01*
X102999292Y-139459213D01*
X102999288Y-139459210D01*
X102868185Y-139371609D01*
X102868172Y-139371602D01*
X102722501Y-139311264D01*
X102722489Y-139311261D01*
X102567845Y-139280500D01*
X102567842Y-139280500D01*
X102410158Y-139280500D01*
X102410155Y-139280500D01*
X102255510Y-139311261D01*
X102255498Y-139311264D01*
X102109827Y-139371602D01*
X102109814Y-139371609D01*
X101978711Y-139459210D01*
X101978707Y-139459213D01*
X101867213Y-139570707D01*
X101867207Y-139570715D01*
X101779607Y-139701818D01*
X101779606Y-139701819D01*
X101769805Y-139725480D01*
X101742927Y-139765703D01*
X101271047Y-140237584D01*
X101259946Y-140254199D01*
X101248892Y-140270744D01*
X101221921Y-140311109D01*
X101188914Y-140360507D01*
X101132343Y-140497082D01*
X101132340Y-140497092D01*
X101103500Y-140642079D01*
X101103500Y-142077500D01*
X101083815Y-142144539D01*
X101031011Y-142190294D01*
X100979500Y-142201500D01*
X100886155Y-142201500D01*
X100731510Y-142232261D01*
X100731498Y-142232264D01*
X100585827Y-142292602D01*
X100585814Y-142292609D01*
X100454711Y-142380210D01*
X100454707Y-142380213D01*
X100343213Y-142491707D01*
X100343210Y-142491711D01*
X100255609Y-142622814D01*
X100255602Y-142622827D01*
X100195264Y-142768498D01*
X100195261Y-142768510D01*
X100164500Y-142923153D01*
X100164500Y-143080846D01*
X100195261Y-143235489D01*
X100195264Y-143235501D01*
X100255602Y-143381172D01*
X100255609Y-143381184D01*
X100318602Y-143475459D01*
X100339480Y-143542136D01*
X100339500Y-143544350D01*
X100339500Y-143778500D01*
X100319815Y-143845539D01*
X100267011Y-143891294D01*
X100215500Y-143902500D01*
X97116230Y-143902500D01*
X97049191Y-143882815D01*
X97028548Y-143866180D01*
X96978421Y-143816052D01*
X96978414Y-143816046D01*
X96904729Y-143766812D01*
X96904729Y-143766813D01*
X96855491Y-143733913D01*
X96718917Y-143677343D01*
X96718907Y-143677340D01*
X96573920Y-143648500D01*
X96573918Y-143648500D01*
X96426082Y-143648500D01*
X96426080Y-143648500D01*
X96281092Y-143677340D01*
X96281086Y-143677342D01*
X96144508Y-143733914D01*
X96144496Y-143733921D01*
X96095269Y-143766813D01*
X96021588Y-143816044D01*
X96021580Y-143816050D01*
X95917052Y-143920578D01*
X95917046Y-143920585D01*
X95875401Y-143982912D01*
X95875402Y-143982913D01*
X95834913Y-144043508D01*
X95778343Y-144180082D01*
X95778340Y-144180092D01*
X95749500Y-144325079D01*
X95749500Y-145695396D01*
X95740062Y-145742844D01*
X95730265Y-145766498D01*
X95730262Y-145766506D01*
X95730260Y-145766511D01*
X95699500Y-145921153D01*
X95699500Y-146013770D01*
X95679815Y-146080809D01*
X95627011Y-146126564D01*
X95557853Y-146136508D01*
X95494297Y-146107483D01*
X95487819Y-146101451D01*
X95071071Y-145684703D01*
X95044191Y-145644475D01*
X95034394Y-145620821D01*
X95027498Y-145610500D01*
X94946789Y-145489710D01*
X94835292Y-145378213D01*
X94835288Y-145378210D01*
X94704185Y-145290609D01*
X94704172Y-145290602D01*
X94558501Y-145230264D01*
X94558489Y-145230261D01*
X94403845Y-145199500D01*
X94403842Y-145199500D01*
X94246158Y-145199500D01*
X94246155Y-145199500D01*
X94091510Y-145230261D01*
X94091498Y-145230264D01*
X93945827Y-145290602D01*
X93945814Y-145290609D01*
X93814711Y-145378210D01*
X93814707Y-145378213D01*
X93703213Y-145489707D01*
X93703210Y-145489711D01*
X93615609Y-145620814D01*
X93615602Y-145620827D01*
X93555264Y-145766498D01*
X93555261Y-145766510D01*
X93524500Y-145921153D01*
X93524500Y-146078846D01*
X93555261Y-146233489D01*
X93555264Y-146233501D01*
X93615602Y-146379172D01*
X93615609Y-146379185D01*
X93703210Y-146510288D01*
X93703213Y-146510292D01*
X93814710Y-146621789D01*
X93926531Y-146696505D01*
X93945821Y-146709394D01*
X93969475Y-146719191D01*
X94009703Y-146746071D01*
X94590181Y-147326548D01*
X94623666Y-147387871D01*
X94626500Y-147414229D01*
X94626500Y-148985500D01*
X94606815Y-149052539D01*
X94554011Y-149098294D01*
X94502500Y-149109500D01*
X90544943Y-149109500D01*
X90477904Y-149089815D01*
X90432149Y-149037011D01*
X90422205Y-148967853D01*
X90451230Y-148904297D01*
X90476052Y-148882398D01*
X90518803Y-148853831D01*
X90553289Y-148830789D01*
X90664789Y-148719289D01*
X90752394Y-148588179D01*
X90812737Y-148442497D01*
X90843500Y-148287842D01*
X90843500Y-148130158D01*
X90843500Y-148130155D01*
X90843499Y-148130153D01*
X90822892Y-148026556D01*
X90812737Y-147975503D01*
X90757111Y-147841208D01*
X90752397Y-147829827D01*
X90752390Y-147829814D01*
X90664789Y-147698711D01*
X90664786Y-147698707D01*
X90553292Y-147587213D01*
X90553288Y-147587210D01*
X90422185Y-147499609D01*
X90422172Y-147499602D01*
X90276501Y-147439264D01*
X90276489Y-147439261D01*
X90121845Y-147408500D01*
X90121842Y-147408500D01*
X89964158Y-147408500D01*
X89964155Y-147408500D01*
X89809511Y-147439260D01*
X89809506Y-147439262D01*
X89809504Y-147439262D01*
X89809503Y-147439263D01*
X89785844Y-147449062D01*
X89738396Y-147458500D01*
X84889076Y-147458500D01*
X84860242Y-147464234D01*
X84860243Y-147464235D01*
X84744093Y-147487339D01*
X84744089Y-147487340D01*
X84686353Y-147511256D01*
X84607503Y-147543916D01*
X84558269Y-147576813D01*
X84484588Y-147626044D01*
X84484580Y-147626050D01*
X81586047Y-150524584D01*
X81574286Y-150542187D01*
X81562575Y-150559715D01*
X81556108Y-150569394D01*
X81503914Y-150647507D01*
X81447343Y-150784082D01*
X81447340Y-150784092D01*
X81418500Y-150929079D01*
X81418500Y-152857396D01*
X81409062Y-152904844D01*
X81406999Y-152909827D01*
X81399262Y-152928506D01*
X81399260Y-152928511D01*
X81368500Y-153083153D01*
X81368500Y-153240846D01*
X81399261Y-153395489D01*
X81399264Y-153395501D01*
X81459602Y-153541172D01*
X81459609Y-153541185D01*
X81547210Y-153672288D01*
X81547213Y-153672292D01*
X81658707Y-153783786D01*
X81658711Y-153783789D01*
X81789814Y-153871390D01*
X81789827Y-153871397D01*
X81921220Y-153925821D01*
X81935503Y-153931737D01*
X82090153Y-153962499D01*
X82090156Y-153962500D01*
X82090158Y-153962500D01*
X82247844Y-153962500D01*
X82247845Y-153962499D01*
X82402497Y-153931737D01*
X82548179Y-153871394D01*
X82679289Y-153783789D01*
X82790789Y-153672289D01*
X82878394Y-153541179D01*
X82878578Y-153540736D01*
X82908456Y-153468602D01*
X82938737Y-153395497D01*
X82969500Y-153240842D01*
X82969500Y-153083158D01*
X82969500Y-153083155D01*
X82969499Y-153083153D01*
X82938739Y-152928511D01*
X82938738Y-152928508D01*
X82938737Y-152928503D01*
X82928937Y-152904844D01*
X82919500Y-152857396D01*
X82919500Y-151365230D01*
X82939185Y-151298191D01*
X82955819Y-151277549D01*
X85237549Y-148995819D01*
X85298872Y-148962334D01*
X85325230Y-148959500D01*
X89287057Y-148959500D01*
X89354096Y-148979185D01*
X89399851Y-149031989D01*
X89409795Y-149101147D01*
X89380770Y-149164703D01*
X89355948Y-149186602D01*
X89278711Y-149238210D01*
X89278707Y-149238213D01*
X89167213Y-149349707D01*
X89167210Y-149349711D01*
X89079609Y-149480814D01*
X89079602Y-149480827D01*
X89019264Y-149626498D01*
X89019261Y-149626508D01*
X88990382Y-149771692D01*
X88957997Y-149833603D01*
X88897281Y-149868177D01*
X88868765Y-149871500D01*
X87934604Y-149871500D01*
X87887155Y-149862062D01*
X87863497Y-149852263D01*
X87863493Y-149852262D01*
X87863488Y-149852260D01*
X87708845Y-149821500D01*
X87708842Y-149821500D01*
X87551158Y-149821500D01*
X87551155Y-149821500D01*
X87396510Y-149852261D01*
X87396498Y-149852264D01*
X87250827Y-149912602D01*
X87250814Y-149912609D01*
X87119711Y-150000210D01*
X87119707Y-150000213D01*
X87008213Y-150111707D01*
X87008210Y-150111711D01*
X86920609Y-150242814D01*
X86920602Y-150242827D01*
X86860264Y-150388498D01*
X86860261Y-150388510D01*
X86829500Y-150543153D01*
X86829500Y-150700846D01*
X86860261Y-150855489D01*
X86860264Y-150855501D01*
X86920602Y-151001172D01*
X86920609Y-151001185D01*
X87008210Y-151132288D01*
X87008213Y-151132292D01*
X87119707Y-151243786D01*
X87119711Y-151243789D01*
X87250814Y-151331390D01*
X87250827Y-151331397D01*
X87396498Y-151391735D01*
X87396503Y-151391737D01*
X87422546Y-151396917D01*
X87457562Y-151403883D01*
X87519473Y-151436268D01*
X87554047Y-151496984D01*
X87550308Y-151566753D01*
X87509441Y-151623425D01*
X87444423Y-151649006D01*
X87433371Y-151649500D01*
X85651080Y-151649500D01*
X85506092Y-151678340D01*
X85506082Y-151678343D01*
X85369511Y-151734912D01*
X85369498Y-151734919D01*
X85246584Y-151817048D01*
X85246580Y-151817051D01*
X67502703Y-169560927D01*
X67462480Y-169587805D01*
X67438819Y-169597606D01*
X67438818Y-169597607D01*
X67307715Y-169685207D01*
X67307707Y-169685213D01*
X67196213Y-169796707D01*
X67196210Y-169796711D01*
X67108609Y-169927814D01*
X67108602Y-169927827D01*
X67048264Y-170073498D01*
X67048261Y-170073510D01*
X67017500Y-170228153D01*
X47500500Y-170228153D01*
X47500500Y-142415153D01*
X58254500Y-142415153D01*
X58254500Y-142572846D01*
X58285261Y-142727489D01*
X58285264Y-142727501D01*
X58345602Y-142873172D01*
X58345609Y-142873185D01*
X58433210Y-143004288D01*
X58433213Y-143004292D01*
X58544707Y-143115786D01*
X58544711Y-143115789D01*
X58675814Y-143203390D01*
X58675827Y-143203397D01*
X58821498Y-143263735D01*
X58821503Y-143263737D01*
X58976153Y-143294499D01*
X58976156Y-143294500D01*
X58976158Y-143294500D01*
X59133844Y-143294500D01*
X59133845Y-143294499D01*
X59288497Y-143263737D01*
X59404576Y-143215656D01*
X59434172Y-143203397D01*
X59434172Y-143203396D01*
X59434179Y-143203394D01*
X59565289Y-143115789D01*
X59676789Y-143004289D01*
X59764394Y-142873179D01*
X59774191Y-142849524D01*
X59801069Y-142809297D01*
X59941213Y-142669153D01*
X60667500Y-142669153D01*
X60667500Y-142826846D01*
X60698261Y-142981489D01*
X60698264Y-142981501D01*
X60758602Y-143127172D01*
X60758609Y-143127185D01*
X60846210Y-143258288D01*
X60846213Y-143258292D01*
X60957707Y-143369786D01*
X60957711Y-143369789D01*
X61088814Y-143457390D01*
X61088827Y-143457397D01*
X61153199Y-143484060D01*
X61234503Y-143517737D01*
X61283577Y-143527498D01*
X61345486Y-143559882D01*
X61347066Y-143561434D01*
X67495029Y-149709397D01*
X73635181Y-155849548D01*
X73668666Y-155910871D01*
X73671500Y-155937229D01*
X73671500Y-159461396D01*
X73662062Y-159508844D01*
X73652263Y-159532503D01*
X73652262Y-159532506D01*
X73652260Y-159532511D01*
X73621500Y-159687153D01*
X73621500Y-159844846D01*
X73652261Y-159999489D01*
X73652264Y-159999501D01*
X73712602Y-160145172D01*
X73712609Y-160145185D01*
X73800210Y-160276288D01*
X73800213Y-160276292D01*
X73911707Y-160387786D01*
X73911711Y-160387789D01*
X74042814Y-160475390D01*
X74042827Y-160475397D01*
X74188498Y-160535735D01*
X74188503Y-160535737D01*
X74343153Y-160566499D01*
X74343156Y-160566500D01*
X74343158Y-160566500D01*
X74500844Y-160566500D01*
X74500845Y-160566499D01*
X74655497Y-160535737D01*
X74801179Y-160475394D01*
X74932289Y-160387789D01*
X75043789Y-160276289D01*
X75131394Y-160145179D01*
X75191737Y-159999497D01*
X75222500Y-159844842D01*
X75222500Y-159687158D01*
X75222500Y-159687155D01*
X75222499Y-159687153D01*
X75191739Y-159532511D01*
X75191738Y-159532508D01*
X75191737Y-159532503D01*
X75181937Y-159508844D01*
X75172500Y-159461396D01*
X75172500Y-156385153D01*
X76796500Y-156385153D01*
X76796500Y-156542846D01*
X76827261Y-156697489D01*
X76827264Y-156697501D01*
X76887602Y-156843172D01*
X76887609Y-156843185D01*
X76975210Y-156974288D01*
X76975213Y-156974292D01*
X77086707Y-157085786D01*
X77086711Y-157085789D01*
X77217814Y-157173390D01*
X77217827Y-157173397D01*
X77317060Y-157214500D01*
X77363503Y-157233737D01*
X77491398Y-157259177D01*
X77518153Y-157264499D01*
X77518156Y-157264500D01*
X77518158Y-157264500D01*
X77675844Y-157264500D01*
X77675845Y-157264499D01*
X77830497Y-157233737D01*
X77976179Y-157173394D01*
X78107289Y-157085789D01*
X78218789Y-156974289D01*
X78306394Y-156843179D01*
X78366737Y-156697497D01*
X78388858Y-156586282D01*
X78421240Y-156524375D01*
X78422735Y-156522853D01*
X80281729Y-154663860D01*
X80281733Y-154663858D01*
X80368858Y-154576733D01*
X80437311Y-154474286D01*
X80484463Y-154360452D01*
X80490893Y-154328123D01*
X80497382Y-154295504D01*
X80497382Y-154295501D01*
X80508500Y-154239607D01*
X80508500Y-154212350D01*
X80528185Y-154145311D01*
X80529398Y-154143459D01*
X80565453Y-154089499D01*
X80592394Y-154049179D01*
X80652737Y-153903497D01*
X80683500Y-153748842D01*
X80683500Y-153591158D01*
X80683500Y-153591155D01*
X80683499Y-153591153D01*
X80683198Y-153589641D01*
X80652737Y-153436503D01*
X80652735Y-153436498D01*
X80592397Y-153290827D01*
X80592390Y-153290814D01*
X80504789Y-153159711D01*
X80504786Y-153159707D01*
X80393292Y-153048213D01*
X80393288Y-153048210D01*
X80262185Y-152960609D01*
X80262172Y-152960602D01*
X80116501Y-152900264D01*
X80116489Y-152900261D01*
X79961845Y-152869500D01*
X79961842Y-152869500D01*
X79804158Y-152869500D01*
X79804155Y-152869500D01*
X79649510Y-152900261D01*
X79649498Y-152900264D01*
X79503827Y-152960602D01*
X79503814Y-152960609D01*
X79372711Y-153048210D01*
X79372707Y-153048213D01*
X79261213Y-153159707D01*
X79261210Y-153159711D01*
X79173609Y-153290814D01*
X79173602Y-153290827D01*
X79113264Y-153436498D01*
X79113261Y-153436510D01*
X79082500Y-153591153D01*
X79082500Y-153748843D01*
X79113261Y-153903489D01*
X79113264Y-153903501D01*
X79128316Y-153939839D01*
X79135785Y-154009308D01*
X79104510Y-154071787D01*
X79101436Y-154074972D01*
X77538203Y-155638205D01*
X77476880Y-155671690D01*
X77474714Y-155672141D01*
X77363508Y-155694261D01*
X77363498Y-155694264D01*
X77217827Y-155754602D01*
X77217814Y-155754609D01*
X77086711Y-155842210D01*
X77086707Y-155842213D01*
X76975213Y-155953707D01*
X76975210Y-155953711D01*
X76887609Y-156084814D01*
X76887602Y-156084827D01*
X76827264Y-156230498D01*
X76827261Y-156230510D01*
X76796500Y-156385153D01*
X75172500Y-156385153D01*
X75172500Y-155501079D01*
X75143659Y-155356092D01*
X75143658Y-155356091D01*
X75143658Y-155356087D01*
X75109177Y-155272842D01*
X75087087Y-155219511D01*
X75087080Y-155219498D01*
X75004952Y-155096585D01*
X74963867Y-155055500D01*
X74900416Y-154992049D01*
X73118520Y-153210153D01*
X74002500Y-153210153D01*
X74002500Y-153367846D01*
X74033261Y-153522489D01*
X74033264Y-153522501D01*
X74093602Y-153668172D01*
X74093609Y-153668185D01*
X74181210Y-153799288D01*
X74181213Y-153799292D01*
X74292707Y-153910786D01*
X74292711Y-153910789D01*
X74423814Y-153998390D01*
X74423827Y-153998397D01*
X74546440Y-154049184D01*
X74569503Y-154058737D01*
X74724153Y-154089499D01*
X74724156Y-154089500D01*
X74724158Y-154089500D01*
X74881844Y-154089500D01*
X74881845Y-154089499D01*
X75036497Y-154058737D01*
X75155830Y-154009308D01*
X75182172Y-153998397D01*
X75182172Y-153998396D01*
X75182179Y-153998394D01*
X75313289Y-153910789D01*
X75424789Y-153799289D01*
X75512394Y-153668179D01*
X75522191Y-153644524D01*
X75549070Y-153604296D01*
X77531295Y-151622070D01*
X77571519Y-151595193D01*
X77595179Y-151585394D01*
X77726289Y-151497789D01*
X77837789Y-151386289D01*
X77925394Y-151255179D01*
X77985737Y-151109497D01*
X78016500Y-150954842D01*
X78016500Y-150797158D01*
X78016500Y-150797155D01*
X78016499Y-150797153D01*
X78013899Y-150784082D01*
X77985737Y-150642503D01*
X77972481Y-150610500D01*
X77925397Y-150496827D01*
X77925390Y-150496814D01*
X77837789Y-150365711D01*
X77837786Y-150365707D01*
X77726292Y-150254213D01*
X77726288Y-150254210D01*
X77595185Y-150166609D01*
X77595172Y-150166602D01*
X77449501Y-150106264D01*
X77449489Y-150106261D01*
X77294845Y-150075500D01*
X77294842Y-150075500D01*
X77137158Y-150075500D01*
X77137155Y-150075500D01*
X76982510Y-150106261D01*
X76982498Y-150106264D01*
X76836827Y-150166602D01*
X76836814Y-150166609D01*
X76705711Y-150254210D01*
X76705707Y-150254213D01*
X76594213Y-150365707D01*
X76594207Y-150365715D01*
X76506607Y-150496818D01*
X76506605Y-150496822D01*
X76496805Y-150520480D01*
X76469927Y-150560704D01*
X74487703Y-152542927D01*
X74447480Y-152569805D01*
X74423819Y-152579606D01*
X74423818Y-152579607D01*
X74292715Y-152667207D01*
X74292707Y-152667213D01*
X74181213Y-152778707D01*
X74181210Y-152778711D01*
X74093609Y-152909814D01*
X74093602Y-152909827D01*
X74033264Y-153055498D01*
X74033261Y-153055510D01*
X74002500Y-153210153D01*
X73118520Y-153210153D01*
X62073416Y-142165048D01*
X62073415Y-142165047D01*
X62073413Y-142165045D01*
X62028312Y-142134911D01*
X61998244Y-142114821D01*
X61998245Y-142114821D01*
X61998243Y-142114819D01*
X61950497Y-142082917D01*
X61950496Y-142082916D01*
X61864425Y-142047264D01*
X61852789Y-142041048D01*
X61852558Y-142041481D01*
X61847180Y-142038607D01*
X61847181Y-142038607D01*
X61847179Y-142038606D01*
X61701497Y-141978263D01*
X61701489Y-141978261D01*
X61546845Y-141947500D01*
X61546842Y-141947500D01*
X61389158Y-141947500D01*
X61389155Y-141947500D01*
X61234510Y-141978261D01*
X61234498Y-141978264D01*
X61088827Y-142038602D01*
X61088814Y-142038609D01*
X60957711Y-142126210D01*
X60957707Y-142126213D01*
X60846213Y-142237707D01*
X60846210Y-142237711D01*
X60758609Y-142368814D01*
X60758602Y-142368827D01*
X60698264Y-142514498D01*
X60698261Y-142514510D01*
X60667500Y-142669153D01*
X59941213Y-142669153D01*
X64463952Y-138146415D01*
X64496864Y-138097158D01*
X64546084Y-138023495D01*
X64550425Y-138013015D01*
X64569518Y-137966921D01*
X64569518Y-137966920D01*
X64581949Y-137936909D01*
X64602659Y-137886912D01*
X64631500Y-137741917D01*
X64631500Y-137594082D01*
X64631500Y-135940604D01*
X64640939Y-135893151D01*
X64650737Y-135869497D01*
X64681500Y-135714842D01*
X64681500Y-135557158D01*
X64681500Y-135557155D01*
X64681499Y-135557153D01*
X64670382Y-135501263D01*
X64650737Y-135402503D01*
X64643194Y-135384292D01*
X64590397Y-135256827D01*
X64590390Y-135256814D01*
X64502789Y-135125711D01*
X64502786Y-135125707D01*
X64391292Y-135014213D01*
X64391288Y-135014210D01*
X64260185Y-134926609D01*
X64260172Y-134926602D01*
X64114501Y-134866264D01*
X64114489Y-134866261D01*
X63959845Y-134835500D01*
X63959842Y-134835500D01*
X63802158Y-134835500D01*
X63802155Y-134835500D01*
X63647510Y-134866261D01*
X63647498Y-134866264D01*
X63501827Y-134926602D01*
X63501814Y-134926609D01*
X63370711Y-135014210D01*
X63370707Y-135014213D01*
X63259213Y-135125707D01*
X63259210Y-135125711D01*
X63171609Y-135256814D01*
X63171602Y-135256827D01*
X63111264Y-135402498D01*
X63111261Y-135402510D01*
X63080500Y-135557153D01*
X63080500Y-135714846D01*
X63111261Y-135869489D01*
X63111263Y-135869497D01*
X63120512Y-135891827D01*
X63121061Y-135893151D01*
X63130500Y-135940604D01*
X63130500Y-137305770D01*
X63110815Y-137372809D01*
X63094181Y-137393451D01*
X62548796Y-137938835D01*
X62487473Y-137972320D01*
X62417781Y-137967336D01*
X62361848Y-137925464D01*
X62346556Y-137898611D01*
X62304394Y-137796821D01*
X62304393Y-137796819D01*
X62304392Y-137796817D01*
X62301526Y-137791455D01*
X62301962Y-137791221D01*
X62295735Y-137779575D01*
X62262411Y-137699123D01*
X62260766Y-137694526D01*
X62227186Y-137644270D01*
X62227185Y-137644268D01*
X62177956Y-137570589D01*
X62177952Y-137570584D01*
X60295421Y-135688052D01*
X60295414Y-135688046D01*
X60221729Y-135638812D01*
X60221729Y-135638813D01*
X60172491Y-135605913D01*
X60035917Y-135549343D01*
X60035907Y-135549340D01*
X59890920Y-135520500D01*
X59890918Y-135520500D01*
X59613604Y-135520500D01*
X59566155Y-135511062D01*
X59542497Y-135501263D01*
X59542493Y-135501262D01*
X59542488Y-135501260D01*
X59387845Y-135470500D01*
X59387842Y-135470500D01*
X59230158Y-135470500D01*
X59230155Y-135470500D01*
X59075510Y-135501261D01*
X59075498Y-135501264D01*
X58929827Y-135561602D01*
X58929814Y-135561609D01*
X58798711Y-135649210D01*
X58798707Y-135649213D01*
X58687213Y-135760707D01*
X58687210Y-135760711D01*
X58599609Y-135891814D01*
X58599602Y-135891827D01*
X58539264Y-136037498D01*
X58539261Y-136037510D01*
X58508500Y-136192153D01*
X58508500Y-136349846D01*
X58539261Y-136504489D01*
X58539264Y-136504501D01*
X58599602Y-136650172D01*
X58599609Y-136650185D01*
X58687210Y-136781288D01*
X58687213Y-136781292D01*
X58798707Y-136892786D01*
X58798711Y-136892789D01*
X58929814Y-136980390D01*
X58929827Y-136980397D01*
X59075498Y-137040735D01*
X59075503Y-137040737D01*
X59230153Y-137071499D01*
X59230156Y-137071500D01*
X59230158Y-137071500D01*
X59387843Y-137071500D01*
X59431900Y-137062736D01*
X59463203Y-137056509D01*
X59532795Y-137062736D01*
X59575077Y-137090445D01*
X60781565Y-138296933D01*
X60815050Y-138358256D01*
X60815501Y-138360423D01*
X60825261Y-138409489D01*
X60825264Y-138409501D01*
X60885602Y-138555172D01*
X60885609Y-138555185D01*
X60973210Y-138686288D01*
X60973213Y-138686292D01*
X61084707Y-138797786D01*
X61084711Y-138797789D01*
X61215814Y-138885390D01*
X61215818Y-138885392D01*
X61215821Y-138885394D01*
X61317609Y-138927555D01*
X61372009Y-138971394D01*
X61394075Y-139037688D01*
X61376796Y-139105387D01*
X61357835Y-139129796D01*
X58739703Y-141747927D01*
X58699480Y-141774805D01*
X58675819Y-141784606D01*
X58675818Y-141784607D01*
X58544715Y-141872207D01*
X58544707Y-141872213D01*
X58433213Y-141983707D01*
X58433210Y-141983711D01*
X58345609Y-142114814D01*
X58345605Y-142114823D01*
X58285264Y-142260498D01*
X58285261Y-142260510D01*
X58254500Y-142415153D01*
X47500500Y-142415153D01*
X47500500Y-130580364D01*
X47520185Y-130513325D01*
X47572989Y-130467570D01*
X47642147Y-130457626D01*
X47662819Y-130462433D01*
X47772015Y-130497914D01*
X47943029Y-130525000D01*
X48179600Y-130525000D01*
X48179600Y-129824999D01*
X48679600Y-129824999D01*
X48679600Y-130525000D01*
X48916171Y-130525000D01*
X49087184Y-130497914D01*
X49251857Y-130444408D01*
X49406125Y-130365803D01*
X49443814Y-130338421D01*
X49509620Y-130314941D01*
X49577674Y-130330766D01*
X49626369Y-130380872D01*
X49640700Y-130438739D01*
X49640700Y-136819330D01*
X49640699Y-136819348D01*
X49640699Y-136985054D01*
X49640698Y-136985054D01*
X49681623Y-137137785D01*
X49710558Y-137187900D01*
X49710559Y-137187904D01*
X49710560Y-137187904D01*
X49760679Y-137274714D01*
X49760681Y-137274717D01*
X49879549Y-137393585D01*
X49879554Y-137393589D01*
X51599684Y-139113720D01*
X51599686Y-139113721D01*
X51599690Y-139113724D01*
X51705328Y-139174713D01*
X51736616Y-139192777D01*
X51889343Y-139233701D01*
X51889345Y-139233701D01*
X52055054Y-139233701D01*
X52055070Y-139233700D01*
X52760234Y-139233700D01*
X52827273Y-139253385D01*
X52829125Y-139254598D01*
X52960814Y-139342590D01*
X52960827Y-139342597D01*
X53068720Y-139387287D01*
X53106503Y-139402937D01*
X53261153Y-139433699D01*
X53261156Y-139433700D01*
X53261158Y-139433700D01*
X53418844Y-139433700D01*
X53418845Y-139433699D01*
X53573497Y-139402937D01*
X53719179Y-139342594D01*
X53850289Y-139254989D01*
X53961789Y-139143489D01*
X54049394Y-139012379D01*
X54109737Y-138866697D01*
X54140500Y-138712042D01*
X54140500Y-138554358D01*
X54140500Y-138554355D01*
X54140499Y-138554353D01*
X54111685Y-138409497D01*
X54109737Y-138399703D01*
X54102874Y-138383135D01*
X54049397Y-138254027D01*
X54049390Y-138254014D01*
X53961789Y-138122911D01*
X53961786Y-138122907D01*
X53850292Y-138011413D01*
X53850288Y-138011410D01*
X53719185Y-137923809D01*
X53719172Y-137923802D01*
X53573501Y-137863464D01*
X53573489Y-137863461D01*
X53418845Y-137832700D01*
X53418842Y-137832700D01*
X53261158Y-137832700D01*
X53261155Y-137832700D01*
X53106510Y-137863461D01*
X53106498Y-137863464D01*
X52960827Y-137923802D01*
X52960814Y-137923809D01*
X52829125Y-138011802D01*
X52762447Y-138032680D01*
X52760234Y-138032700D01*
X52268498Y-138032700D01*
X52201459Y-138013015D01*
X52180817Y-137996381D01*
X50878019Y-136693583D01*
X50844534Y-136632260D01*
X50841700Y-136605902D01*
X50841700Y-127071765D01*
X50861385Y-127004726D01*
X50862598Y-127002874D01*
X50878101Y-126979673D01*
X50950594Y-126871179D01*
X51010937Y-126725497D01*
X51041700Y-126570842D01*
X51041700Y-126413158D01*
X51041700Y-126413155D01*
X51036414Y-126386584D01*
X51010937Y-126258503D01*
X50971630Y-126163606D01*
X50950597Y-126112827D01*
X50950590Y-126112814D01*
X50862989Y-125981711D01*
X50862986Y-125981707D01*
X50751492Y-125870213D01*
X50751488Y-125870210D01*
X50620385Y-125782609D01*
X50620372Y-125782602D01*
X50474701Y-125722264D01*
X50474689Y-125722261D01*
X50320045Y-125691500D01*
X50320042Y-125691500D01*
X50162358Y-125691500D01*
X50162355Y-125691500D01*
X50007710Y-125722261D01*
X50007698Y-125722264D01*
X49862027Y-125782602D01*
X49862014Y-125782609D01*
X49730911Y-125870210D01*
X49730907Y-125870213D01*
X49630981Y-125970140D01*
X49569658Y-126003625D01*
X49499966Y-125998641D01*
X49444033Y-125956769D01*
X49419616Y-125891305D01*
X49419300Y-125882459D01*
X49419300Y-125572896D01*
X49438985Y-125505857D01*
X49455614Y-125485220D01*
X50803819Y-124137014D01*
X50865142Y-124103530D01*
X50934834Y-124108514D01*
X50990767Y-124150386D01*
X51015184Y-124215850D01*
X51015500Y-124224696D01*
X51015500Y-124335646D01*
X51046261Y-124490289D01*
X51046264Y-124490301D01*
X51106602Y-124635972D01*
X51106609Y-124635985D01*
X51194602Y-124767674D01*
X51215480Y-124834351D01*
X51215500Y-124836565D01*
X51215500Y-125948130D01*
X51215499Y-125948148D01*
X51215499Y-125955743D01*
X51215499Y-126113857D01*
X51256423Y-126266585D01*
X51267265Y-126285365D01*
X51267267Y-126285369D01*
X51277014Y-126302251D01*
X51277017Y-126302255D01*
X51277018Y-126302256D01*
X51335479Y-126403514D01*
X51335481Y-126403517D01*
X51438626Y-126506662D01*
X51472111Y-126567985D01*
X51472562Y-126570151D01*
X51503461Y-126725491D01*
X51503464Y-126725501D01*
X51563802Y-126871172D01*
X51563809Y-126871185D01*
X51651410Y-127002288D01*
X51651413Y-127002292D01*
X51762907Y-127113786D01*
X51762911Y-127113789D01*
X51894014Y-127201390D01*
X51894027Y-127201397D01*
X52016642Y-127252185D01*
X52039703Y-127261737D01*
X52089946Y-127271731D01*
X52195049Y-127292638D01*
X52256960Y-127325023D01*
X52258539Y-127326574D01*
X53045284Y-128113319D01*
X53078769Y-128174642D01*
X53073785Y-128244334D01*
X53031913Y-128300267D01*
X52966449Y-128324684D01*
X52957603Y-128325000D01*
X52859600Y-128325000D01*
X52859600Y-129025001D01*
X52359600Y-129025001D01*
X52359600Y-128325000D01*
X52223029Y-128325000D01*
X52052015Y-128352085D01*
X51887342Y-128405591D01*
X51733075Y-128484195D01*
X51592997Y-128585967D01*
X51470567Y-128708397D01*
X51368795Y-128848475D01*
X51290191Y-129002744D01*
X51236685Y-129167415D01*
X51235484Y-129174999D01*
X51235485Y-129175000D01*
X52093916Y-129175000D01*
X52089521Y-129179395D01*
X52036860Y-129270606D01*
X52009601Y-129372339D01*
X52009601Y-129477661D01*
X52036860Y-129579394D01*
X52089521Y-129670605D01*
X52093916Y-129675000D01*
X51235485Y-129675000D01*
X51236685Y-129682584D01*
X51290191Y-129847255D01*
X51368795Y-130001524D01*
X51470567Y-130141602D01*
X51592997Y-130264032D01*
X51733075Y-130365804D01*
X51887342Y-130444408D01*
X52052015Y-130497914D01*
X52223029Y-130525000D01*
X52359600Y-130525000D01*
X52359600Y-129824999D01*
X52859600Y-129824999D01*
X52859600Y-130525000D01*
X52996171Y-130525000D01*
X53167184Y-130497914D01*
X53331857Y-130444408D01*
X53486124Y-130365804D01*
X53626202Y-130264032D01*
X53748632Y-130141602D01*
X53850404Y-130001524D01*
X53929008Y-129847255D01*
X53982514Y-129682584D01*
X53983715Y-129675000D01*
X53125284Y-129675000D01*
X53129679Y-129670605D01*
X53182340Y-129579394D01*
X53209599Y-129477661D01*
X53209599Y-129372339D01*
X53182340Y-129270606D01*
X53129679Y-129179395D01*
X53125284Y-129175000D01*
X53983715Y-129175000D01*
X53983715Y-129174999D01*
X53982514Y-129167415D01*
X53971793Y-129134419D01*
X53969798Y-129064578D01*
X54005878Y-129004745D01*
X54068579Y-128973917D01*
X54089724Y-128972101D01*
X54190300Y-128972101D01*
X54257339Y-128991786D01*
X54303094Y-129044590D01*
X54314300Y-129096101D01*
X54314300Y-136378130D01*
X54314299Y-136378148D01*
X54314299Y-136543854D01*
X54314298Y-136543854D01*
X54314299Y-136543857D01*
X54355223Y-136696585D01*
X54381370Y-136741873D01*
X54434277Y-136833512D01*
X54434281Y-136833517D01*
X54665426Y-137064662D01*
X54698911Y-137125985D01*
X54699362Y-137128151D01*
X54730261Y-137283491D01*
X54730264Y-137283501D01*
X54790602Y-137429172D01*
X54790609Y-137429185D01*
X54878210Y-137560288D01*
X54878213Y-137560292D01*
X54989707Y-137671786D01*
X54989711Y-137671789D01*
X55120814Y-137759390D01*
X55120827Y-137759397D01*
X55211178Y-137796821D01*
X55266503Y-137819737D01*
X55421153Y-137850499D01*
X55421156Y-137850500D01*
X55421158Y-137850500D01*
X55578844Y-137850500D01*
X55578845Y-137850499D01*
X55733497Y-137819737D01*
X55879179Y-137759394D01*
X56010289Y-137671789D01*
X56121789Y-137560289D01*
X56209394Y-137429179D01*
X56269737Y-137283497D01*
X56300500Y-137128842D01*
X56300500Y-136971158D01*
X56300500Y-136971155D01*
X56300499Y-136971153D01*
X56273120Y-136833512D01*
X56269737Y-136816503D01*
X56255151Y-136781288D01*
X56209397Y-136670827D01*
X56209390Y-136670814D01*
X56121789Y-136539711D01*
X56121786Y-136539707D01*
X56010292Y-136428213D01*
X56010288Y-136428210D01*
X55879185Y-136340609D01*
X55879172Y-136340602D01*
X55733501Y-136280264D01*
X55733491Y-136280261D01*
X55615108Y-136256713D01*
X55553197Y-136224328D01*
X55518623Y-136163612D01*
X55515300Y-136135096D01*
X55515300Y-134668153D01*
X75526500Y-134668153D01*
X75526500Y-134825846D01*
X75557261Y-134980489D01*
X75557264Y-134980501D01*
X75617602Y-135126172D01*
X75617609Y-135126185D01*
X75705210Y-135257288D01*
X75705213Y-135257292D01*
X75816707Y-135368786D01*
X75816711Y-135368789D01*
X75947814Y-135456390D01*
X75947827Y-135456397D01*
X76079802Y-135511062D01*
X76093503Y-135516737D01*
X76248153Y-135547499D01*
X76248156Y-135547500D01*
X76248158Y-135547500D01*
X76405844Y-135547500D01*
X76405845Y-135547499D01*
X76560497Y-135516737D01*
X76706179Y-135456394D01*
X76800459Y-135393398D01*
X76867136Y-135372520D01*
X76869350Y-135372500D01*
X89215608Y-135372500D01*
X89215608Y-135372499D01*
X89279169Y-135359857D01*
X89336452Y-135348463D01*
X89369792Y-135334652D01*
X89450286Y-135301312D01*
X89502535Y-135266398D01*
X89569212Y-135245520D01*
X89571427Y-135245500D01*
X90278196Y-135245500D01*
X90345235Y-135265185D01*
X90381297Y-135300608D01*
X90404043Y-135334649D01*
X90437212Y-135384291D01*
X90548707Y-135495786D01*
X90548711Y-135495789D01*
X90679814Y-135583390D01*
X90679827Y-135583397D01*
X90813613Y-135638812D01*
X90825503Y-135643737D01*
X90980153Y-135674499D01*
X90980156Y-135674500D01*
X90980158Y-135674500D01*
X91137844Y-135674500D01*
X91137845Y-135674499D01*
X91292497Y-135643737D01*
X91438179Y-135583394D01*
X91569289Y-135495789D01*
X91680789Y-135384289D01*
X91768394Y-135253179D01*
X91771567Y-135245520D01*
X91820996Y-135126185D01*
X91828737Y-135107497D01*
X91859500Y-134952842D01*
X91859500Y-134795158D01*
X91859500Y-134795155D01*
X91859499Y-134795153D01*
X91828738Y-134640510D01*
X91828737Y-134640503D01*
X91828735Y-134640498D01*
X91768397Y-134494827D01*
X91768390Y-134494814D01*
X91680789Y-134363711D01*
X91680786Y-134363707D01*
X91569292Y-134252213D01*
X91569288Y-134252210D01*
X91438185Y-134164609D01*
X91438172Y-134164602D01*
X91292501Y-134104264D01*
X91292489Y-134104261D01*
X91137847Y-134073500D01*
X91132929Y-134073016D01*
X91097633Y-134064175D01*
X91020792Y-134032347D01*
X90987453Y-134018537D01*
X90977427Y-134016543D01*
X90927029Y-134006518D01*
X90866610Y-133994500D01*
X90866607Y-133994500D01*
X90866606Y-133994500D01*
X89342607Y-133994500D01*
X89219393Y-133994500D01*
X89219389Y-133994500D01*
X89158971Y-134006518D01*
X89121259Y-134014019D01*
X89098550Y-134018536D01*
X89098548Y-134018537D01*
X89065207Y-134032347D01*
X88984718Y-134065685D01*
X88984714Y-134065687D01*
X88950210Y-134088743D01*
X88938602Y-134096500D01*
X88932463Y-134100602D01*
X88865786Y-134121480D01*
X88863572Y-134121500D01*
X76869350Y-134121500D01*
X76802311Y-134101815D01*
X76800459Y-134100602D01*
X76706184Y-134037609D01*
X76706172Y-134037602D01*
X76560501Y-133977264D01*
X76560489Y-133977261D01*
X76405845Y-133946500D01*
X76405842Y-133946500D01*
X76248158Y-133946500D01*
X76248155Y-133946500D01*
X76093510Y-133977261D01*
X76093498Y-133977264D01*
X75947827Y-134037602D01*
X75947814Y-134037609D01*
X75816711Y-134125210D01*
X75816707Y-134125213D01*
X75705213Y-134236707D01*
X75705210Y-134236711D01*
X75617609Y-134367814D01*
X75617602Y-134367827D01*
X75557264Y-134513498D01*
X75557261Y-134513510D01*
X75526500Y-134668153D01*
X55515300Y-134668153D01*
X55515300Y-128394145D01*
X55515300Y-128394143D01*
X55496259Y-128323082D01*
X55474377Y-128241415D01*
X55432282Y-128168505D01*
X55395320Y-128104484D01*
X55283516Y-127992680D01*
X55181916Y-127891080D01*
X55095104Y-127840960D01*
X55095104Y-127840959D01*
X55095100Y-127840958D01*
X55044985Y-127812023D01*
X54892257Y-127771099D01*
X54734143Y-127771099D01*
X54726547Y-127771099D01*
X54726531Y-127771100D01*
X54452897Y-127771100D01*
X54385858Y-127751415D01*
X54365216Y-127734781D01*
X53107774Y-126477339D01*
X53074289Y-126416016D01*
X53073838Y-126413849D01*
X53048281Y-126285369D01*
X53042937Y-126258503D01*
X53003630Y-126163606D01*
X52982597Y-126112827D01*
X52982590Y-126112814D01*
X52894989Y-125981711D01*
X52894986Y-125981707D01*
X52783492Y-125870213D01*
X52783488Y-125870210D01*
X52652385Y-125782609D01*
X52652372Y-125782602D01*
X52506694Y-125722261D01*
X52504497Y-125721595D01*
X52503487Y-125720933D01*
X52501070Y-125719932D01*
X52501259Y-125719473D01*
X52446061Y-125683294D01*
X52417608Y-125619480D01*
X52416500Y-125602937D01*
X52416500Y-124836565D01*
X52436185Y-124769526D01*
X52437398Y-124767674D01*
X52525390Y-124635985D01*
X52525390Y-124635984D01*
X52525394Y-124635979D01*
X52585737Y-124490297D01*
X52616500Y-124335642D01*
X52616500Y-124177958D01*
X52616500Y-124177955D01*
X52616499Y-124177953D01*
X52612660Y-124158652D01*
X52585737Y-124023303D01*
X52555451Y-123950185D01*
X52525397Y-123877627D01*
X52525390Y-123877614D01*
X52437789Y-123746511D01*
X52437786Y-123746507D01*
X52326292Y-123635013D01*
X52326288Y-123635010D01*
X52195185Y-123547409D01*
X52195172Y-123547402D01*
X52049501Y-123487064D01*
X52049489Y-123487061D01*
X51894845Y-123456300D01*
X51894842Y-123456300D01*
X51737158Y-123456300D01*
X51698631Y-123463963D01*
X51629039Y-123457734D01*
X51573862Y-123414870D01*
X51550619Y-123348980D01*
X51559880Y-123294892D01*
X51569737Y-123271097D01*
X51600500Y-123116442D01*
X51600500Y-122958758D01*
X51600500Y-122958755D01*
X51600499Y-122958753D01*
X51595611Y-122934179D01*
X51569737Y-122804103D01*
X51568560Y-122801261D01*
X51509397Y-122658427D01*
X51509390Y-122658414D01*
X51421789Y-122527311D01*
X51421786Y-122527307D01*
X51310292Y-122415813D01*
X51310288Y-122415810D01*
X51179185Y-122328209D01*
X51179172Y-122328202D01*
X51033501Y-122267864D01*
X51033489Y-122267861D01*
X50878845Y-122237100D01*
X50878842Y-122237100D01*
X50721158Y-122237100D01*
X50721155Y-122237100D01*
X50566510Y-122267861D01*
X50566498Y-122267864D01*
X50420827Y-122328202D01*
X50420814Y-122328209D01*
X50289711Y-122415810D01*
X50289707Y-122415813D01*
X50178213Y-122527307D01*
X50178210Y-122527311D01*
X50090609Y-122658414D01*
X50090602Y-122658427D01*
X50030264Y-122804098D01*
X50030261Y-122804110D01*
X49999500Y-122958753D01*
X49999500Y-123116444D01*
X50007544Y-123156882D01*
X50001317Y-123226473D01*
X49973608Y-123268755D01*
X48450086Y-124792278D01*
X48338281Y-124904082D01*
X48338280Y-124904084D01*
X48302421Y-124966194D01*
X48259223Y-125041015D01*
X48218299Y-125193743D01*
X48218299Y-125193745D01*
X48218299Y-125361846D01*
X48218300Y-125361859D01*
X48218300Y-126521834D01*
X48198615Y-126588873D01*
X48197402Y-126590725D01*
X48109409Y-126722414D01*
X48109402Y-126722427D01*
X48049064Y-126868098D01*
X48049061Y-126868110D01*
X48018300Y-127022753D01*
X48018300Y-127180446D01*
X48049061Y-127335089D01*
X48049064Y-127335101D01*
X48109402Y-127480772D01*
X48109409Y-127480785D01*
X48175512Y-127579714D01*
X48196390Y-127646391D01*
X48186972Y-127696054D01*
X48159863Y-127761503D01*
X48159862Y-127761507D01*
X48159861Y-127761510D01*
X48159860Y-127761511D01*
X48129100Y-127916153D01*
X48129100Y-127916158D01*
X48129100Y-128073842D01*
X48129100Y-128073844D01*
X48129099Y-128073844D01*
X48149581Y-128176808D01*
X48143354Y-128246400D01*
X48100491Y-128301577D01*
X48034601Y-128324822D01*
X48027964Y-128325000D01*
X47943029Y-128325000D01*
X47772014Y-128352086D01*
X47772007Y-128352087D01*
X47662817Y-128387565D01*
X47592976Y-128389560D01*
X47533143Y-128353479D01*
X47502316Y-128290778D01*
X47500500Y-128269634D01*
X47500500Y-121920364D01*
X47520185Y-121853325D01*
X47572989Y-121807570D01*
X47642147Y-121797626D01*
X47662819Y-121802433D01*
X47772015Y-121837914D01*
X47943029Y-121865000D01*
X48027964Y-121865000D01*
X48095003Y-121884685D01*
X48140758Y-121937489D01*
X48150702Y-122006647D01*
X48149581Y-122013192D01*
X48129100Y-122116155D01*
X48129100Y-122273846D01*
X48159861Y-122428489D01*
X48159864Y-122428501D01*
X48220202Y-122574172D01*
X48220209Y-122574185D01*
X48307810Y-122705288D01*
X48307813Y-122705292D01*
X48419307Y-122816786D01*
X48419311Y-122816789D01*
X48550414Y-122904390D01*
X48550427Y-122904397D01*
X48681656Y-122958753D01*
X48696103Y-122964737D01*
X48850753Y-122995499D01*
X48850756Y-122995500D01*
X48850758Y-122995500D01*
X49008444Y-122995500D01*
X49008445Y-122995499D01*
X49163097Y-122964737D01*
X49308779Y-122904394D01*
X49439889Y-122816789D01*
X49551389Y-122705289D01*
X49638994Y-122574179D01*
X49699337Y-122428497D01*
X49730100Y-122273842D01*
X49730100Y-122116158D01*
X49730100Y-122116155D01*
X49730099Y-122116153D01*
X49715887Y-122044707D01*
X49699337Y-121961503D01*
X49694049Y-121948736D01*
X49638997Y-121815827D01*
X49638995Y-121815823D01*
X49638994Y-121815821D01*
X49573532Y-121717851D01*
X49552655Y-121651175D01*
X49571139Y-121583795D01*
X49588954Y-121561279D01*
X49668635Y-121481598D01*
X49770404Y-121341524D01*
X49849008Y-121187255D01*
X49902514Y-121022584D01*
X49903715Y-121015000D01*
X49095284Y-121015000D01*
X49099679Y-121010605D01*
X49152340Y-120919394D01*
X49179599Y-120817661D01*
X49179599Y-120712339D01*
X49152340Y-120610606D01*
X49099679Y-120519395D01*
X49095284Y-120515000D01*
X49903715Y-120515000D01*
X49903715Y-120514999D01*
X49902514Y-120507415D01*
X49849008Y-120342744D01*
X49768192Y-120184134D01*
X49769348Y-120183544D01*
X49752660Y-120121840D01*
X49773778Y-120055238D01*
X49827551Y-120010627D01*
X49876631Y-120000500D01*
X51262569Y-120000500D01*
X51329608Y-120020185D01*
G37*
%TD.AperFunction*%
%TD*%
M02*
