%TF.GenerationSoftware,KiCad,Pcbnew,10.0.6*%
%TF.CreationDate,2026-10-09T19:12:30+02:00*%
%TF.ProjectId,wifi-geiger-counter,77696669-2d67-4656-9967-65722d636f75,rev?*%
%TF.SameCoordinates,Original*%
%TF.FileFunction,Legend,Top*%
%TF.FilePolarity,Positive*%
%FSLAX46Y46*%
G04 Gerber Fmt 4.6, Leading zero omitted, Abs format (unit mm)*
G04 Created by KiCad (PCBNEW 10.0.6) date 2026-10-09 19:12:30*
%MOMM*%
%LPD*%
G01*
G04 APERTURE LIST*
%ADD10C,0.150000*%
%ADD11C,0.250000*%
%ADD12C,0.060000*%
%ADD13C,0.120000*%
%ADD14C,0.000000*%
G04 APERTURE END LIST*
D10*
X97938095Y-169004819D02*
X97938095Y-169814342D01*
X97938095Y-169814342D02*
X97985714Y-169909580D01*
X97985714Y-169909580D02*
X98033333Y-169957200D01*
X98033333Y-169957200D02*
X98128571Y-170004819D01*
X98128571Y-170004819D02*
X98319047Y-170004819D01*
X98319047Y-170004819D02*
X98414285Y-169957200D01*
X98414285Y-169957200D02*
X98461904Y-169909580D01*
X98461904Y-169909580D02*
X98509523Y-169814342D01*
X98509523Y-169814342D02*
X98509523Y-169004819D01*
X98938095Y-169100057D02*
X98985714Y-169052438D01*
X98985714Y-169052438D02*
X99080952Y-169004819D01*
X99080952Y-169004819D02*
X99319047Y-169004819D01*
X99319047Y-169004819D02*
X99414285Y-169052438D01*
X99414285Y-169052438D02*
X99461904Y-169100057D01*
X99461904Y-169100057D02*
X99509523Y-169195295D01*
X99509523Y-169195295D02*
X99509523Y-169290533D01*
X99509523Y-169290533D02*
X99461904Y-169433390D01*
X99461904Y-169433390D02*
X98890476Y-170004819D01*
X98890476Y-170004819D02*
X99509523Y-170004819D01*
X66745833Y-128804819D02*
X66412500Y-128328628D01*
X66174405Y-128804819D02*
X66174405Y-127804819D01*
X66174405Y-127804819D02*
X66555357Y-127804819D01*
X66555357Y-127804819D02*
X66650595Y-127852438D01*
X66650595Y-127852438D02*
X66698214Y-127900057D01*
X66698214Y-127900057D02*
X66745833Y-127995295D01*
X66745833Y-127995295D02*
X66745833Y-128138152D01*
X66745833Y-128138152D02*
X66698214Y-128233390D01*
X66698214Y-128233390D02*
X66650595Y-128281009D01*
X66650595Y-128281009D02*
X66555357Y-128328628D01*
X66555357Y-128328628D02*
X66174405Y-128328628D01*
X67602976Y-128138152D02*
X67602976Y-128804819D01*
X67364881Y-127757200D02*
X67126786Y-128471485D01*
X67126786Y-128471485D02*
X67745833Y-128471485D01*
X89304819Y-159675594D02*
X88304819Y-159675594D01*
X88304819Y-159675594D02*
X88304819Y-159437499D01*
X88304819Y-159437499D02*
X88352438Y-159294642D01*
X88352438Y-159294642D02*
X88447676Y-159199404D01*
X88447676Y-159199404D02*
X88542914Y-159151785D01*
X88542914Y-159151785D02*
X88733390Y-159104166D01*
X88733390Y-159104166D02*
X88876247Y-159104166D01*
X88876247Y-159104166D02*
X89066723Y-159151785D01*
X89066723Y-159151785D02*
X89161961Y-159199404D01*
X89161961Y-159199404D02*
X89257200Y-159294642D01*
X89257200Y-159294642D02*
X89304819Y-159437499D01*
X89304819Y-159437499D02*
X89304819Y-159675594D01*
X89304819Y-158627975D02*
X89304819Y-158437499D01*
X89304819Y-158437499D02*
X89257200Y-158342261D01*
X89257200Y-158342261D02*
X89209580Y-158294642D01*
X89209580Y-158294642D02*
X89066723Y-158199404D01*
X89066723Y-158199404D02*
X88876247Y-158151785D01*
X88876247Y-158151785D02*
X88495295Y-158151785D01*
X88495295Y-158151785D02*
X88400057Y-158199404D01*
X88400057Y-158199404D02*
X88352438Y-158247023D01*
X88352438Y-158247023D02*
X88304819Y-158342261D01*
X88304819Y-158342261D02*
X88304819Y-158532737D01*
X88304819Y-158532737D02*
X88352438Y-158627975D01*
X88352438Y-158627975D02*
X88400057Y-158675594D01*
X88400057Y-158675594D02*
X88495295Y-158723213D01*
X88495295Y-158723213D02*
X88733390Y-158723213D01*
X88733390Y-158723213D02*
X88828628Y-158675594D01*
X88828628Y-158675594D02*
X88876247Y-158627975D01*
X88876247Y-158627975D02*
X88923866Y-158532737D01*
X88923866Y-158532737D02*
X88923866Y-158342261D01*
X88923866Y-158342261D02*
X88876247Y-158247023D01*
X88876247Y-158247023D02*
X88828628Y-158199404D01*
X88828628Y-158199404D02*
X88733390Y-158151785D01*
X80944642Y-141304819D02*
X80611309Y-140828628D01*
X80373214Y-141304819D02*
X80373214Y-140304819D01*
X80373214Y-140304819D02*
X80754166Y-140304819D01*
X80754166Y-140304819D02*
X80849404Y-140352438D01*
X80849404Y-140352438D02*
X80897023Y-140400057D01*
X80897023Y-140400057D02*
X80944642Y-140495295D01*
X80944642Y-140495295D02*
X80944642Y-140638152D01*
X80944642Y-140638152D02*
X80897023Y-140733390D01*
X80897023Y-140733390D02*
X80849404Y-140781009D01*
X80849404Y-140781009D02*
X80754166Y-140828628D01*
X80754166Y-140828628D02*
X80373214Y-140828628D01*
X81325595Y-140400057D02*
X81373214Y-140352438D01*
X81373214Y-140352438D02*
X81468452Y-140304819D01*
X81468452Y-140304819D02*
X81706547Y-140304819D01*
X81706547Y-140304819D02*
X81801785Y-140352438D01*
X81801785Y-140352438D02*
X81849404Y-140400057D01*
X81849404Y-140400057D02*
X81897023Y-140495295D01*
X81897023Y-140495295D02*
X81897023Y-140590533D01*
X81897023Y-140590533D02*
X81849404Y-140733390D01*
X81849404Y-140733390D02*
X81277976Y-141304819D01*
X81277976Y-141304819D02*
X81897023Y-141304819D01*
X82754166Y-140638152D02*
X82754166Y-141304819D01*
X82516071Y-140257200D02*
X82277976Y-140971485D01*
X82277976Y-140971485D02*
X82897023Y-140971485D01*
X129062333Y-149140580D02*
X129014714Y-149188200D01*
X129014714Y-149188200D02*
X128871857Y-149235819D01*
X128871857Y-149235819D02*
X128776619Y-149235819D01*
X128776619Y-149235819D02*
X128633762Y-149188200D01*
X128633762Y-149188200D02*
X128538524Y-149092961D01*
X128538524Y-149092961D02*
X128490905Y-148997723D01*
X128490905Y-148997723D02*
X128443286Y-148807247D01*
X128443286Y-148807247D02*
X128443286Y-148664390D01*
X128443286Y-148664390D02*
X128490905Y-148473914D01*
X128490905Y-148473914D02*
X128538524Y-148378676D01*
X128538524Y-148378676D02*
X128633762Y-148283438D01*
X128633762Y-148283438D02*
X128776619Y-148235819D01*
X128776619Y-148235819D02*
X128871857Y-148235819D01*
X128871857Y-148235819D02*
X129014714Y-148283438D01*
X129014714Y-148283438D02*
X129062333Y-148331057D01*
X129538524Y-149235819D02*
X129729000Y-149235819D01*
X129729000Y-149235819D02*
X129824238Y-149188200D01*
X129824238Y-149188200D02*
X129871857Y-149140580D01*
X129871857Y-149140580D02*
X129967095Y-148997723D01*
X129967095Y-148997723D02*
X130014714Y-148807247D01*
X130014714Y-148807247D02*
X130014714Y-148426295D01*
X130014714Y-148426295D02*
X129967095Y-148331057D01*
X129967095Y-148331057D02*
X129919476Y-148283438D01*
X129919476Y-148283438D02*
X129824238Y-148235819D01*
X129824238Y-148235819D02*
X129633762Y-148235819D01*
X129633762Y-148235819D02*
X129538524Y-148283438D01*
X129538524Y-148283438D02*
X129490905Y-148331057D01*
X129490905Y-148331057D02*
X129443286Y-148426295D01*
X129443286Y-148426295D02*
X129443286Y-148664390D01*
X129443286Y-148664390D02*
X129490905Y-148759628D01*
X129490905Y-148759628D02*
X129538524Y-148807247D01*
X129538524Y-148807247D02*
X129633762Y-148854866D01*
X129633762Y-148854866D02*
X129824238Y-148854866D01*
X129824238Y-148854866D02*
X129919476Y-148807247D01*
X129919476Y-148807247D02*
X129967095Y-148759628D01*
X129967095Y-148759628D02*
X130014714Y-148664390D01*
X62783333Y-132679580D02*
X62735714Y-132727200D01*
X62735714Y-132727200D02*
X62592857Y-132774819D01*
X62592857Y-132774819D02*
X62497619Y-132774819D01*
X62497619Y-132774819D02*
X62354762Y-132727200D01*
X62354762Y-132727200D02*
X62259524Y-132631961D01*
X62259524Y-132631961D02*
X62211905Y-132536723D01*
X62211905Y-132536723D02*
X62164286Y-132346247D01*
X62164286Y-132346247D02*
X62164286Y-132203390D01*
X62164286Y-132203390D02*
X62211905Y-132012914D01*
X62211905Y-132012914D02*
X62259524Y-131917676D01*
X62259524Y-131917676D02*
X62354762Y-131822438D01*
X62354762Y-131822438D02*
X62497619Y-131774819D01*
X62497619Y-131774819D02*
X62592857Y-131774819D01*
X62592857Y-131774819D02*
X62735714Y-131822438D01*
X62735714Y-131822438D02*
X62783333Y-131870057D01*
X63735714Y-132774819D02*
X63164286Y-132774819D01*
X63450000Y-132774819D02*
X63450000Y-131774819D01*
X63450000Y-131774819D02*
X63354762Y-131917676D01*
X63354762Y-131917676D02*
X63259524Y-132012914D01*
X63259524Y-132012914D02*
X63164286Y-132060533D01*
X98387095Y-116573819D02*
X98387095Y-117383342D01*
X98387095Y-117383342D02*
X98434714Y-117478580D01*
X98434714Y-117478580D02*
X98482333Y-117526200D01*
X98482333Y-117526200D02*
X98577571Y-117573819D01*
X98577571Y-117573819D02*
X98768047Y-117573819D01*
X98768047Y-117573819D02*
X98863285Y-117526200D01*
X98863285Y-117526200D02*
X98910904Y-117478580D01*
X98910904Y-117478580D02*
X98958523Y-117383342D01*
X98958523Y-117383342D02*
X98958523Y-116573819D01*
X99339476Y-116573819D02*
X99958523Y-116573819D01*
X99958523Y-116573819D02*
X99625190Y-116954771D01*
X99625190Y-116954771D02*
X99768047Y-116954771D01*
X99768047Y-116954771D02*
X99863285Y-117002390D01*
X99863285Y-117002390D02*
X99910904Y-117050009D01*
X99910904Y-117050009D02*
X99958523Y-117145247D01*
X99958523Y-117145247D02*
X99958523Y-117383342D01*
X99958523Y-117383342D02*
X99910904Y-117478580D01*
X99910904Y-117478580D02*
X99863285Y-117526200D01*
X99863285Y-117526200D02*
X99768047Y-117573819D01*
X99768047Y-117573819D02*
X99482333Y-117573819D01*
X99482333Y-117573819D02*
X99387095Y-117526200D01*
X99387095Y-117526200D02*
X99339476Y-117478580D01*
X127138642Y-161129819D02*
X126805309Y-160653628D01*
X126567214Y-161129819D02*
X126567214Y-160129819D01*
X126567214Y-160129819D02*
X126948166Y-160129819D01*
X126948166Y-160129819D02*
X127043404Y-160177438D01*
X127043404Y-160177438D02*
X127091023Y-160225057D01*
X127091023Y-160225057D02*
X127138642Y-160320295D01*
X127138642Y-160320295D02*
X127138642Y-160463152D01*
X127138642Y-160463152D02*
X127091023Y-160558390D01*
X127091023Y-160558390D02*
X127043404Y-160606009D01*
X127043404Y-160606009D02*
X126948166Y-160653628D01*
X126948166Y-160653628D02*
X126567214Y-160653628D01*
X128091023Y-161129819D02*
X127519595Y-161129819D01*
X127805309Y-161129819D02*
X127805309Y-160129819D01*
X127805309Y-160129819D02*
X127710071Y-160272676D01*
X127710071Y-160272676D02*
X127614833Y-160367914D01*
X127614833Y-160367914D02*
X127519595Y-160415533D01*
X128995785Y-160129819D02*
X128519595Y-160129819D01*
X128519595Y-160129819D02*
X128471976Y-160606009D01*
X128471976Y-160606009D02*
X128519595Y-160558390D01*
X128519595Y-160558390D02*
X128614833Y-160510771D01*
X128614833Y-160510771D02*
X128852928Y-160510771D01*
X128852928Y-160510771D02*
X128948166Y-160558390D01*
X128948166Y-160558390D02*
X128995785Y-160606009D01*
X128995785Y-160606009D02*
X129043404Y-160701247D01*
X129043404Y-160701247D02*
X129043404Y-160939342D01*
X129043404Y-160939342D02*
X128995785Y-161034580D01*
X128995785Y-161034580D02*
X128948166Y-161082200D01*
X128948166Y-161082200D02*
X128852928Y-161129819D01*
X128852928Y-161129819D02*
X128614833Y-161129819D01*
X128614833Y-161129819D02*
X128519595Y-161082200D01*
X128519595Y-161082200D02*
X128471976Y-161034580D01*
X119786642Y-128328819D02*
X119453309Y-127852628D01*
X119215214Y-128328819D02*
X119215214Y-127328819D01*
X119215214Y-127328819D02*
X119596166Y-127328819D01*
X119596166Y-127328819D02*
X119691404Y-127376438D01*
X119691404Y-127376438D02*
X119739023Y-127424057D01*
X119739023Y-127424057D02*
X119786642Y-127519295D01*
X119786642Y-127519295D02*
X119786642Y-127662152D01*
X119786642Y-127662152D02*
X119739023Y-127757390D01*
X119739023Y-127757390D02*
X119691404Y-127805009D01*
X119691404Y-127805009D02*
X119596166Y-127852628D01*
X119596166Y-127852628D02*
X119215214Y-127852628D01*
X120739023Y-128328819D02*
X120167595Y-128328819D01*
X120453309Y-128328819D02*
X120453309Y-127328819D01*
X120453309Y-127328819D02*
X120358071Y-127471676D01*
X120358071Y-127471676D02*
X120262833Y-127566914D01*
X120262833Y-127566914D02*
X120167595Y-127614533D01*
X121691404Y-128328819D02*
X121119976Y-128328819D01*
X121405690Y-128328819D02*
X121405690Y-127328819D01*
X121405690Y-127328819D02*
X121310452Y-127471676D01*
X121310452Y-127471676D02*
X121215214Y-127566914D01*
X121215214Y-127566914D02*
X121119976Y-127614533D01*
X120580905Y-144235819D02*
X120580905Y-143235819D01*
X120580905Y-143235819D02*
X120819000Y-143235819D01*
X120819000Y-143235819D02*
X120961857Y-143283438D01*
X120961857Y-143283438D02*
X121057095Y-143378676D01*
X121057095Y-143378676D02*
X121104714Y-143473914D01*
X121104714Y-143473914D02*
X121152333Y-143664390D01*
X121152333Y-143664390D02*
X121152333Y-143807247D01*
X121152333Y-143807247D02*
X121104714Y-143997723D01*
X121104714Y-143997723D02*
X121057095Y-144092961D01*
X121057095Y-144092961D02*
X120961857Y-144188200D01*
X120961857Y-144188200D02*
X120819000Y-144235819D01*
X120819000Y-144235819D02*
X120580905Y-144235819D01*
X121485667Y-143235819D02*
X122104714Y-143235819D01*
X122104714Y-143235819D02*
X121771381Y-143616771D01*
X121771381Y-143616771D02*
X121914238Y-143616771D01*
X121914238Y-143616771D02*
X122009476Y-143664390D01*
X122009476Y-143664390D02*
X122057095Y-143712009D01*
X122057095Y-143712009D02*
X122104714Y-143807247D01*
X122104714Y-143807247D02*
X122104714Y-144045342D01*
X122104714Y-144045342D02*
X122057095Y-144140580D01*
X122057095Y-144140580D02*
X122009476Y-144188200D01*
X122009476Y-144188200D02*
X121914238Y-144235819D01*
X121914238Y-144235819D02*
X121628524Y-144235819D01*
X121628524Y-144235819D02*
X121533286Y-144188200D01*
X121533286Y-144188200D02*
X121485667Y-144140580D01*
X67411905Y-170454819D02*
X67411905Y-169454819D01*
X67411905Y-169454819D02*
X67650000Y-169454819D01*
X67650000Y-169454819D02*
X67792857Y-169502438D01*
X67792857Y-169502438D02*
X67888095Y-169597676D01*
X67888095Y-169597676D02*
X67935714Y-169692914D01*
X67935714Y-169692914D02*
X67983333Y-169883390D01*
X67983333Y-169883390D02*
X67983333Y-170026247D01*
X67983333Y-170026247D02*
X67935714Y-170216723D01*
X67935714Y-170216723D02*
X67888095Y-170311961D01*
X67888095Y-170311961D02*
X67792857Y-170407200D01*
X67792857Y-170407200D02*
X67650000Y-170454819D01*
X67650000Y-170454819D02*
X67411905Y-170454819D01*
X68840476Y-169454819D02*
X68650000Y-169454819D01*
X68650000Y-169454819D02*
X68554762Y-169502438D01*
X68554762Y-169502438D02*
X68507143Y-169550057D01*
X68507143Y-169550057D02*
X68411905Y-169692914D01*
X68411905Y-169692914D02*
X68364286Y-169883390D01*
X68364286Y-169883390D02*
X68364286Y-170264342D01*
X68364286Y-170264342D02*
X68411905Y-170359580D01*
X68411905Y-170359580D02*
X68459524Y-170407200D01*
X68459524Y-170407200D02*
X68554762Y-170454819D01*
X68554762Y-170454819D02*
X68745238Y-170454819D01*
X68745238Y-170454819D02*
X68840476Y-170407200D01*
X68840476Y-170407200D02*
X68888095Y-170359580D01*
X68888095Y-170359580D02*
X68935714Y-170264342D01*
X68935714Y-170264342D02*
X68935714Y-170026247D01*
X68935714Y-170026247D02*
X68888095Y-169931009D01*
X68888095Y-169931009D02*
X68840476Y-169883390D01*
X68840476Y-169883390D02*
X68745238Y-169835771D01*
X68745238Y-169835771D02*
X68554762Y-169835771D01*
X68554762Y-169835771D02*
X68459524Y-169883390D01*
X68459524Y-169883390D02*
X68411905Y-169931009D01*
X68411905Y-169931009D02*
X68364286Y-170026247D01*
X124746761Y-124124057D02*
X124651523Y-124076438D01*
X124651523Y-124076438D02*
X124556285Y-123981200D01*
X124556285Y-123981200D02*
X124413428Y-123838342D01*
X124413428Y-123838342D02*
X124318190Y-123790723D01*
X124318190Y-123790723D02*
X124222952Y-123790723D01*
X124270571Y-124028819D02*
X124175333Y-123981200D01*
X124175333Y-123981200D02*
X124080095Y-123885961D01*
X124080095Y-123885961D02*
X124032476Y-123695485D01*
X124032476Y-123695485D02*
X124032476Y-123362152D01*
X124032476Y-123362152D02*
X124080095Y-123171676D01*
X124080095Y-123171676D02*
X124175333Y-123076438D01*
X124175333Y-123076438D02*
X124270571Y-123028819D01*
X124270571Y-123028819D02*
X124461047Y-123028819D01*
X124461047Y-123028819D02*
X124556285Y-123076438D01*
X124556285Y-123076438D02*
X124651523Y-123171676D01*
X124651523Y-123171676D02*
X124699142Y-123362152D01*
X124699142Y-123362152D02*
X124699142Y-123695485D01*
X124699142Y-123695485D02*
X124651523Y-123885961D01*
X124651523Y-123885961D02*
X124556285Y-123981200D01*
X124556285Y-123981200D02*
X124461047Y-124028819D01*
X124461047Y-124028819D02*
X124270571Y-124028819D01*
X125651523Y-124028819D02*
X125080095Y-124028819D01*
X125365809Y-124028819D02*
X125365809Y-123028819D01*
X125365809Y-123028819D02*
X125270571Y-123171676D01*
X125270571Y-123171676D02*
X125175333Y-123266914D01*
X125175333Y-123266914D02*
X125080095Y-123314533D01*
X70199405Y-125304819D02*
X70199405Y-124304819D01*
X70199405Y-124304819D02*
X70437500Y-124304819D01*
X70437500Y-124304819D02*
X70580357Y-124352438D01*
X70580357Y-124352438D02*
X70675595Y-124447676D01*
X70675595Y-124447676D02*
X70723214Y-124542914D01*
X70723214Y-124542914D02*
X70770833Y-124733390D01*
X70770833Y-124733390D02*
X70770833Y-124876247D01*
X70770833Y-124876247D02*
X70723214Y-125066723D01*
X70723214Y-125066723D02*
X70675595Y-125161961D01*
X70675595Y-125161961D02*
X70580357Y-125257200D01*
X70580357Y-125257200D02*
X70437500Y-125304819D01*
X70437500Y-125304819D02*
X70199405Y-125304819D01*
X71151786Y-124400057D02*
X71199405Y-124352438D01*
X71199405Y-124352438D02*
X71294643Y-124304819D01*
X71294643Y-124304819D02*
X71532738Y-124304819D01*
X71532738Y-124304819D02*
X71627976Y-124352438D01*
X71627976Y-124352438D02*
X71675595Y-124400057D01*
X71675595Y-124400057D02*
X71723214Y-124495295D01*
X71723214Y-124495295D02*
X71723214Y-124590533D01*
X71723214Y-124590533D02*
X71675595Y-124733390D01*
X71675595Y-124733390D02*
X71104167Y-125304819D01*
X71104167Y-125304819D02*
X71723214Y-125304819D01*
X58245833Y-130804819D02*
X57912500Y-130328628D01*
X57674405Y-130804819D02*
X57674405Y-129804819D01*
X57674405Y-129804819D02*
X58055357Y-129804819D01*
X58055357Y-129804819D02*
X58150595Y-129852438D01*
X58150595Y-129852438D02*
X58198214Y-129900057D01*
X58198214Y-129900057D02*
X58245833Y-129995295D01*
X58245833Y-129995295D02*
X58245833Y-130138152D01*
X58245833Y-130138152D02*
X58198214Y-130233390D01*
X58198214Y-130233390D02*
X58150595Y-130281009D01*
X58150595Y-130281009D02*
X58055357Y-130328628D01*
X58055357Y-130328628D02*
X57674405Y-130328628D01*
X58626786Y-129900057D02*
X58674405Y-129852438D01*
X58674405Y-129852438D02*
X58769643Y-129804819D01*
X58769643Y-129804819D02*
X59007738Y-129804819D01*
X59007738Y-129804819D02*
X59102976Y-129852438D01*
X59102976Y-129852438D02*
X59150595Y-129900057D01*
X59150595Y-129900057D02*
X59198214Y-129995295D01*
X59198214Y-129995295D02*
X59198214Y-130090533D01*
X59198214Y-130090533D02*
X59150595Y-130233390D01*
X59150595Y-130233390D02*
X58579167Y-130804819D01*
X58579167Y-130804819D02*
X59198214Y-130804819D01*
X116304333Y-156739580D02*
X116256714Y-156787200D01*
X116256714Y-156787200D02*
X116113857Y-156834819D01*
X116113857Y-156834819D02*
X116018619Y-156834819D01*
X116018619Y-156834819D02*
X115875762Y-156787200D01*
X115875762Y-156787200D02*
X115780524Y-156691961D01*
X115780524Y-156691961D02*
X115732905Y-156596723D01*
X115732905Y-156596723D02*
X115685286Y-156406247D01*
X115685286Y-156406247D02*
X115685286Y-156263390D01*
X115685286Y-156263390D02*
X115732905Y-156072914D01*
X115732905Y-156072914D02*
X115780524Y-155977676D01*
X115780524Y-155977676D02*
X115875762Y-155882438D01*
X115875762Y-155882438D02*
X116018619Y-155834819D01*
X116018619Y-155834819D02*
X116113857Y-155834819D01*
X116113857Y-155834819D02*
X116256714Y-155882438D01*
X116256714Y-155882438D02*
X116304333Y-155930057D01*
X116875762Y-156263390D02*
X116780524Y-156215771D01*
X116780524Y-156215771D02*
X116732905Y-156168152D01*
X116732905Y-156168152D02*
X116685286Y-156072914D01*
X116685286Y-156072914D02*
X116685286Y-156025295D01*
X116685286Y-156025295D02*
X116732905Y-155930057D01*
X116732905Y-155930057D02*
X116780524Y-155882438D01*
X116780524Y-155882438D02*
X116875762Y-155834819D01*
X116875762Y-155834819D02*
X117066238Y-155834819D01*
X117066238Y-155834819D02*
X117161476Y-155882438D01*
X117161476Y-155882438D02*
X117209095Y-155930057D01*
X117209095Y-155930057D02*
X117256714Y-156025295D01*
X117256714Y-156025295D02*
X117256714Y-156072914D01*
X117256714Y-156072914D02*
X117209095Y-156168152D01*
X117209095Y-156168152D02*
X117161476Y-156215771D01*
X117161476Y-156215771D02*
X117066238Y-156263390D01*
X117066238Y-156263390D02*
X116875762Y-156263390D01*
X116875762Y-156263390D02*
X116780524Y-156311009D01*
X116780524Y-156311009D02*
X116732905Y-156358628D01*
X116732905Y-156358628D02*
X116685286Y-156453866D01*
X116685286Y-156453866D02*
X116685286Y-156644342D01*
X116685286Y-156644342D02*
X116732905Y-156739580D01*
X116732905Y-156739580D02*
X116780524Y-156787200D01*
X116780524Y-156787200D02*
X116875762Y-156834819D01*
X116875762Y-156834819D02*
X117066238Y-156834819D01*
X117066238Y-156834819D02*
X117161476Y-156787200D01*
X117161476Y-156787200D02*
X117209095Y-156739580D01*
X117209095Y-156739580D02*
X117256714Y-156644342D01*
X117256714Y-156644342D02*
X117256714Y-156453866D01*
X117256714Y-156453866D02*
X117209095Y-156358628D01*
X117209095Y-156358628D02*
X117161476Y-156311009D01*
X117161476Y-156311009D02*
X117066238Y-156263390D01*
X132138642Y-161129819D02*
X131805309Y-160653628D01*
X131567214Y-161129819D02*
X131567214Y-160129819D01*
X131567214Y-160129819D02*
X131948166Y-160129819D01*
X131948166Y-160129819D02*
X132043404Y-160177438D01*
X132043404Y-160177438D02*
X132091023Y-160225057D01*
X132091023Y-160225057D02*
X132138642Y-160320295D01*
X132138642Y-160320295D02*
X132138642Y-160463152D01*
X132138642Y-160463152D02*
X132091023Y-160558390D01*
X132091023Y-160558390D02*
X132043404Y-160606009D01*
X132043404Y-160606009D02*
X131948166Y-160653628D01*
X131948166Y-160653628D02*
X131567214Y-160653628D01*
X133091023Y-161129819D02*
X132519595Y-161129819D01*
X132805309Y-161129819D02*
X132805309Y-160129819D01*
X132805309Y-160129819D02*
X132710071Y-160272676D01*
X132710071Y-160272676D02*
X132614833Y-160367914D01*
X132614833Y-160367914D02*
X132519595Y-160415533D01*
X133948166Y-160129819D02*
X133757690Y-160129819D01*
X133757690Y-160129819D02*
X133662452Y-160177438D01*
X133662452Y-160177438D02*
X133614833Y-160225057D01*
X133614833Y-160225057D02*
X133519595Y-160367914D01*
X133519595Y-160367914D02*
X133471976Y-160558390D01*
X133471976Y-160558390D02*
X133471976Y-160939342D01*
X133471976Y-160939342D02*
X133519595Y-161034580D01*
X133519595Y-161034580D02*
X133567214Y-161082200D01*
X133567214Y-161082200D02*
X133662452Y-161129819D01*
X133662452Y-161129819D02*
X133852928Y-161129819D01*
X133852928Y-161129819D02*
X133948166Y-161082200D01*
X133948166Y-161082200D02*
X133995785Y-161034580D01*
X133995785Y-161034580D02*
X134043404Y-160939342D01*
X134043404Y-160939342D02*
X134043404Y-160701247D01*
X134043404Y-160701247D02*
X133995785Y-160606009D01*
X133995785Y-160606009D02*
X133948166Y-160558390D01*
X133948166Y-160558390D02*
X133852928Y-160510771D01*
X133852928Y-160510771D02*
X133662452Y-160510771D01*
X133662452Y-160510771D02*
X133567214Y-160558390D01*
X133567214Y-160558390D02*
X133519595Y-160606009D01*
X133519595Y-160606009D02*
X133471976Y-160701247D01*
X93982333Y-121298580D02*
X93934714Y-121346200D01*
X93934714Y-121346200D02*
X93791857Y-121393819D01*
X93791857Y-121393819D02*
X93696619Y-121393819D01*
X93696619Y-121393819D02*
X93553762Y-121346200D01*
X93553762Y-121346200D02*
X93458524Y-121250961D01*
X93458524Y-121250961D02*
X93410905Y-121155723D01*
X93410905Y-121155723D02*
X93363286Y-120965247D01*
X93363286Y-120965247D02*
X93363286Y-120822390D01*
X93363286Y-120822390D02*
X93410905Y-120631914D01*
X93410905Y-120631914D02*
X93458524Y-120536676D01*
X93458524Y-120536676D02*
X93553762Y-120441438D01*
X93553762Y-120441438D02*
X93696619Y-120393819D01*
X93696619Y-120393819D02*
X93791857Y-120393819D01*
X93791857Y-120393819D02*
X93934714Y-120441438D01*
X93934714Y-120441438D02*
X93982333Y-120489057D01*
X94315667Y-120393819D02*
X94934714Y-120393819D01*
X94934714Y-120393819D02*
X94601381Y-120774771D01*
X94601381Y-120774771D02*
X94744238Y-120774771D01*
X94744238Y-120774771D02*
X94839476Y-120822390D01*
X94839476Y-120822390D02*
X94887095Y-120870009D01*
X94887095Y-120870009D02*
X94934714Y-120965247D01*
X94934714Y-120965247D02*
X94934714Y-121203342D01*
X94934714Y-121203342D02*
X94887095Y-121298580D01*
X94887095Y-121298580D02*
X94839476Y-121346200D01*
X94839476Y-121346200D02*
X94744238Y-121393819D01*
X94744238Y-121393819D02*
X94458524Y-121393819D01*
X94458524Y-121393819D02*
X94363286Y-121346200D01*
X94363286Y-121346200D02*
X94315667Y-121298580D01*
X128682142Y-169954819D02*
X128348809Y-169478628D01*
X128110714Y-169954819D02*
X128110714Y-168954819D01*
X128110714Y-168954819D02*
X128491666Y-168954819D01*
X128491666Y-168954819D02*
X128586904Y-169002438D01*
X128586904Y-169002438D02*
X128634523Y-169050057D01*
X128634523Y-169050057D02*
X128682142Y-169145295D01*
X128682142Y-169145295D02*
X128682142Y-169288152D01*
X128682142Y-169288152D02*
X128634523Y-169383390D01*
X128634523Y-169383390D02*
X128586904Y-169431009D01*
X128586904Y-169431009D02*
X128491666Y-169478628D01*
X128491666Y-169478628D02*
X128110714Y-169478628D01*
X129634523Y-169954819D02*
X129063095Y-169954819D01*
X129348809Y-169954819D02*
X129348809Y-168954819D01*
X129348809Y-168954819D02*
X129253571Y-169097676D01*
X129253571Y-169097676D02*
X129158333Y-169192914D01*
X129158333Y-169192914D02*
X129063095Y-169240533D01*
X130015476Y-169050057D02*
X130063095Y-169002438D01*
X130063095Y-169002438D02*
X130158333Y-168954819D01*
X130158333Y-168954819D02*
X130396428Y-168954819D01*
X130396428Y-168954819D02*
X130491666Y-169002438D01*
X130491666Y-169002438D02*
X130539285Y-169050057D01*
X130539285Y-169050057D02*
X130586904Y-169145295D01*
X130586904Y-169145295D02*
X130586904Y-169240533D01*
X130586904Y-169240533D02*
X130539285Y-169383390D01*
X130539285Y-169383390D02*
X129967857Y-169954819D01*
X129967857Y-169954819D02*
X130586904Y-169954819D01*
X117213642Y-161129819D02*
X116880309Y-160653628D01*
X116642214Y-161129819D02*
X116642214Y-160129819D01*
X116642214Y-160129819D02*
X117023166Y-160129819D01*
X117023166Y-160129819D02*
X117118404Y-160177438D01*
X117118404Y-160177438D02*
X117166023Y-160225057D01*
X117166023Y-160225057D02*
X117213642Y-160320295D01*
X117213642Y-160320295D02*
X117213642Y-160463152D01*
X117213642Y-160463152D02*
X117166023Y-160558390D01*
X117166023Y-160558390D02*
X117118404Y-160606009D01*
X117118404Y-160606009D02*
X117023166Y-160653628D01*
X117023166Y-160653628D02*
X116642214Y-160653628D01*
X118166023Y-161129819D02*
X117594595Y-161129819D01*
X117880309Y-161129819D02*
X117880309Y-160129819D01*
X117880309Y-160129819D02*
X117785071Y-160272676D01*
X117785071Y-160272676D02*
X117689833Y-160367914D01*
X117689833Y-160367914D02*
X117594595Y-160415533D01*
X118499357Y-160129819D02*
X119118404Y-160129819D01*
X119118404Y-160129819D02*
X118785071Y-160510771D01*
X118785071Y-160510771D02*
X118927928Y-160510771D01*
X118927928Y-160510771D02*
X119023166Y-160558390D01*
X119023166Y-160558390D02*
X119070785Y-160606009D01*
X119070785Y-160606009D02*
X119118404Y-160701247D01*
X119118404Y-160701247D02*
X119118404Y-160939342D01*
X119118404Y-160939342D02*
X119070785Y-161034580D01*
X119070785Y-161034580D02*
X119023166Y-161082200D01*
X119023166Y-161082200D02*
X118927928Y-161129819D01*
X118927928Y-161129819D02*
X118642214Y-161129819D01*
X118642214Y-161129819D02*
X118546976Y-161082200D01*
X118546976Y-161082200D02*
X118499357Y-161034580D01*
X136257142Y-169859580D02*
X136209523Y-169907200D01*
X136209523Y-169907200D02*
X136066666Y-169954819D01*
X136066666Y-169954819D02*
X135971428Y-169954819D01*
X135971428Y-169954819D02*
X135828571Y-169907200D01*
X135828571Y-169907200D02*
X135733333Y-169811961D01*
X135733333Y-169811961D02*
X135685714Y-169716723D01*
X135685714Y-169716723D02*
X135638095Y-169526247D01*
X135638095Y-169526247D02*
X135638095Y-169383390D01*
X135638095Y-169383390D02*
X135685714Y-169192914D01*
X135685714Y-169192914D02*
X135733333Y-169097676D01*
X135733333Y-169097676D02*
X135828571Y-169002438D01*
X135828571Y-169002438D02*
X135971428Y-168954819D01*
X135971428Y-168954819D02*
X136066666Y-168954819D01*
X136066666Y-168954819D02*
X136209523Y-169002438D01*
X136209523Y-169002438D02*
X136257142Y-169050057D01*
X137209523Y-169954819D02*
X136638095Y-169954819D01*
X136923809Y-169954819D02*
X136923809Y-168954819D01*
X136923809Y-168954819D02*
X136828571Y-169097676D01*
X136828571Y-169097676D02*
X136733333Y-169192914D01*
X136733333Y-169192914D02*
X136638095Y-169240533D01*
X138161904Y-169954819D02*
X137590476Y-169954819D01*
X137876190Y-169954819D02*
X137876190Y-168954819D01*
X137876190Y-168954819D02*
X137780952Y-169097676D01*
X137780952Y-169097676D02*
X137685714Y-169192914D01*
X137685714Y-169192914D02*
X137590476Y-169240533D01*
X87467261Y-144150057D02*
X87372023Y-144102438D01*
X87372023Y-144102438D02*
X87276785Y-144007200D01*
X87276785Y-144007200D02*
X87133928Y-143864342D01*
X87133928Y-143864342D02*
X87038690Y-143816723D01*
X87038690Y-143816723D02*
X86943452Y-143816723D01*
X86991071Y-144054819D02*
X86895833Y-144007200D01*
X86895833Y-144007200D02*
X86800595Y-143911961D01*
X86800595Y-143911961D02*
X86752976Y-143721485D01*
X86752976Y-143721485D02*
X86752976Y-143388152D01*
X86752976Y-143388152D02*
X86800595Y-143197676D01*
X86800595Y-143197676D02*
X86895833Y-143102438D01*
X86895833Y-143102438D02*
X86991071Y-143054819D01*
X86991071Y-143054819D02*
X87181547Y-143054819D01*
X87181547Y-143054819D02*
X87276785Y-143102438D01*
X87276785Y-143102438D02*
X87372023Y-143197676D01*
X87372023Y-143197676D02*
X87419642Y-143388152D01*
X87419642Y-143388152D02*
X87419642Y-143721485D01*
X87419642Y-143721485D02*
X87372023Y-143911961D01*
X87372023Y-143911961D02*
X87276785Y-144007200D01*
X87276785Y-144007200D02*
X87181547Y-144054819D01*
X87181547Y-144054819D02*
X86991071Y-144054819D01*
X87800595Y-143150057D02*
X87848214Y-143102438D01*
X87848214Y-143102438D02*
X87943452Y-143054819D01*
X87943452Y-143054819D02*
X88181547Y-143054819D01*
X88181547Y-143054819D02*
X88276785Y-143102438D01*
X88276785Y-143102438D02*
X88324404Y-143150057D01*
X88324404Y-143150057D02*
X88372023Y-143245295D01*
X88372023Y-143245295D02*
X88372023Y-143340533D01*
X88372023Y-143340533D02*
X88324404Y-143483390D01*
X88324404Y-143483390D02*
X87752976Y-144054819D01*
X87752976Y-144054819D02*
X88372023Y-144054819D01*
X97245833Y-147804819D02*
X96912500Y-147328628D01*
X96674405Y-147804819D02*
X96674405Y-146804819D01*
X96674405Y-146804819D02*
X97055357Y-146804819D01*
X97055357Y-146804819D02*
X97150595Y-146852438D01*
X97150595Y-146852438D02*
X97198214Y-146900057D01*
X97198214Y-146900057D02*
X97245833Y-146995295D01*
X97245833Y-146995295D02*
X97245833Y-147138152D01*
X97245833Y-147138152D02*
X97198214Y-147233390D01*
X97198214Y-147233390D02*
X97150595Y-147281009D01*
X97150595Y-147281009D02*
X97055357Y-147328628D01*
X97055357Y-147328628D02*
X96674405Y-147328628D01*
X97579167Y-146804819D02*
X98245833Y-146804819D01*
X98245833Y-146804819D02*
X97817262Y-147804819D01*
X61844095Y-116868819D02*
X61844095Y-117678342D01*
X61844095Y-117678342D02*
X61891714Y-117773580D01*
X61891714Y-117773580D02*
X61939333Y-117821200D01*
X61939333Y-117821200D02*
X62034571Y-117868819D01*
X62034571Y-117868819D02*
X62225047Y-117868819D01*
X62225047Y-117868819D02*
X62320285Y-117821200D01*
X62320285Y-117821200D02*
X62367904Y-117773580D01*
X62367904Y-117773580D02*
X62415523Y-117678342D01*
X62415523Y-117678342D02*
X62415523Y-116868819D01*
X63415523Y-117868819D02*
X62844095Y-117868819D01*
X63129809Y-117868819D02*
X63129809Y-116868819D01*
X63129809Y-116868819D02*
X63034571Y-117011676D01*
X63034571Y-117011676D02*
X62939333Y-117106914D01*
X62939333Y-117106914D02*
X62844095Y-117154533D01*
X132213642Y-165629819D02*
X131880309Y-165153628D01*
X131642214Y-165629819D02*
X131642214Y-164629819D01*
X131642214Y-164629819D02*
X132023166Y-164629819D01*
X132023166Y-164629819D02*
X132118404Y-164677438D01*
X132118404Y-164677438D02*
X132166023Y-164725057D01*
X132166023Y-164725057D02*
X132213642Y-164820295D01*
X132213642Y-164820295D02*
X132213642Y-164963152D01*
X132213642Y-164963152D02*
X132166023Y-165058390D01*
X132166023Y-165058390D02*
X132118404Y-165106009D01*
X132118404Y-165106009D02*
X132023166Y-165153628D01*
X132023166Y-165153628D02*
X131642214Y-165153628D01*
X132594595Y-164725057D02*
X132642214Y-164677438D01*
X132642214Y-164677438D02*
X132737452Y-164629819D01*
X132737452Y-164629819D02*
X132975547Y-164629819D01*
X132975547Y-164629819D02*
X133070785Y-164677438D01*
X133070785Y-164677438D02*
X133118404Y-164725057D01*
X133118404Y-164725057D02*
X133166023Y-164820295D01*
X133166023Y-164820295D02*
X133166023Y-164915533D01*
X133166023Y-164915533D02*
X133118404Y-165058390D01*
X133118404Y-165058390D02*
X132546976Y-165629819D01*
X132546976Y-165629819D02*
X133166023Y-165629819D01*
X134118404Y-165629819D02*
X133546976Y-165629819D01*
X133832690Y-165629819D02*
X133832690Y-164629819D01*
X133832690Y-164629819D02*
X133737452Y-164772676D01*
X133737452Y-164772676D02*
X133642214Y-164867914D01*
X133642214Y-164867914D02*
X133546976Y-164915533D01*
X55734905Y-141049819D02*
X55734905Y-140049819D01*
X55734905Y-140049819D02*
X55973000Y-140049819D01*
X55973000Y-140049819D02*
X56115857Y-140097438D01*
X56115857Y-140097438D02*
X56211095Y-140192676D01*
X56211095Y-140192676D02*
X56258714Y-140287914D01*
X56258714Y-140287914D02*
X56306333Y-140478390D01*
X56306333Y-140478390D02*
X56306333Y-140621247D01*
X56306333Y-140621247D02*
X56258714Y-140811723D01*
X56258714Y-140811723D02*
X56211095Y-140906961D01*
X56211095Y-140906961D02*
X56115857Y-141002200D01*
X56115857Y-141002200D02*
X55973000Y-141049819D01*
X55973000Y-141049819D02*
X55734905Y-141049819D01*
X56639667Y-140049819D02*
X57306333Y-140049819D01*
X57306333Y-140049819D02*
X56877762Y-141049819D01*
X55875595Y-135054819D02*
X55875595Y-135864342D01*
X55875595Y-135864342D02*
X55923214Y-135959580D01*
X55923214Y-135959580D02*
X55970833Y-136007200D01*
X55970833Y-136007200D02*
X56066071Y-136054819D01*
X56066071Y-136054819D02*
X56256547Y-136054819D01*
X56256547Y-136054819D02*
X56351785Y-136007200D01*
X56351785Y-136007200D02*
X56399404Y-135959580D01*
X56399404Y-135959580D02*
X56447023Y-135864342D01*
X56447023Y-135864342D02*
X56447023Y-135054819D01*
X57351785Y-135388152D02*
X57351785Y-136054819D01*
X57113690Y-135007200D02*
X56875595Y-135721485D01*
X56875595Y-135721485D02*
X57494642Y-135721485D01*
X80944642Y-145304819D02*
X80611309Y-144828628D01*
X80373214Y-145304819D02*
X80373214Y-144304819D01*
X80373214Y-144304819D02*
X80754166Y-144304819D01*
X80754166Y-144304819D02*
X80849404Y-144352438D01*
X80849404Y-144352438D02*
X80897023Y-144400057D01*
X80897023Y-144400057D02*
X80944642Y-144495295D01*
X80944642Y-144495295D02*
X80944642Y-144638152D01*
X80944642Y-144638152D02*
X80897023Y-144733390D01*
X80897023Y-144733390D02*
X80849404Y-144781009D01*
X80849404Y-144781009D02*
X80754166Y-144828628D01*
X80754166Y-144828628D02*
X80373214Y-144828628D01*
X81325595Y-144400057D02*
X81373214Y-144352438D01*
X81373214Y-144352438D02*
X81468452Y-144304819D01*
X81468452Y-144304819D02*
X81706547Y-144304819D01*
X81706547Y-144304819D02*
X81801785Y-144352438D01*
X81801785Y-144352438D02*
X81849404Y-144400057D01*
X81849404Y-144400057D02*
X81897023Y-144495295D01*
X81897023Y-144495295D02*
X81897023Y-144590533D01*
X81897023Y-144590533D02*
X81849404Y-144733390D01*
X81849404Y-144733390D02*
X81277976Y-145304819D01*
X81277976Y-145304819D02*
X81897023Y-145304819D01*
X82801785Y-144304819D02*
X82325595Y-144304819D01*
X82325595Y-144304819D02*
X82277976Y-144781009D01*
X82277976Y-144781009D02*
X82325595Y-144733390D01*
X82325595Y-144733390D02*
X82420833Y-144685771D01*
X82420833Y-144685771D02*
X82658928Y-144685771D01*
X82658928Y-144685771D02*
X82754166Y-144733390D01*
X82754166Y-144733390D02*
X82801785Y-144781009D01*
X82801785Y-144781009D02*
X82849404Y-144876247D01*
X82849404Y-144876247D02*
X82849404Y-145114342D01*
X82849404Y-145114342D02*
X82801785Y-145209580D01*
X82801785Y-145209580D02*
X82754166Y-145257200D01*
X82754166Y-145257200D02*
X82658928Y-145304819D01*
X82658928Y-145304819D02*
X82420833Y-145304819D01*
X82420833Y-145304819D02*
X82325595Y-145257200D01*
X82325595Y-145257200D02*
X82277976Y-145209580D01*
X93383333Y-151179580D02*
X93335714Y-151227200D01*
X93335714Y-151227200D02*
X93192857Y-151274819D01*
X93192857Y-151274819D02*
X93097619Y-151274819D01*
X93097619Y-151274819D02*
X92954762Y-151227200D01*
X92954762Y-151227200D02*
X92859524Y-151131961D01*
X92859524Y-151131961D02*
X92811905Y-151036723D01*
X92811905Y-151036723D02*
X92764286Y-150846247D01*
X92764286Y-150846247D02*
X92764286Y-150703390D01*
X92764286Y-150703390D02*
X92811905Y-150512914D01*
X92811905Y-150512914D02*
X92859524Y-150417676D01*
X92859524Y-150417676D02*
X92954762Y-150322438D01*
X92954762Y-150322438D02*
X93097619Y-150274819D01*
X93097619Y-150274819D02*
X93192857Y-150274819D01*
X93192857Y-150274819D02*
X93335714Y-150322438D01*
X93335714Y-150322438D02*
X93383333Y-150370057D01*
X94288095Y-150274819D02*
X93811905Y-150274819D01*
X93811905Y-150274819D02*
X93764286Y-150751009D01*
X93764286Y-150751009D02*
X93811905Y-150703390D01*
X93811905Y-150703390D02*
X93907143Y-150655771D01*
X93907143Y-150655771D02*
X94145238Y-150655771D01*
X94145238Y-150655771D02*
X94240476Y-150703390D01*
X94240476Y-150703390D02*
X94288095Y-150751009D01*
X94288095Y-150751009D02*
X94335714Y-150846247D01*
X94335714Y-150846247D02*
X94335714Y-151084342D01*
X94335714Y-151084342D02*
X94288095Y-151179580D01*
X94288095Y-151179580D02*
X94240476Y-151227200D01*
X94240476Y-151227200D02*
X94145238Y-151274819D01*
X94145238Y-151274819D02*
X93907143Y-151274819D01*
X93907143Y-151274819D02*
X93811905Y-151227200D01*
X93811905Y-151227200D02*
X93764286Y-151179580D01*
X132118819Y-139614333D02*
X132833104Y-139614333D01*
X132833104Y-139614333D02*
X132975961Y-139661952D01*
X132975961Y-139661952D02*
X133071200Y-139757190D01*
X133071200Y-139757190D02*
X133118819Y-139900047D01*
X133118819Y-139900047D02*
X133118819Y-139995285D01*
X132118819Y-139233380D02*
X132118819Y-138614333D01*
X132118819Y-138614333D02*
X132499771Y-138947666D01*
X132499771Y-138947666D02*
X132499771Y-138804809D01*
X132499771Y-138804809D02*
X132547390Y-138709571D01*
X132547390Y-138709571D02*
X132595009Y-138661952D01*
X132595009Y-138661952D02*
X132690247Y-138614333D01*
X132690247Y-138614333D02*
X132928342Y-138614333D01*
X132928342Y-138614333D02*
X133023580Y-138661952D01*
X133023580Y-138661952D02*
X133071200Y-138709571D01*
X133071200Y-138709571D02*
X133118819Y-138804809D01*
X133118819Y-138804809D02*
X133118819Y-139090523D01*
X133118819Y-139090523D02*
X133071200Y-139185761D01*
X133071200Y-139185761D02*
X133023580Y-139233380D01*
X137213642Y-161129819D02*
X136880309Y-160653628D01*
X136642214Y-161129819D02*
X136642214Y-160129819D01*
X136642214Y-160129819D02*
X137023166Y-160129819D01*
X137023166Y-160129819D02*
X137118404Y-160177438D01*
X137118404Y-160177438D02*
X137166023Y-160225057D01*
X137166023Y-160225057D02*
X137213642Y-160320295D01*
X137213642Y-160320295D02*
X137213642Y-160463152D01*
X137213642Y-160463152D02*
X137166023Y-160558390D01*
X137166023Y-160558390D02*
X137118404Y-160606009D01*
X137118404Y-160606009D02*
X137023166Y-160653628D01*
X137023166Y-160653628D02*
X136642214Y-160653628D01*
X138166023Y-161129819D02*
X137594595Y-161129819D01*
X137880309Y-161129819D02*
X137880309Y-160129819D01*
X137880309Y-160129819D02*
X137785071Y-160272676D01*
X137785071Y-160272676D02*
X137689833Y-160367914D01*
X137689833Y-160367914D02*
X137594595Y-160415533D01*
X138499357Y-160129819D02*
X139166023Y-160129819D01*
X139166023Y-160129819D02*
X138737452Y-161129819D01*
X137080905Y-144235819D02*
X137080905Y-143235819D01*
X137080905Y-143235819D02*
X137319000Y-143235819D01*
X137319000Y-143235819D02*
X137461857Y-143283438D01*
X137461857Y-143283438D02*
X137557095Y-143378676D01*
X137557095Y-143378676D02*
X137604714Y-143473914D01*
X137604714Y-143473914D02*
X137652333Y-143664390D01*
X137652333Y-143664390D02*
X137652333Y-143807247D01*
X137652333Y-143807247D02*
X137604714Y-143997723D01*
X137604714Y-143997723D02*
X137557095Y-144092961D01*
X137557095Y-144092961D02*
X137461857Y-144188200D01*
X137461857Y-144188200D02*
X137319000Y-144235819D01*
X137319000Y-144235819D02*
X137080905Y-144235819D01*
X138557095Y-143235819D02*
X138080905Y-143235819D01*
X138080905Y-143235819D02*
X138033286Y-143712009D01*
X138033286Y-143712009D02*
X138080905Y-143664390D01*
X138080905Y-143664390D02*
X138176143Y-143616771D01*
X138176143Y-143616771D02*
X138414238Y-143616771D01*
X138414238Y-143616771D02*
X138509476Y-143664390D01*
X138509476Y-143664390D02*
X138557095Y-143712009D01*
X138557095Y-143712009D02*
X138604714Y-143807247D01*
X138604714Y-143807247D02*
X138604714Y-144045342D01*
X138604714Y-144045342D02*
X138557095Y-144140580D01*
X138557095Y-144140580D02*
X138509476Y-144188200D01*
X138509476Y-144188200D02*
X138414238Y-144235819D01*
X138414238Y-144235819D02*
X138176143Y-144235819D01*
X138176143Y-144235819D02*
X138080905Y-144188200D01*
X138080905Y-144188200D02*
X138033286Y-144140580D01*
X117213642Y-165629819D02*
X116880309Y-165153628D01*
X116642214Y-165629819D02*
X116642214Y-164629819D01*
X116642214Y-164629819D02*
X117023166Y-164629819D01*
X117023166Y-164629819D02*
X117118404Y-164677438D01*
X117118404Y-164677438D02*
X117166023Y-164725057D01*
X117166023Y-164725057D02*
X117213642Y-164820295D01*
X117213642Y-164820295D02*
X117213642Y-164963152D01*
X117213642Y-164963152D02*
X117166023Y-165058390D01*
X117166023Y-165058390D02*
X117118404Y-165106009D01*
X117118404Y-165106009D02*
X117023166Y-165153628D01*
X117023166Y-165153628D02*
X116642214Y-165153628D01*
X118166023Y-165629819D02*
X117594595Y-165629819D01*
X117880309Y-165629819D02*
X117880309Y-164629819D01*
X117880309Y-164629819D02*
X117785071Y-164772676D01*
X117785071Y-164772676D02*
X117689833Y-164867914D01*
X117689833Y-164867914D02*
X117594595Y-164915533D01*
X118737452Y-165058390D02*
X118642214Y-165010771D01*
X118642214Y-165010771D02*
X118594595Y-164963152D01*
X118594595Y-164963152D02*
X118546976Y-164867914D01*
X118546976Y-164867914D02*
X118546976Y-164820295D01*
X118546976Y-164820295D02*
X118594595Y-164725057D01*
X118594595Y-164725057D02*
X118642214Y-164677438D01*
X118642214Y-164677438D02*
X118737452Y-164629819D01*
X118737452Y-164629819D02*
X118927928Y-164629819D01*
X118927928Y-164629819D02*
X119023166Y-164677438D01*
X119023166Y-164677438D02*
X119070785Y-164725057D01*
X119070785Y-164725057D02*
X119118404Y-164820295D01*
X119118404Y-164820295D02*
X119118404Y-164867914D01*
X119118404Y-164867914D02*
X119070785Y-164963152D01*
X119070785Y-164963152D02*
X119023166Y-165010771D01*
X119023166Y-165010771D02*
X118927928Y-165058390D01*
X118927928Y-165058390D02*
X118737452Y-165058390D01*
X118737452Y-165058390D02*
X118642214Y-165106009D01*
X118642214Y-165106009D02*
X118594595Y-165153628D01*
X118594595Y-165153628D02*
X118546976Y-165248866D01*
X118546976Y-165248866D02*
X118546976Y-165439342D01*
X118546976Y-165439342D02*
X118594595Y-165534580D01*
X118594595Y-165534580D02*
X118642214Y-165582200D01*
X118642214Y-165582200D02*
X118737452Y-165629819D01*
X118737452Y-165629819D02*
X118927928Y-165629819D01*
X118927928Y-165629819D02*
X119023166Y-165582200D01*
X119023166Y-165582200D02*
X119070785Y-165534580D01*
X119070785Y-165534580D02*
X119118404Y-165439342D01*
X119118404Y-165439342D02*
X119118404Y-165248866D01*
X119118404Y-165248866D02*
X119070785Y-165153628D01*
X119070785Y-165153628D02*
X119023166Y-165106009D01*
X119023166Y-165106009D02*
X118927928Y-165058390D01*
X84616667Y-159607200D02*
X84759524Y-159654819D01*
X84759524Y-159654819D02*
X84997619Y-159654819D01*
X84997619Y-159654819D02*
X85092857Y-159607200D01*
X85092857Y-159607200D02*
X85140476Y-159559580D01*
X85140476Y-159559580D02*
X85188095Y-159464342D01*
X85188095Y-159464342D02*
X85188095Y-159369104D01*
X85188095Y-159369104D02*
X85140476Y-159273866D01*
X85140476Y-159273866D02*
X85092857Y-159226247D01*
X85092857Y-159226247D02*
X84997619Y-159178628D01*
X84997619Y-159178628D02*
X84807143Y-159131009D01*
X84807143Y-159131009D02*
X84711905Y-159083390D01*
X84711905Y-159083390D02*
X84664286Y-159035771D01*
X84664286Y-159035771D02*
X84616667Y-158940533D01*
X84616667Y-158940533D02*
X84616667Y-158845295D01*
X84616667Y-158845295D02*
X84664286Y-158750057D01*
X84664286Y-158750057D02*
X84711905Y-158702438D01*
X84711905Y-158702438D02*
X84807143Y-158654819D01*
X84807143Y-158654819D02*
X85045238Y-158654819D01*
X85045238Y-158654819D02*
X85188095Y-158702438D01*
X85521429Y-158654819D02*
X85759524Y-159654819D01*
X85759524Y-159654819D02*
X85950000Y-158940533D01*
X85950000Y-158940533D02*
X86140476Y-159654819D01*
X86140476Y-159654819D02*
X86378572Y-158654819D01*
X86711905Y-158750057D02*
X86759524Y-158702438D01*
X86759524Y-158702438D02*
X86854762Y-158654819D01*
X86854762Y-158654819D02*
X87092857Y-158654819D01*
X87092857Y-158654819D02*
X87188095Y-158702438D01*
X87188095Y-158702438D02*
X87235714Y-158750057D01*
X87235714Y-158750057D02*
X87283333Y-158845295D01*
X87283333Y-158845295D02*
X87283333Y-158940533D01*
X87283333Y-158940533D02*
X87235714Y-159083390D01*
X87235714Y-159083390D02*
X86664286Y-159654819D01*
X86664286Y-159654819D02*
X87283333Y-159654819D01*
X122213642Y-165629819D02*
X121880309Y-165153628D01*
X121642214Y-165629819D02*
X121642214Y-164629819D01*
X121642214Y-164629819D02*
X122023166Y-164629819D01*
X122023166Y-164629819D02*
X122118404Y-164677438D01*
X122118404Y-164677438D02*
X122166023Y-164725057D01*
X122166023Y-164725057D02*
X122213642Y-164820295D01*
X122213642Y-164820295D02*
X122213642Y-164963152D01*
X122213642Y-164963152D02*
X122166023Y-165058390D01*
X122166023Y-165058390D02*
X122118404Y-165106009D01*
X122118404Y-165106009D02*
X122023166Y-165153628D01*
X122023166Y-165153628D02*
X121642214Y-165153628D01*
X123166023Y-165629819D02*
X122594595Y-165629819D01*
X122880309Y-165629819D02*
X122880309Y-164629819D01*
X122880309Y-164629819D02*
X122785071Y-164772676D01*
X122785071Y-164772676D02*
X122689833Y-164867914D01*
X122689833Y-164867914D02*
X122594595Y-164915533D01*
X123642214Y-165629819D02*
X123832690Y-165629819D01*
X123832690Y-165629819D02*
X123927928Y-165582200D01*
X123927928Y-165582200D02*
X123975547Y-165534580D01*
X123975547Y-165534580D02*
X124070785Y-165391723D01*
X124070785Y-165391723D02*
X124118404Y-165201247D01*
X124118404Y-165201247D02*
X124118404Y-164820295D01*
X124118404Y-164820295D02*
X124070785Y-164725057D01*
X124070785Y-164725057D02*
X124023166Y-164677438D01*
X124023166Y-164677438D02*
X123927928Y-164629819D01*
X123927928Y-164629819D02*
X123737452Y-164629819D01*
X123737452Y-164629819D02*
X123642214Y-164677438D01*
X123642214Y-164677438D02*
X123594595Y-164725057D01*
X123594595Y-164725057D02*
X123546976Y-164820295D01*
X123546976Y-164820295D02*
X123546976Y-165058390D01*
X123546976Y-165058390D02*
X123594595Y-165153628D01*
X123594595Y-165153628D02*
X123642214Y-165201247D01*
X123642214Y-165201247D02*
X123737452Y-165248866D01*
X123737452Y-165248866D02*
X123927928Y-165248866D01*
X123927928Y-165248866D02*
X124023166Y-165201247D01*
X124023166Y-165201247D02*
X124070785Y-165153628D01*
X124070785Y-165153628D02*
X124118404Y-165058390D01*
X127213642Y-165629819D02*
X126880309Y-165153628D01*
X126642214Y-165629819D02*
X126642214Y-164629819D01*
X126642214Y-164629819D02*
X127023166Y-164629819D01*
X127023166Y-164629819D02*
X127118404Y-164677438D01*
X127118404Y-164677438D02*
X127166023Y-164725057D01*
X127166023Y-164725057D02*
X127213642Y-164820295D01*
X127213642Y-164820295D02*
X127213642Y-164963152D01*
X127213642Y-164963152D02*
X127166023Y-165058390D01*
X127166023Y-165058390D02*
X127118404Y-165106009D01*
X127118404Y-165106009D02*
X127023166Y-165153628D01*
X127023166Y-165153628D02*
X126642214Y-165153628D01*
X127594595Y-164725057D02*
X127642214Y-164677438D01*
X127642214Y-164677438D02*
X127737452Y-164629819D01*
X127737452Y-164629819D02*
X127975547Y-164629819D01*
X127975547Y-164629819D02*
X128070785Y-164677438D01*
X128070785Y-164677438D02*
X128118404Y-164725057D01*
X128118404Y-164725057D02*
X128166023Y-164820295D01*
X128166023Y-164820295D02*
X128166023Y-164915533D01*
X128166023Y-164915533D02*
X128118404Y-165058390D01*
X128118404Y-165058390D02*
X127546976Y-165629819D01*
X127546976Y-165629819D02*
X128166023Y-165629819D01*
X128785071Y-164629819D02*
X128880309Y-164629819D01*
X128880309Y-164629819D02*
X128975547Y-164677438D01*
X128975547Y-164677438D02*
X129023166Y-164725057D01*
X129023166Y-164725057D02*
X129070785Y-164820295D01*
X129070785Y-164820295D02*
X129118404Y-165010771D01*
X129118404Y-165010771D02*
X129118404Y-165248866D01*
X129118404Y-165248866D02*
X129070785Y-165439342D01*
X129070785Y-165439342D02*
X129023166Y-165534580D01*
X129023166Y-165534580D02*
X128975547Y-165582200D01*
X128975547Y-165582200D02*
X128880309Y-165629819D01*
X128880309Y-165629819D02*
X128785071Y-165629819D01*
X128785071Y-165629819D02*
X128689833Y-165582200D01*
X128689833Y-165582200D02*
X128642214Y-165534580D01*
X128642214Y-165534580D02*
X128594595Y-165439342D01*
X128594595Y-165439342D02*
X128546976Y-165248866D01*
X128546976Y-165248866D02*
X128546976Y-165010771D01*
X128546976Y-165010771D02*
X128594595Y-164820295D01*
X128594595Y-164820295D02*
X128642214Y-164725057D01*
X128642214Y-164725057D02*
X128689833Y-164677438D01*
X128689833Y-164677438D02*
X128785071Y-164629819D01*
X67444642Y-156854819D02*
X67111309Y-156378628D01*
X66873214Y-156854819D02*
X66873214Y-155854819D01*
X66873214Y-155854819D02*
X67254166Y-155854819D01*
X67254166Y-155854819D02*
X67349404Y-155902438D01*
X67349404Y-155902438D02*
X67397023Y-155950057D01*
X67397023Y-155950057D02*
X67444642Y-156045295D01*
X67444642Y-156045295D02*
X67444642Y-156188152D01*
X67444642Y-156188152D02*
X67397023Y-156283390D01*
X67397023Y-156283390D02*
X67349404Y-156331009D01*
X67349404Y-156331009D02*
X67254166Y-156378628D01*
X67254166Y-156378628D02*
X66873214Y-156378628D01*
X67825595Y-155950057D02*
X67873214Y-155902438D01*
X67873214Y-155902438D02*
X67968452Y-155854819D01*
X67968452Y-155854819D02*
X68206547Y-155854819D01*
X68206547Y-155854819D02*
X68301785Y-155902438D01*
X68301785Y-155902438D02*
X68349404Y-155950057D01*
X68349404Y-155950057D02*
X68397023Y-156045295D01*
X68397023Y-156045295D02*
X68397023Y-156140533D01*
X68397023Y-156140533D02*
X68349404Y-156283390D01*
X68349404Y-156283390D02*
X67777976Y-156854819D01*
X67777976Y-156854819D02*
X68397023Y-156854819D01*
X68730357Y-155854819D02*
X69397023Y-155854819D01*
X69397023Y-155854819D02*
X68968452Y-156854819D01*
X84716667Y-153107200D02*
X84859524Y-153154819D01*
X84859524Y-153154819D02*
X85097619Y-153154819D01*
X85097619Y-153154819D02*
X85192857Y-153107200D01*
X85192857Y-153107200D02*
X85240476Y-153059580D01*
X85240476Y-153059580D02*
X85288095Y-152964342D01*
X85288095Y-152964342D02*
X85288095Y-152869104D01*
X85288095Y-152869104D02*
X85240476Y-152773866D01*
X85240476Y-152773866D02*
X85192857Y-152726247D01*
X85192857Y-152726247D02*
X85097619Y-152678628D01*
X85097619Y-152678628D02*
X84907143Y-152631009D01*
X84907143Y-152631009D02*
X84811905Y-152583390D01*
X84811905Y-152583390D02*
X84764286Y-152535771D01*
X84764286Y-152535771D02*
X84716667Y-152440533D01*
X84716667Y-152440533D02*
X84716667Y-152345295D01*
X84716667Y-152345295D02*
X84764286Y-152250057D01*
X84764286Y-152250057D02*
X84811905Y-152202438D01*
X84811905Y-152202438D02*
X84907143Y-152154819D01*
X84907143Y-152154819D02*
X85145238Y-152154819D01*
X85145238Y-152154819D02*
X85288095Y-152202438D01*
X85621429Y-152154819D02*
X85859524Y-153154819D01*
X85859524Y-153154819D02*
X86050000Y-152440533D01*
X86050000Y-152440533D02*
X86240476Y-153154819D01*
X86240476Y-153154819D02*
X86478572Y-152154819D01*
X87383333Y-153154819D02*
X86811905Y-153154819D01*
X87097619Y-153154819D02*
X87097619Y-152154819D01*
X87097619Y-152154819D02*
X87002381Y-152297676D01*
X87002381Y-152297676D02*
X86907143Y-152392914D01*
X86907143Y-152392914D02*
X86811905Y-152440533D01*
X67967261Y-165150057D02*
X67872023Y-165102438D01*
X67872023Y-165102438D02*
X67776785Y-165007200D01*
X67776785Y-165007200D02*
X67633928Y-164864342D01*
X67633928Y-164864342D02*
X67538690Y-164816723D01*
X67538690Y-164816723D02*
X67443452Y-164816723D01*
X67491071Y-165054819D02*
X67395833Y-165007200D01*
X67395833Y-165007200D02*
X67300595Y-164911961D01*
X67300595Y-164911961D02*
X67252976Y-164721485D01*
X67252976Y-164721485D02*
X67252976Y-164388152D01*
X67252976Y-164388152D02*
X67300595Y-164197676D01*
X67300595Y-164197676D02*
X67395833Y-164102438D01*
X67395833Y-164102438D02*
X67491071Y-164054819D01*
X67491071Y-164054819D02*
X67681547Y-164054819D01*
X67681547Y-164054819D02*
X67776785Y-164102438D01*
X67776785Y-164102438D02*
X67872023Y-164197676D01*
X67872023Y-164197676D02*
X67919642Y-164388152D01*
X67919642Y-164388152D02*
X67919642Y-164721485D01*
X67919642Y-164721485D02*
X67872023Y-164911961D01*
X67872023Y-164911961D02*
X67776785Y-165007200D01*
X67776785Y-165007200D02*
X67681547Y-165054819D01*
X67681547Y-165054819D02*
X67491071Y-165054819D01*
X68252976Y-164054819D02*
X68872023Y-164054819D01*
X68872023Y-164054819D02*
X68538690Y-164435771D01*
X68538690Y-164435771D02*
X68681547Y-164435771D01*
X68681547Y-164435771D02*
X68776785Y-164483390D01*
X68776785Y-164483390D02*
X68824404Y-164531009D01*
X68824404Y-164531009D02*
X68872023Y-164626247D01*
X68872023Y-164626247D02*
X68872023Y-164864342D01*
X68872023Y-164864342D02*
X68824404Y-164959580D01*
X68824404Y-164959580D02*
X68776785Y-165007200D01*
X68776785Y-165007200D02*
X68681547Y-165054819D01*
X68681547Y-165054819D02*
X68395833Y-165054819D01*
X68395833Y-165054819D02*
X68300595Y-165007200D01*
X68300595Y-165007200D02*
X68252976Y-164959580D01*
X89304819Y-155555357D02*
X88828628Y-155888690D01*
X89304819Y-156126785D02*
X88304819Y-156126785D01*
X88304819Y-156126785D02*
X88304819Y-155745833D01*
X88304819Y-155745833D02*
X88352438Y-155650595D01*
X88352438Y-155650595D02*
X88400057Y-155602976D01*
X88400057Y-155602976D02*
X88495295Y-155555357D01*
X88495295Y-155555357D02*
X88638152Y-155555357D01*
X88638152Y-155555357D02*
X88733390Y-155602976D01*
X88733390Y-155602976D02*
X88781009Y-155650595D01*
X88781009Y-155650595D02*
X88828628Y-155745833D01*
X88828628Y-155745833D02*
X88828628Y-156126785D01*
X88304819Y-155222023D02*
X88304819Y-154602976D01*
X88304819Y-154602976D02*
X88685771Y-154936309D01*
X88685771Y-154936309D02*
X88685771Y-154793452D01*
X88685771Y-154793452D02*
X88733390Y-154698214D01*
X88733390Y-154698214D02*
X88781009Y-154650595D01*
X88781009Y-154650595D02*
X88876247Y-154602976D01*
X88876247Y-154602976D02*
X89114342Y-154602976D01*
X89114342Y-154602976D02*
X89209580Y-154650595D01*
X89209580Y-154650595D02*
X89257200Y-154698214D01*
X89257200Y-154698214D02*
X89304819Y-154793452D01*
X89304819Y-154793452D02*
X89304819Y-155079166D01*
X89304819Y-155079166D02*
X89257200Y-155174404D01*
X89257200Y-155174404D02*
X89209580Y-155222023D01*
X88304819Y-153983928D02*
X88304819Y-153888690D01*
X88304819Y-153888690D02*
X88352438Y-153793452D01*
X88352438Y-153793452D02*
X88400057Y-153745833D01*
X88400057Y-153745833D02*
X88495295Y-153698214D01*
X88495295Y-153698214D02*
X88685771Y-153650595D01*
X88685771Y-153650595D02*
X88923866Y-153650595D01*
X88923866Y-153650595D02*
X89114342Y-153698214D01*
X89114342Y-153698214D02*
X89209580Y-153745833D01*
X89209580Y-153745833D02*
X89257200Y-153793452D01*
X89257200Y-153793452D02*
X89304819Y-153888690D01*
X89304819Y-153888690D02*
X89304819Y-153983928D01*
X89304819Y-153983928D02*
X89257200Y-154079166D01*
X89257200Y-154079166D02*
X89209580Y-154126785D01*
X89209580Y-154126785D02*
X89114342Y-154174404D01*
X89114342Y-154174404D02*
X88923866Y-154222023D01*
X88923866Y-154222023D02*
X88685771Y-154222023D01*
X88685771Y-154222023D02*
X88495295Y-154174404D01*
X88495295Y-154174404D02*
X88400057Y-154126785D01*
X88400057Y-154126785D02*
X88352438Y-154079166D01*
X88352438Y-154079166D02*
X88304819Y-153983928D01*
X93245833Y-144804819D02*
X92912500Y-144328628D01*
X92674405Y-144804819D02*
X92674405Y-143804819D01*
X92674405Y-143804819D02*
X93055357Y-143804819D01*
X93055357Y-143804819D02*
X93150595Y-143852438D01*
X93150595Y-143852438D02*
X93198214Y-143900057D01*
X93198214Y-143900057D02*
X93245833Y-143995295D01*
X93245833Y-143995295D02*
X93245833Y-144138152D01*
X93245833Y-144138152D02*
X93198214Y-144233390D01*
X93198214Y-144233390D02*
X93150595Y-144281009D01*
X93150595Y-144281009D02*
X93055357Y-144328628D01*
X93055357Y-144328628D02*
X92674405Y-144328628D01*
X93817262Y-144233390D02*
X93722024Y-144185771D01*
X93722024Y-144185771D02*
X93674405Y-144138152D01*
X93674405Y-144138152D02*
X93626786Y-144042914D01*
X93626786Y-144042914D02*
X93626786Y-143995295D01*
X93626786Y-143995295D02*
X93674405Y-143900057D01*
X93674405Y-143900057D02*
X93722024Y-143852438D01*
X93722024Y-143852438D02*
X93817262Y-143804819D01*
X93817262Y-143804819D02*
X94007738Y-143804819D01*
X94007738Y-143804819D02*
X94102976Y-143852438D01*
X94102976Y-143852438D02*
X94150595Y-143900057D01*
X94150595Y-143900057D02*
X94198214Y-143995295D01*
X94198214Y-143995295D02*
X94198214Y-144042914D01*
X94198214Y-144042914D02*
X94150595Y-144138152D01*
X94150595Y-144138152D02*
X94102976Y-144185771D01*
X94102976Y-144185771D02*
X94007738Y-144233390D01*
X94007738Y-144233390D02*
X93817262Y-144233390D01*
X93817262Y-144233390D02*
X93722024Y-144281009D01*
X93722024Y-144281009D02*
X93674405Y-144328628D01*
X93674405Y-144328628D02*
X93626786Y-144423866D01*
X93626786Y-144423866D02*
X93626786Y-144614342D01*
X93626786Y-144614342D02*
X93674405Y-144709580D01*
X93674405Y-144709580D02*
X93722024Y-144757200D01*
X93722024Y-144757200D02*
X93817262Y-144804819D01*
X93817262Y-144804819D02*
X94007738Y-144804819D01*
X94007738Y-144804819D02*
X94102976Y-144757200D01*
X94102976Y-144757200D02*
X94150595Y-144709580D01*
X94150595Y-144709580D02*
X94198214Y-144614342D01*
X94198214Y-144614342D02*
X94198214Y-144423866D01*
X94198214Y-144423866D02*
X94150595Y-144328628D01*
X94150595Y-144328628D02*
X94102976Y-144281009D01*
X94102976Y-144281009D02*
X94007738Y-144233390D01*
X93245833Y-147804819D02*
X92912500Y-147328628D01*
X92674405Y-147804819D02*
X92674405Y-146804819D01*
X92674405Y-146804819D02*
X93055357Y-146804819D01*
X93055357Y-146804819D02*
X93150595Y-146852438D01*
X93150595Y-146852438D02*
X93198214Y-146900057D01*
X93198214Y-146900057D02*
X93245833Y-146995295D01*
X93245833Y-146995295D02*
X93245833Y-147138152D01*
X93245833Y-147138152D02*
X93198214Y-147233390D01*
X93198214Y-147233390D02*
X93150595Y-147281009D01*
X93150595Y-147281009D02*
X93055357Y-147328628D01*
X93055357Y-147328628D02*
X92674405Y-147328628D01*
X94102976Y-146804819D02*
X93912500Y-146804819D01*
X93912500Y-146804819D02*
X93817262Y-146852438D01*
X93817262Y-146852438D02*
X93769643Y-146900057D01*
X93769643Y-146900057D02*
X93674405Y-147042914D01*
X93674405Y-147042914D02*
X93626786Y-147233390D01*
X93626786Y-147233390D02*
X93626786Y-147614342D01*
X93626786Y-147614342D02*
X93674405Y-147709580D01*
X93674405Y-147709580D02*
X93722024Y-147757200D01*
X93722024Y-147757200D02*
X93817262Y-147804819D01*
X93817262Y-147804819D02*
X94007738Y-147804819D01*
X94007738Y-147804819D02*
X94102976Y-147757200D01*
X94102976Y-147757200D02*
X94150595Y-147709580D01*
X94150595Y-147709580D02*
X94198214Y-147614342D01*
X94198214Y-147614342D02*
X94198214Y-147376247D01*
X94198214Y-147376247D02*
X94150595Y-147281009D01*
X94150595Y-147281009D02*
X94102976Y-147233390D01*
X94102976Y-147233390D02*
X94007738Y-147185771D01*
X94007738Y-147185771D02*
X93817262Y-147185771D01*
X93817262Y-147185771D02*
X93722024Y-147233390D01*
X93722024Y-147233390D02*
X93674405Y-147281009D01*
X93674405Y-147281009D02*
X93626786Y-147376247D01*
X80944642Y-136804819D02*
X80611309Y-136328628D01*
X80373214Y-136804819D02*
X80373214Y-135804819D01*
X80373214Y-135804819D02*
X80754166Y-135804819D01*
X80754166Y-135804819D02*
X80849404Y-135852438D01*
X80849404Y-135852438D02*
X80897023Y-135900057D01*
X80897023Y-135900057D02*
X80944642Y-135995295D01*
X80944642Y-135995295D02*
X80944642Y-136138152D01*
X80944642Y-136138152D02*
X80897023Y-136233390D01*
X80897023Y-136233390D02*
X80849404Y-136281009D01*
X80849404Y-136281009D02*
X80754166Y-136328628D01*
X80754166Y-136328628D02*
X80373214Y-136328628D01*
X81325595Y-135900057D02*
X81373214Y-135852438D01*
X81373214Y-135852438D02*
X81468452Y-135804819D01*
X81468452Y-135804819D02*
X81706547Y-135804819D01*
X81706547Y-135804819D02*
X81801785Y-135852438D01*
X81801785Y-135852438D02*
X81849404Y-135900057D01*
X81849404Y-135900057D02*
X81897023Y-135995295D01*
X81897023Y-135995295D02*
X81897023Y-136090533D01*
X81897023Y-136090533D02*
X81849404Y-136233390D01*
X81849404Y-136233390D02*
X81277976Y-136804819D01*
X81277976Y-136804819D02*
X81897023Y-136804819D01*
X82754166Y-135804819D02*
X82563690Y-135804819D01*
X82563690Y-135804819D02*
X82468452Y-135852438D01*
X82468452Y-135852438D02*
X82420833Y-135900057D01*
X82420833Y-135900057D02*
X82325595Y-136042914D01*
X82325595Y-136042914D02*
X82277976Y-136233390D01*
X82277976Y-136233390D02*
X82277976Y-136614342D01*
X82277976Y-136614342D02*
X82325595Y-136709580D01*
X82325595Y-136709580D02*
X82373214Y-136757200D01*
X82373214Y-136757200D02*
X82468452Y-136804819D01*
X82468452Y-136804819D02*
X82658928Y-136804819D01*
X82658928Y-136804819D02*
X82754166Y-136757200D01*
X82754166Y-136757200D02*
X82801785Y-136709580D01*
X82801785Y-136709580D02*
X82849404Y-136614342D01*
X82849404Y-136614342D02*
X82849404Y-136376247D01*
X82849404Y-136376247D02*
X82801785Y-136281009D01*
X82801785Y-136281009D02*
X82754166Y-136233390D01*
X82754166Y-136233390D02*
X82658928Y-136185771D01*
X82658928Y-136185771D02*
X82468452Y-136185771D01*
X82468452Y-136185771D02*
X82373214Y-136233390D01*
X82373214Y-136233390D02*
X82325595Y-136281009D01*
X82325595Y-136281009D02*
X82277976Y-136376247D01*
X122213642Y-161129819D02*
X121880309Y-160653628D01*
X121642214Y-161129819D02*
X121642214Y-160129819D01*
X121642214Y-160129819D02*
X122023166Y-160129819D01*
X122023166Y-160129819D02*
X122118404Y-160177438D01*
X122118404Y-160177438D02*
X122166023Y-160225057D01*
X122166023Y-160225057D02*
X122213642Y-160320295D01*
X122213642Y-160320295D02*
X122213642Y-160463152D01*
X122213642Y-160463152D02*
X122166023Y-160558390D01*
X122166023Y-160558390D02*
X122118404Y-160606009D01*
X122118404Y-160606009D02*
X122023166Y-160653628D01*
X122023166Y-160653628D02*
X121642214Y-160653628D01*
X123166023Y-161129819D02*
X122594595Y-161129819D01*
X122880309Y-161129819D02*
X122880309Y-160129819D01*
X122880309Y-160129819D02*
X122785071Y-160272676D01*
X122785071Y-160272676D02*
X122689833Y-160367914D01*
X122689833Y-160367914D02*
X122594595Y-160415533D01*
X124023166Y-160463152D02*
X124023166Y-161129819D01*
X123785071Y-160082200D02*
X123546976Y-160796485D01*
X123546976Y-160796485D02*
X124166023Y-160796485D01*
X93982333Y-125798580D02*
X93934714Y-125846200D01*
X93934714Y-125846200D02*
X93791857Y-125893819D01*
X93791857Y-125893819D02*
X93696619Y-125893819D01*
X93696619Y-125893819D02*
X93553762Y-125846200D01*
X93553762Y-125846200D02*
X93458524Y-125750961D01*
X93458524Y-125750961D02*
X93410905Y-125655723D01*
X93410905Y-125655723D02*
X93363286Y-125465247D01*
X93363286Y-125465247D02*
X93363286Y-125322390D01*
X93363286Y-125322390D02*
X93410905Y-125131914D01*
X93410905Y-125131914D02*
X93458524Y-125036676D01*
X93458524Y-125036676D02*
X93553762Y-124941438D01*
X93553762Y-124941438D02*
X93696619Y-124893819D01*
X93696619Y-124893819D02*
X93791857Y-124893819D01*
X93791857Y-124893819D02*
X93934714Y-124941438D01*
X93934714Y-124941438D02*
X93982333Y-124989057D01*
X94839476Y-125227152D02*
X94839476Y-125893819D01*
X94601381Y-124846200D02*
X94363286Y-125560485D01*
X94363286Y-125560485D02*
X94982333Y-125560485D01*
X137086142Y-149140580D02*
X137038523Y-149188200D01*
X137038523Y-149188200D02*
X136895666Y-149235819D01*
X136895666Y-149235819D02*
X136800428Y-149235819D01*
X136800428Y-149235819D02*
X136657571Y-149188200D01*
X136657571Y-149188200D02*
X136562333Y-149092961D01*
X136562333Y-149092961D02*
X136514714Y-148997723D01*
X136514714Y-148997723D02*
X136467095Y-148807247D01*
X136467095Y-148807247D02*
X136467095Y-148664390D01*
X136467095Y-148664390D02*
X136514714Y-148473914D01*
X136514714Y-148473914D02*
X136562333Y-148378676D01*
X136562333Y-148378676D02*
X136657571Y-148283438D01*
X136657571Y-148283438D02*
X136800428Y-148235819D01*
X136800428Y-148235819D02*
X136895666Y-148235819D01*
X136895666Y-148235819D02*
X137038523Y-148283438D01*
X137038523Y-148283438D02*
X137086142Y-148331057D01*
X138038523Y-149235819D02*
X137467095Y-149235819D01*
X137752809Y-149235819D02*
X137752809Y-148235819D01*
X137752809Y-148235819D02*
X137657571Y-148378676D01*
X137657571Y-148378676D02*
X137562333Y-148473914D01*
X137562333Y-148473914D02*
X137467095Y-148521533D01*
X138657571Y-148235819D02*
X138752809Y-148235819D01*
X138752809Y-148235819D02*
X138848047Y-148283438D01*
X138848047Y-148283438D02*
X138895666Y-148331057D01*
X138895666Y-148331057D02*
X138943285Y-148426295D01*
X138943285Y-148426295D02*
X138990904Y-148616771D01*
X138990904Y-148616771D02*
X138990904Y-148854866D01*
X138990904Y-148854866D02*
X138943285Y-149045342D01*
X138943285Y-149045342D02*
X138895666Y-149140580D01*
X138895666Y-149140580D02*
X138848047Y-149188200D01*
X138848047Y-149188200D02*
X138752809Y-149235819D01*
X138752809Y-149235819D02*
X138657571Y-149235819D01*
X138657571Y-149235819D02*
X138562333Y-149188200D01*
X138562333Y-149188200D02*
X138514714Y-149140580D01*
X138514714Y-149140580D02*
X138467095Y-149045342D01*
X138467095Y-149045342D02*
X138419476Y-148854866D01*
X138419476Y-148854866D02*
X138419476Y-148616771D01*
X138419476Y-148616771D02*
X138467095Y-148426295D01*
X138467095Y-148426295D02*
X138514714Y-148331057D01*
X138514714Y-148331057D02*
X138562333Y-148283438D01*
X138562333Y-148283438D02*
X138657571Y-148235819D01*
X119786642Y-125378819D02*
X119453309Y-124902628D01*
X119215214Y-125378819D02*
X119215214Y-124378819D01*
X119215214Y-124378819D02*
X119596166Y-124378819D01*
X119596166Y-124378819D02*
X119691404Y-124426438D01*
X119691404Y-124426438D02*
X119739023Y-124474057D01*
X119739023Y-124474057D02*
X119786642Y-124569295D01*
X119786642Y-124569295D02*
X119786642Y-124712152D01*
X119786642Y-124712152D02*
X119739023Y-124807390D01*
X119739023Y-124807390D02*
X119691404Y-124855009D01*
X119691404Y-124855009D02*
X119596166Y-124902628D01*
X119596166Y-124902628D02*
X119215214Y-124902628D01*
X120739023Y-125378819D02*
X120167595Y-125378819D01*
X120453309Y-125378819D02*
X120453309Y-124378819D01*
X120453309Y-124378819D02*
X120358071Y-124521676D01*
X120358071Y-124521676D02*
X120262833Y-124616914D01*
X120262833Y-124616914D02*
X120167595Y-124664533D01*
X121358071Y-124378819D02*
X121453309Y-124378819D01*
X121453309Y-124378819D02*
X121548547Y-124426438D01*
X121548547Y-124426438D02*
X121596166Y-124474057D01*
X121596166Y-124474057D02*
X121643785Y-124569295D01*
X121643785Y-124569295D02*
X121691404Y-124759771D01*
X121691404Y-124759771D02*
X121691404Y-124997866D01*
X121691404Y-124997866D02*
X121643785Y-125188342D01*
X121643785Y-125188342D02*
X121596166Y-125283580D01*
X121596166Y-125283580D02*
X121548547Y-125331200D01*
X121548547Y-125331200D02*
X121453309Y-125378819D01*
X121453309Y-125378819D02*
X121358071Y-125378819D01*
X121358071Y-125378819D02*
X121262833Y-125331200D01*
X121262833Y-125331200D02*
X121215214Y-125283580D01*
X121215214Y-125283580D02*
X121167595Y-125188342D01*
X121167595Y-125188342D02*
X121119976Y-124997866D01*
X121119976Y-124997866D02*
X121119976Y-124759771D01*
X121119976Y-124759771D02*
X121167595Y-124569295D01*
X121167595Y-124569295D02*
X121215214Y-124474057D01*
X121215214Y-124474057D02*
X121262833Y-124426438D01*
X121262833Y-124426438D02*
X121358071Y-124378819D01*
X118925642Y-136927819D02*
X118592309Y-136451628D01*
X118354214Y-136927819D02*
X118354214Y-135927819D01*
X118354214Y-135927819D02*
X118735166Y-135927819D01*
X118735166Y-135927819D02*
X118830404Y-135975438D01*
X118830404Y-135975438D02*
X118878023Y-136023057D01*
X118878023Y-136023057D02*
X118925642Y-136118295D01*
X118925642Y-136118295D02*
X118925642Y-136261152D01*
X118925642Y-136261152D02*
X118878023Y-136356390D01*
X118878023Y-136356390D02*
X118830404Y-136404009D01*
X118830404Y-136404009D02*
X118735166Y-136451628D01*
X118735166Y-136451628D02*
X118354214Y-136451628D01*
X119306595Y-136023057D02*
X119354214Y-135975438D01*
X119354214Y-135975438D02*
X119449452Y-135927819D01*
X119449452Y-135927819D02*
X119687547Y-135927819D01*
X119687547Y-135927819D02*
X119782785Y-135975438D01*
X119782785Y-135975438D02*
X119830404Y-136023057D01*
X119830404Y-136023057D02*
X119878023Y-136118295D01*
X119878023Y-136118295D02*
X119878023Y-136213533D01*
X119878023Y-136213533D02*
X119830404Y-136356390D01*
X119830404Y-136356390D02*
X119258976Y-136927819D01*
X119258976Y-136927819D02*
X119878023Y-136927819D01*
X120211357Y-135927819D02*
X120830404Y-135927819D01*
X120830404Y-135927819D02*
X120497071Y-136308771D01*
X120497071Y-136308771D02*
X120639928Y-136308771D01*
X120639928Y-136308771D02*
X120735166Y-136356390D01*
X120735166Y-136356390D02*
X120782785Y-136404009D01*
X120782785Y-136404009D02*
X120830404Y-136499247D01*
X120830404Y-136499247D02*
X120830404Y-136737342D01*
X120830404Y-136737342D02*
X120782785Y-136832580D01*
X120782785Y-136832580D02*
X120735166Y-136880200D01*
X120735166Y-136880200D02*
X120639928Y-136927819D01*
X120639928Y-136927819D02*
X120354214Y-136927819D01*
X120354214Y-136927819D02*
X120258976Y-136880200D01*
X120258976Y-136880200D02*
X120211357Y-136832580D01*
X97383333Y-151179580D02*
X97335714Y-151227200D01*
X97335714Y-151227200D02*
X97192857Y-151274819D01*
X97192857Y-151274819D02*
X97097619Y-151274819D01*
X97097619Y-151274819D02*
X96954762Y-151227200D01*
X96954762Y-151227200D02*
X96859524Y-151131961D01*
X96859524Y-151131961D02*
X96811905Y-151036723D01*
X96811905Y-151036723D02*
X96764286Y-150846247D01*
X96764286Y-150846247D02*
X96764286Y-150703390D01*
X96764286Y-150703390D02*
X96811905Y-150512914D01*
X96811905Y-150512914D02*
X96859524Y-150417676D01*
X96859524Y-150417676D02*
X96954762Y-150322438D01*
X96954762Y-150322438D02*
X97097619Y-150274819D01*
X97097619Y-150274819D02*
X97192857Y-150274819D01*
X97192857Y-150274819D02*
X97335714Y-150322438D01*
X97335714Y-150322438D02*
X97383333Y-150370057D01*
X98240476Y-150274819D02*
X98050000Y-150274819D01*
X98050000Y-150274819D02*
X97954762Y-150322438D01*
X97954762Y-150322438D02*
X97907143Y-150370057D01*
X97907143Y-150370057D02*
X97811905Y-150512914D01*
X97811905Y-150512914D02*
X97764286Y-150703390D01*
X97764286Y-150703390D02*
X97764286Y-151084342D01*
X97764286Y-151084342D02*
X97811905Y-151179580D01*
X97811905Y-151179580D02*
X97859524Y-151227200D01*
X97859524Y-151227200D02*
X97954762Y-151274819D01*
X97954762Y-151274819D02*
X98145238Y-151274819D01*
X98145238Y-151274819D02*
X98240476Y-151227200D01*
X98240476Y-151227200D02*
X98288095Y-151179580D01*
X98288095Y-151179580D02*
X98335714Y-151084342D01*
X98335714Y-151084342D02*
X98335714Y-150846247D01*
X98335714Y-150846247D02*
X98288095Y-150751009D01*
X98288095Y-150751009D02*
X98240476Y-150703390D01*
X98240476Y-150703390D02*
X98145238Y-150655771D01*
X98145238Y-150655771D02*
X97954762Y-150655771D01*
X97954762Y-150655771D02*
X97859524Y-150703390D01*
X97859524Y-150703390D02*
X97811905Y-150751009D01*
X97811905Y-150751009D02*
X97764286Y-150846247D01*
X104248166Y-122041319D02*
X104248166Y-122755604D01*
X104248166Y-122755604D02*
X104200547Y-122898461D01*
X104200547Y-122898461D02*
X104105309Y-122993700D01*
X104105309Y-122993700D02*
X103962452Y-123041319D01*
X103962452Y-123041319D02*
X103867214Y-123041319D01*
X104676738Y-122136557D02*
X104724357Y-122088938D01*
X104724357Y-122088938D02*
X104819595Y-122041319D01*
X104819595Y-122041319D02*
X105057690Y-122041319D01*
X105057690Y-122041319D02*
X105152928Y-122088938D01*
X105152928Y-122088938D02*
X105200547Y-122136557D01*
X105200547Y-122136557D02*
X105248166Y-122231795D01*
X105248166Y-122231795D02*
X105248166Y-122327033D01*
X105248166Y-122327033D02*
X105200547Y-122469890D01*
X105200547Y-122469890D02*
X104629119Y-123041319D01*
X104629119Y-123041319D02*
X105248166Y-123041319D01*
X70833333Y-128804819D02*
X70500000Y-128328628D01*
X70261905Y-128804819D02*
X70261905Y-127804819D01*
X70261905Y-127804819D02*
X70642857Y-127804819D01*
X70642857Y-127804819D02*
X70738095Y-127852438D01*
X70738095Y-127852438D02*
X70785714Y-127900057D01*
X70785714Y-127900057D02*
X70833333Y-127995295D01*
X70833333Y-127995295D02*
X70833333Y-128138152D01*
X70833333Y-128138152D02*
X70785714Y-128233390D01*
X70785714Y-128233390D02*
X70738095Y-128281009D01*
X70738095Y-128281009D02*
X70642857Y-128328628D01*
X70642857Y-128328628D02*
X70261905Y-128328628D01*
X71738095Y-127804819D02*
X71261905Y-127804819D01*
X71261905Y-127804819D02*
X71214286Y-128281009D01*
X71214286Y-128281009D02*
X71261905Y-128233390D01*
X71261905Y-128233390D02*
X71357143Y-128185771D01*
X71357143Y-128185771D02*
X71595238Y-128185771D01*
X71595238Y-128185771D02*
X71690476Y-128233390D01*
X71690476Y-128233390D02*
X71738095Y-128281009D01*
X71738095Y-128281009D02*
X71785714Y-128376247D01*
X71785714Y-128376247D02*
X71785714Y-128614342D01*
X71785714Y-128614342D02*
X71738095Y-128709580D01*
X71738095Y-128709580D02*
X71690476Y-128757200D01*
X71690476Y-128757200D02*
X71595238Y-128804819D01*
X71595238Y-128804819D02*
X71357143Y-128804819D01*
X71357143Y-128804819D02*
X71261905Y-128757200D01*
X71261905Y-128757200D02*
X71214286Y-128709580D01*
X67283333Y-132679580D02*
X67235714Y-132727200D01*
X67235714Y-132727200D02*
X67092857Y-132774819D01*
X67092857Y-132774819D02*
X66997619Y-132774819D01*
X66997619Y-132774819D02*
X66854762Y-132727200D01*
X66854762Y-132727200D02*
X66759524Y-132631961D01*
X66759524Y-132631961D02*
X66711905Y-132536723D01*
X66711905Y-132536723D02*
X66664286Y-132346247D01*
X66664286Y-132346247D02*
X66664286Y-132203390D01*
X66664286Y-132203390D02*
X66711905Y-132012914D01*
X66711905Y-132012914D02*
X66759524Y-131917676D01*
X66759524Y-131917676D02*
X66854762Y-131822438D01*
X66854762Y-131822438D02*
X66997619Y-131774819D01*
X66997619Y-131774819D02*
X67092857Y-131774819D01*
X67092857Y-131774819D02*
X67235714Y-131822438D01*
X67235714Y-131822438D02*
X67283333Y-131870057D01*
X67664286Y-131870057D02*
X67711905Y-131822438D01*
X67711905Y-131822438D02*
X67807143Y-131774819D01*
X67807143Y-131774819D02*
X68045238Y-131774819D01*
X68045238Y-131774819D02*
X68140476Y-131822438D01*
X68140476Y-131822438D02*
X68188095Y-131870057D01*
X68188095Y-131870057D02*
X68235714Y-131965295D01*
X68235714Y-131965295D02*
X68235714Y-132060533D01*
X68235714Y-132060533D02*
X68188095Y-132203390D01*
X68188095Y-132203390D02*
X67616667Y-132774819D01*
X67616667Y-132774819D02*
X68235714Y-132774819D01*
X97245833Y-144804819D02*
X96912500Y-144328628D01*
X96674405Y-144804819D02*
X96674405Y-143804819D01*
X96674405Y-143804819D02*
X97055357Y-143804819D01*
X97055357Y-143804819D02*
X97150595Y-143852438D01*
X97150595Y-143852438D02*
X97198214Y-143900057D01*
X97198214Y-143900057D02*
X97245833Y-143995295D01*
X97245833Y-143995295D02*
X97245833Y-144138152D01*
X97245833Y-144138152D02*
X97198214Y-144233390D01*
X97198214Y-144233390D02*
X97150595Y-144281009D01*
X97150595Y-144281009D02*
X97055357Y-144328628D01*
X97055357Y-144328628D02*
X96674405Y-144328628D01*
X97722024Y-144804819D02*
X97912500Y-144804819D01*
X97912500Y-144804819D02*
X98007738Y-144757200D01*
X98007738Y-144757200D02*
X98055357Y-144709580D01*
X98055357Y-144709580D02*
X98150595Y-144566723D01*
X98150595Y-144566723D02*
X98198214Y-144376247D01*
X98198214Y-144376247D02*
X98198214Y-143995295D01*
X98198214Y-143995295D02*
X98150595Y-143900057D01*
X98150595Y-143900057D02*
X98102976Y-143852438D01*
X98102976Y-143852438D02*
X98007738Y-143804819D01*
X98007738Y-143804819D02*
X97817262Y-143804819D01*
X97817262Y-143804819D02*
X97722024Y-143852438D01*
X97722024Y-143852438D02*
X97674405Y-143900057D01*
X97674405Y-143900057D02*
X97626786Y-143995295D01*
X97626786Y-143995295D02*
X97626786Y-144233390D01*
X97626786Y-144233390D02*
X97674405Y-144328628D01*
X97674405Y-144328628D02*
X97722024Y-144376247D01*
X97722024Y-144376247D02*
X97817262Y-144423866D01*
X97817262Y-144423866D02*
X98007738Y-144423866D01*
X98007738Y-144423866D02*
X98102976Y-144376247D01*
X98102976Y-144376247D02*
X98150595Y-144328628D01*
X98150595Y-144328628D02*
X98198214Y-144233390D01*
X96711905Y-139104819D02*
X96711905Y-138104819D01*
X96711905Y-138104819D02*
X96950000Y-138104819D01*
X96950000Y-138104819D02*
X97092857Y-138152438D01*
X97092857Y-138152438D02*
X97188095Y-138247676D01*
X97188095Y-138247676D02*
X97235714Y-138342914D01*
X97235714Y-138342914D02*
X97283333Y-138533390D01*
X97283333Y-138533390D02*
X97283333Y-138676247D01*
X97283333Y-138676247D02*
X97235714Y-138866723D01*
X97235714Y-138866723D02*
X97188095Y-138961961D01*
X97188095Y-138961961D02*
X97092857Y-139057200D01*
X97092857Y-139057200D02*
X96950000Y-139104819D01*
X96950000Y-139104819D02*
X96711905Y-139104819D01*
X97854762Y-138533390D02*
X97759524Y-138485771D01*
X97759524Y-138485771D02*
X97711905Y-138438152D01*
X97711905Y-138438152D02*
X97664286Y-138342914D01*
X97664286Y-138342914D02*
X97664286Y-138295295D01*
X97664286Y-138295295D02*
X97711905Y-138200057D01*
X97711905Y-138200057D02*
X97759524Y-138152438D01*
X97759524Y-138152438D02*
X97854762Y-138104819D01*
X97854762Y-138104819D02*
X98045238Y-138104819D01*
X98045238Y-138104819D02*
X98140476Y-138152438D01*
X98140476Y-138152438D02*
X98188095Y-138200057D01*
X98188095Y-138200057D02*
X98235714Y-138295295D01*
X98235714Y-138295295D02*
X98235714Y-138342914D01*
X98235714Y-138342914D02*
X98188095Y-138438152D01*
X98188095Y-138438152D02*
X98140476Y-138485771D01*
X98140476Y-138485771D02*
X98045238Y-138533390D01*
X98045238Y-138533390D02*
X97854762Y-138533390D01*
X97854762Y-138533390D02*
X97759524Y-138581009D01*
X97759524Y-138581009D02*
X97711905Y-138628628D01*
X97711905Y-138628628D02*
X97664286Y-138723866D01*
X97664286Y-138723866D02*
X97664286Y-138914342D01*
X97664286Y-138914342D02*
X97711905Y-139009580D01*
X97711905Y-139009580D02*
X97759524Y-139057200D01*
X97759524Y-139057200D02*
X97854762Y-139104819D01*
X97854762Y-139104819D02*
X98045238Y-139104819D01*
X98045238Y-139104819D02*
X98140476Y-139057200D01*
X98140476Y-139057200D02*
X98188095Y-139009580D01*
X98188095Y-139009580D02*
X98235714Y-138914342D01*
X98235714Y-138914342D02*
X98235714Y-138723866D01*
X98235714Y-138723866D02*
X98188095Y-138628628D01*
X98188095Y-138628628D02*
X98140476Y-138581009D01*
X98140476Y-138581009D02*
X98045238Y-138533390D01*
X101383333Y-151179580D02*
X101335714Y-151227200D01*
X101335714Y-151227200D02*
X101192857Y-151274819D01*
X101192857Y-151274819D02*
X101097619Y-151274819D01*
X101097619Y-151274819D02*
X100954762Y-151227200D01*
X100954762Y-151227200D02*
X100859524Y-151131961D01*
X100859524Y-151131961D02*
X100811905Y-151036723D01*
X100811905Y-151036723D02*
X100764286Y-150846247D01*
X100764286Y-150846247D02*
X100764286Y-150703390D01*
X100764286Y-150703390D02*
X100811905Y-150512914D01*
X100811905Y-150512914D02*
X100859524Y-150417676D01*
X100859524Y-150417676D02*
X100954762Y-150322438D01*
X100954762Y-150322438D02*
X101097619Y-150274819D01*
X101097619Y-150274819D02*
X101192857Y-150274819D01*
X101192857Y-150274819D02*
X101335714Y-150322438D01*
X101335714Y-150322438D02*
X101383333Y-150370057D01*
X101716667Y-150274819D02*
X102383333Y-150274819D01*
X102383333Y-150274819D02*
X101954762Y-151274819D01*
X53920833Y-130804819D02*
X53587500Y-130328628D01*
X53349405Y-130804819D02*
X53349405Y-129804819D01*
X53349405Y-129804819D02*
X53730357Y-129804819D01*
X53730357Y-129804819D02*
X53825595Y-129852438D01*
X53825595Y-129852438D02*
X53873214Y-129900057D01*
X53873214Y-129900057D02*
X53920833Y-129995295D01*
X53920833Y-129995295D02*
X53920833Y-130138152D01*
X53920833Y-130138152D02*
X53873214Y-130233390D01*
X53873214Y-130233390D02*
X53825595Y-130281009D01*
X53825595Y-130281009D02*
X53730357Y-130328628D01*
X53730357Y-130328628D02*
X53349405Y-130328628D01*
X54873214Y-130804819D02*
X54301786Y-130804819D01*
X54587500Y-130804819D02*
X54587500Y-129804819D01*
X54587500Y-129804819D02*
X54492262Y-129947676D01*
X54492262Y-129947676D02*
X54397024Y-130042914D01*
X54397024Y-130042914D02*
X54301786Y-130090533D01*
X62745833Y-128804819D02*
X62412500Y-128328628D01*
X62174405Y-128804819D02*
X62174405Y-127804819D01*
X62174405Y-127804819D02*
X62555357Y-127804819D01*
X62555357Y-127804819D02*
X62650595Y-127852438D01*
X62650595Y-127852438D02*
X62698214Y-127900057D01*
X62698214Y-127900057D02*
X62745833Y-127995295D01*
X62745833Y-127995295D02*
X62745833Y-128138152D01*
X62745833Y-128138152D02*
X62698214Y-128233390D01*
X62698214Y-128233390D02*
X62650595Y-128281009D01*
X62650595Y-128281009D02*
X62555357Y-128328628D01*
X62555357Y-128328628D02*
X62174405Y-128328628D01*
X63079167Y-127804819D02*
X63698214Y-127804819D01*
X63698214Y-127804819D02*
X63364881Y-128185771D01*
X63364881Y-128185771D02*
X63507738Y-128185771D01*
X63507738Y-128185771D02*
X63602976Y-128233390D01*
X63602976Y-128233390D02*
X63650595Y-128281009D01*
X63650595Y-128281009D02*
X63698214Y-128376247D01*
X63698214Y-128376247D02*
X63698214Y-128614342D01*
X63698214Y-128614342D02*
X63650595Y-128709580D01*
X63650595Y-128709580D02*
X63602976Y-128757200D01*
X63602976Y-128757200D02*
X63507738Y-128804819D01*
X63507738Y-128804819D02*
X63222024Y-128804819D01*
X63222024Y-128804819D02*
X63126786Y-128757200D01*
X63126786Y-128757200D02*
X63079167Y-128709580D01*
X130525333Y-124955819D02*
X130049143Y-124955819D01*
X130049143Y-124955819D02*
X130049143Y-123955819D01*
X131382476Y-124955819D02*
X130811048Y-124955819D01*
X131096762Y-124955819D02*
X131096762Y-123955819D01*
X131096762Y-123955819D02*
X131001524Y-124098676D01*
X131001524Y-124098676D02*
X130906286Y-124193914D01*
X130906286Y-124193914D02*
X130811048Y-124241533D01*
X57469047Y-161931009D02*
X57611904Y-161978628D01*
X57611904Y-161978628D02*
X57659523Y-162026247D01*
X57659523Y-162026247D02*
X57707142Y-162121485D01*
X57707142Y-162121485D02*
X57707142Y-162264342D01*
X57707142Y-162264342D02*
X57659523Y-162359580D01*
X57659523Y-162359580D02*
X57611904Y-162407200D01*
X57611904Y-162407200D02*
X57516666Y-162454819D01*
X57516666Y-162454819D02*
X57135714Y-162454819D01*
X57135714Y-162454819D02*
X57135714Y-161454819D01*
X57135714Y-161454819D02*
X57469047Y-161454819D01*
X57469047Y-161454819D02*
X57564285Y-161502438D01*
X57564285Y-161502438D02*
X57611904Y-161550057D01*
X57611904Y-161550057D02*
X57659523Y-161645295D01*
X57659523Y-161645295D02*
X57659523Y-161740533D01*
X57659523Y-161740533D02*
X57611904Y-161835771D01*
X57611904Y-161835771D02*
X57564285Y-161883390D01*
X57564285Y-161883390D02*
X57469047Y-161931009D01*
X57469047Y-161931009D02*
X57135714Y-161931009D01*
X58040476Y-161454819D02*
X58707142Y-161454819D01*
X58707142Y-161454819D02*
X58040476Y-162454819D01*
X58040476Y-162454819D02*
X58707142Y-162454819D01*
X59611904Y-162454819D02*
X59040476Y-162454819D01*
X59326190Y-162454819D02*
X59326190Y-161454819D01*
X59326190Y-161454819D02*
X59230952Y-161597676D01*
X59230952Y-161597676D02*
X59135714Y-161692914D01*
X59135714Y-161692914D02*
X59040476Y-161740533D01*
X137213642Y-165629819D02*
X136880309Y-165153628D01*
X136642214Y-165629819D02*
X136642214Y-164629819D01*
X136642214Y-164629819D02*
X137023166Y-164629819D01*
X137023166Y-164629819D02*
X137118404Y-164677438D01*
X137118404Y-164677438D02*
X137166023Y-164725057D01*
X137166023Y-164725057D02*
X137213642Y-164820295D01*
X137213642Y-164820295D02*
X137213642Y-164963152D01*
X137213642Y-164963152D02*
X137166023Y-165058390D01*
X137166023Y-165058390D02*
X137118404Y-165106009D01*
X137118404Y-165106009D02*
X137023166Y-165153628D01*
X137023166Y-165153628D02*
X136642214Y-165153628D01*
X137594595Y-164725057D02*
X137642214Y-164677438D01*
X137642214Y-164677438D02*
X137737452Y-164629819D01*
X137737452Y-164629819D02*
X137975547Y-164629819D01*
X137975547Y-164629819D02*
X138070785Y-164677438D01*
X138070785Y-164677438D02*
X138118404Y-164725057D01*
X138118404Y-164725057D02*
X138166023Y-164820295D01*
X138166023Y-164820295D02*
X138166023Y-164915533D01*
X138166023Y-164915533D02*
X138118404Y-165058390D01*
X138118404Y-165058390D02*
X137546976Y-165629819D01*
X137546976Y-165629819D02*
X138166023Y-165629819D01*
X138546976Y-164725057D02*
X138594595Y-164677438D01*
X138594595Y-164677438D02*
X138689833Y-164629819D01*
X138689833Y-164629819D02*
X138927928Y-164629819D01*
X138927928Y-164629819D02*
X139023166Y-164677438D01*
X139023166Y-164677438D02*
X139070785Y-164725057D01*
X139070785Y-164725057D02*
X139118404Y-164820295D01*
X139118404Y-164820295D02*
X139118404Y-164915533D01*
X139118404Y-164915533D02*
X139070785Y-165058390D01*
X139070785Y-165058390D02*
X138499357Y-165629819D01*
X138499357Y-165629819D02*
X139118404Y-165629819D01*
X67444642Y-159804819D02*
X67111309Y-159328628D01*
X66873214Y-159804819D02*
X66873214Y-158804819D01*
X66873214Y-158804819D02*
X67254166Y-158804819D01*
X67254166Y-158804819D02*
X67349404Y-158852438D01*
X67349404Y-158852438D02*
X67397023Y-158900057D01*
X67397023Y-158900057D02*
X67444642Y-158995295D01*
X67444642Y-158995295D02*
X67444642Y-159138152D01*
X67444642Y-159138152D02*
X67397023Y-159233390D01*
X67397023Y-159233390D02*
X67349404Y-159281009D01*
X67349404Y-159281009D02*
X67254166Y-159328628D01*
X67254166Y-159328628D02*
X66873214Y-159328628D01*
X67825595Y-158900057D02*
X67873214Y-158852438D01*
X67873214Y-158852438D02*
X67968452Y-158804819D01*
X67968452Y-158804819D02*
X68206547Y-158804819D01*
X68206547Y-158804819D02*
X68301785Y-158852438D01*
X68301785Y-158852438D02*
X68349404Y-158900057D01*
X68349404Y-158900057D02*
X68397023Y-158995295D01*
X68397023Y-158995295D02*
X68397023Y-159090533D01*
X68397023Y-159090533D02*
X68349404Y-159233390D01*
X68349404Y-159233390D02*
X67777976Y-159804819D01*
X67777976Y-159804819D02*
X68397023Y-159804819D01*
X68968452Y-159233390D02*
X68873214Y-159185771D01*
X68873214Y-159185771D02*
X68825595Y-159138152D01*
X68825595Y-159138152D02*
X68777976Y-159042914D01*
X68777976Y-159042914D02*
X68777976Y-158995295D01*
X68777976Y-158995295D02*
X68825595Y-158900057D01*
X68825595Y-158900057D02*
X68873214Y-158852438D01*
X68873214Y-158852438D02*
X68968452Y-158804819D01*
X68968452Y-158804819D02*
X69158928Y-158804819D01*
X69158928Y-158804819D02*
X69254166Y-158852438D01*
X69254166Y-158852438D02*
X69301785Y-158900057D01*
X69301785Y-158900057D02*
X69349404Y-158995295D01*
X69349404Y-158995295D02*
X69349404Y-159042914D01*
X69349404Y-159042914D02*
X69301785Y-159138152D01*
X69301785Y-159138152D02*
X69254166Y-159185771D01*
X69254166Y-159185771D02*
X69158928Y-159233390D01*
X69158928Y-159233390D02*
X68968452Y-159233390D01*
X68968452Y-159233390D02*
X68873214Y-159281009D01*
X68873214Y-159281009D02*
X68825595Y-159328628D01*
X68825595Y-159328628D02*
X68777976Y-159423866D01*
X68777976Y-159423866D02*
X68777976Y-159614342D01*
X68777976Y-159614342D02*
X68825595Y-159709580D01*
X68825595Y-159709580D02*
X68873214Y-159757200D01*
X68873214Y-159757200D02*
X68968452Y-159804819D01*
X68968452Y-159804819D02*
X69158928Y-159804819D01*
X69158928Y-159804819D02*
X69254166Y-159757200D01*
X69254166Y-159757200D02*
X69301785Y-159709580D01*
X69301785Y-159709580D02*
X69349404Y-159614342D01*
X69349404Y-159614342D02*
X69349404Y-159423866D01*
X69349404Y-159423866D02*
X69301785Y-159328628D01*
X69301785Y-159328628D02*
X69254166Y-159281009D01*
X69254166Y-159281009D02*
X69158928Y-159233390D01*
X92944642Y-139304819D02*
X92611309Y-138828628D01*
X92373214Y-139304819D02*
X92373214Y-138304819D01*
X92373214Y-138304819D02*
X92754166Y-138304819D01*
X92754166Y-138304819D02*
X92849404Y-138352438D01*
X92849404Y-138352438D02*
X92897023Y-138400057D01*
X92897023Y-138400057D02*
X92944642Y-138495295D01*
X92944642Y-138495295D02*
X92944642Y-138638152D01*
X92944642Y-138638152D02*
X92897023Y-138733390D01*
X92897023Y-138733390D02*
X92849404Y-138781009D01*
X92849404Y-138781009D02*
X92754166Y-138828628D01*
X92754166Y-138828628D02*
X92373214Y-138828628D01*
X93325595Y-138400057D02*
X93373214Y-138352438D01*
X93373214Y-138352438D02*
X93468452Y-138304819D01*
X93468452Y-138304819D02*
X93706547Y-138304819D01*
X93706547Y-138304819D02*
X93801785Y-138352438D01*
X93801785Y-138352438D02*
X93849404Y-138400057D01*
X93849404Y-138400057D02*
X93897023Y-138495295D01*
X93897023Y-138495295D02*
X93897023Y-138590533D01*
X93897023Y-138590533D02*
X93849404Y-138733390D01*
X93849404Y-138733390D02*
X93277976Y-139304819D01*
X93277976Y-139304819D02*
X93897023Y-139304819D01*
X94373214Y-139304819D02*
X94563690Y-139304819D01*
X94563690Y-139304819D02*
X94658928Y-139257200D01*
X94658928Y-139257200D02*
X94706547Y-139209580D01*
X94706547Y-139209580D02*
X94801785Y-139066723D01*
X94801785Y-139066723D02*
X94849404Y-138876247D01*
X94849404Y-138876247D02*
X94849404Y-138495295D01*
X94849404Y-138495295D02*
X94801785Y-138400057D01*
X94801785Y-138400057D02*
X94754166Y-138352438D01*
X94754166Y-138352438D02*
X94658928Y-138304819D01*
X94658928Y-138304819D02*
X94468452Y-138304819D01*
X94468452Y-138304819D02*
X94373214Y-138352438D01*
X94373214Y-138352438D02*
X94325595Y-138400057D01*
X94325595Y-138400057D02*
X94277976Y-138495295D01*
X94277976Y-138495295D02*
X94277976Y-138733390D01*
X94277976Y-138733390D02*
X94325595Y-138828628D01*
X94325595Y-138828628D02*
X94373214Y-138876247D01*
X94373214Y-138876247D02*
X94468452Y-138923866D01*
X94468452Y-138923866D02*
X94658928Y-138923866D01*
X94658928Y-138923866D02*
X94754166Y-138876247D01*
X94754166Y-138876247D02*
X94801785Y-138828628D01*
X94801785Y-138828628D02*
X94849404Y-138733390D01*
X70199405Y-120304819D02*
X70199405Y-119304819D01*
X70199405Y-119304819D02*
X70437500Y-119304819D01*
X70437500Y-119304819D02*
X70580357Y-119352438D01*
X70580357Y-119352438D02*
X70675595Y-119447676D01*
X70675595Y-119447676D02*
X70723214Y-119542914D01*
X70723214Y-119542914D02*
X70770833Y-119733390D01*
X70770833Y-119733390D02*
X70770833Y-119876247D01*
X70770833Y-119876247D02*
X70723214Y-120066723D01*
X70723214Y-120066723D02*
X70675595Y-120161961D01*
X70675595Y-120161961D02*
X70580357Y-120257200D01*
X70580357Y-120257200D02*
X70437500Y-120304819D01*
X70437500Y-120304819D02*
X70199405Y-120304819D01*
X71723214Y-120304819D02*
X71151786Y-120304819D01*
X71437500Y-120304819D02*
X71437500Y-119304819D01*
X71437500Y-119304819D02*
X71342262Y-119447676D01*
X71342262Y-119447676D02*
X71247024Y-119542914D01*
X71247024Y-119542914D02*
X71151786Y-119590533D01*
X128880905Y-144235819D02*
X128880905Y-143235819D01*
X128880905Y-143235819D02*
X129119000Y-143235819D01*
X129119000Y-143235819D02*
X129261857Y-143283438D01*
X129261857Y-143283438D02*
X129357095Y-143378676D01*
X129357095Y-143378676D02*
X129404714Y-143473914D01*
X129404714Y-143473914D02*
X129452333Y-143664390D01*
X129452333Y-143664390D02*
X129452333Y-143807247D01*
X129452333Y-143807247D02*
X129404714Y-143997723D01*
X129404714Y-143997723D02*
X129357095Y-144092961D01*
X129357095Y-144092961D02*
X129261857Y-144188200D01*
X129261857Y-144188200D02*
X129119000Y-144235819D01*
X129119000Y-144235819D02*
X128880905Y-144235819D01*
X130309476Y-143569152D02*
X130309476Y-144235819D01*
X130071381Y-143188200D02*
X129833286Y-143902485D01*
X129833286Y-143902485D02*
X130452333Y-143902485D01*
X43120419Y-125428333D02*
X43834704Y-125428333D01*
X43834704Y-125428333D02*
X43977561Y-125475952D01*
X43977561Y-125475952D02*
X44072800Y-125571190D01*
X44072800Y-125571190D02*
X44120419Y-125714047D01*
X44120419Y-125714047D02*
X44120419Y-125809285D01*
X44120419Y-124428333D02*
X44120419Y-124999761D01*
X44120419Y-124714047D02*
X43120419Y-124714047D01*
X43120419Y-124714047D02*
X43263276Y-124809285D01*
X43263276Y-124809285D02*
X43358514Y-124904523D01*
X43358514Y-124904523D02*
X43406133Y-124999761D01*
%TO.C,U2*%
D11*
X92100000Y-155000000D02*
X92100000Y-171600000D01*
X92100000Y-166200000D02*
X105300000Y-166200000D01*
X105300000Y-155000000D02*
X92100000Y-155000000D01*
X105300000Y-155000000D02*
X105300000Y-171600000D01*
X105300000Y-171600000D02*
X92100000Y-171600000D01*
D12*
X105330000Y-171600000D02*
G75*
G02*
X105270000Y-171600000I-30000J0D01*
G01*
X105270000Y-171600000D02*
G75*
G02*
X105330000Y-171600000I30000J0D01*
G01*
D11*
X105800000Y-164600000D02*
G75*
G02*
X105600000Y-164600000I-100000J0D01*
G01*
X105600000Y-164600000D02*
G75*
G02*
X105800000Y-164600000I100000J0D01*
G01*
%TO.C,R4*%
D13*
X66685436Y-129265000D02*
X67139564Y-129265000D01*
X66685436Y-130735000D02*
X67139564Y-130735000D01*
%TO.C,D9*%
X89540000Y-157937500D02*
X89540000Y-160622500D01*
X89540000Y-160622500D02*
X91460000Y-160622500D01*
X91460000Y-160622500D02*
X91460000Y-157937500D01*
%TO.C,R24*%
X81360436Y-141765000D02*
X81814564Y-141765000D01*
X81360436Y-143235000D02*
X81814564Y-143235000D01*
%TO.C,C9*%
D10*
X126669000Y-153721000D02*
X126669000Y-151841000D01*
X126819000Y-151691000D02*
X128299000Y-151691000D01*
X128299000Y-153871000D02*
X126819000Y-153871000D01*
X130159000Y-153871000D02*
X131639000Y-153871000D01*
X131639000Y-151691000D02*
X130159000Y-151691000D01*
X131789000Y-153721000D02*
X131789000Y-151841000D01*
X126669000Y-151841000D02*
G75*
G02*
X126819000Y-151691000I150000J0D01*
G01*
X126819000Y-153871000D02*
G75*
G02*
X126669000Y-153721000I0J150000D01*
G01*
X131639000Y-151691000D02*
G75*
G02*
X131789000Y-151841000I0J-150000D01*
G01*
X131789000Y-153721000D02*
G75*
G02*
X131639000Y-153871000I-150000J0D01*
G01*
D12*
X127659000Y-153581000D02*
G75*
G02*
X127599000Y-153581000I-30000J0D01*
G01*
X127599000Y-153581000D02*
G75*
G02*
X127659000Y-153581000I30000J0D01*
G01*
%TO.C,C1*%
D13*
X62688748Y-133265000D02*
X63211252Y-133265000D01*
X62688748Y-134735000D02*
X63211252Y-134735000D01*
%TO.C,U3*%
D11*
X97759000Y-121919000D02*
X100559000Y-121919000D01*
X97759000Y-122919000D02*
X97759000Y-121919000D01*
X100559000Y-121919000D02*
X100559000Y-122919000D01*
X100559000Y-122919000D02*
X97759000Y-122919000D01*
X97366550Y-123938975D02*
G75*
G02*
X97369000Y-123939000I2449J119975D01*
G01*
D12*
X97729000Y-123819000D02*
G75*
G02*
X97669000Y-123819000I-30000J0D01*
G01*
X97669000Y-123819000D02*
G75*
G02*
X97729000Y-123819000I30000J0D01*
G01*
%TO.C,R15*%
D13*
X127054436Y-161595000D02*
X128508564Y-161595000D01*
X127054436Y-163415000D02*
X128508564Y-163415000D01*
%TO.C,R11*%
X120202436Y-130259000D02*
X120656564Y-130259000D01*
X120202436Y-128789000D02*
X120656564Y-128789000D01*
%TO.C,D3*%
D10*
X118719000Y-146351000D02*
X123919000Y-146351000D01*
X118719000Y-149211000D02*
X123919000Y-149211000D01*
X120439000Y-146351000D02*
X120439000Y-149211000D01*
X123909000Y-148961000D02*
X123919000Y-149191000D01*
X123919000Y-146351000D02*
X123919000Y-146591000D01*
D12*
X118739000Y-149081000D02*
G75*
G02*
X118679000Y-149081000I-30000J0D01*
G01*
X118679000Y-149081000D02*
G75*
G02*
X118739000Y-149081000I30000J0D01*
G01*
D14*
G36*
X118797669Y-146685193D02*
G01*
X118338132Y-146680672D01*
X118341790Y-146278590D01*
X118798990Y-146278590D01*
X118797669Y-146685193D01*
G37*
G36*
X118805899Y-149283562D02*
G01*
X118346362Y-149279041D01*
X118350019Y-148876959D01*
X118807219Y-148876959D01*
X118805899Y-149283562D01*
G37*
%TO.C,D6*%
D13*
X65790000Y-171000000D02*
X65790000Y-173000000D01*
X65790000Y-171000000D02*
X69800000Y-171000000D01*
X65790000Y-173000000D02*
X69800000Y-173000000D01*
%TO.C,Q1*%
D12*
X126072000Y-129974000D02*
G75*
G02*
X126012000Y-129974000I-30000J0D01*
G01*
X126012000Y-129974000D02*
G75*
G02*
X126072000Y-129974000I30000J0D01*
G01*
D10*
X125572000Y-130054000D02*
X124112000Y-130054000D01*
X125572000Y-128064000D02*
X125572000Y-128984000D01*
X125572000Y-126994000D02*
X124112000Y-126994000D01*
X124112000Y-130054000D02*
X124112000Y-129014000D01*
X124112000Y-126994000D02*
X124112000Y-128034000D01*
%TO.C,D2*%
D13*
X69252500Y-125540000D02*
X69252500Y-127460000D01*
X69252500Y-127460000D02*
X71937500Y-127460000D01*
X71937500Y-125540000D02*
X69252500Y-125540000D01*
%TO.C,R2*%
X58185436Y-131265000D02*
X58639564Y-131265000D01*
X58185436Y-132735000D02*
X58639564Y-132735000D01*
%TO.C,C8*%
D10*
X119031000Y-151440000D02*
X119031000Y-153320000D01*
X118881000Y-153470000D02*
X117401000Y-153470000D01*
X117401000Y-151290000D02*
X118881000Y-151290000D01*
X115541000Y-151290000D02*
X114061000Y-151290000D01*
X114061000Y-153470000D02*
X115541000Y-153470000D01*
X113911000Y-151440000D02*
X113911000Y-153320000D01*
X119031000Y-153320000D02*
G75*
G02*
X118881000Y-153470000I-150000J0D01*
G01*
X118881000Y-151290000D02*
G75*
G02*
X119031000Y-151440000I0J-150000D01*
G01*
X114061000Y-153470000D02*
G75*
G02*
X113911000Y-153320000I0J150000D01*
G01*
X113911000Y-151440000D02*
G75*
G02*
X114061000Y-151290000I150000J0D01*
G01*
D12*
X118101000Y-151580000D02*
G75*
G02*
X118041000Y-151580000I-30000J0D01*
G01*
X118041000Y-151580000D02*
G75*
G02*
X118101000Y-151580000I30000J0D01*
G01*
%TO.C,R16*%
D13*
X132054436Y-161595000D02*
X133508564Y-161595000D01*
X132054436Y-163415000D02*
X133508564Y-163415000D01*
%TO.C,C3*%
X93887748Y-121884000D02*
X94410252Y-121884000D01*
X93887748Y-123354000D02*
X94410252Y-123354000D01*
%TO.C,R12*%
X129185436Y-170765000D02*
X129639564Y-170765000D01*
X129185436Y-172235000D02*
X129639564Y-172235000D01*
%TO.C,R13*%
X117129436Y-161595000D02*
X118583564Y-161595000D01*
X117129436Y-163415000D02*
X118583564Y-163415000D01*
%TO.C,C11*%
X136688748Y-170765000D02*
X137211252Y-170765000D01*
X136688748Y-172235000D02*
X137211252Y-172235000D01*
%TO.C,Q2*%
X86802500Y-144440000D02*
X88322500Y-144440000D01*
X86802500Y-144490000D02*
X86802500Y-144440000D01*
X86802500Y-146390000D02*
X86802500Y-145610000D01*
X86802500Y-147560000D02*
X86802500Y-147510000D01*
X88322500Y-144440000D02*
X88322500Y-145440000D01*
X88322500Y-146560000D02*
X88322500Y-147560000D01*
X88322500Y-147560000D02*
X86802500Y-147560000D01*
X86262500Y-145620000D02*
X86502500Y-145950000D01*
X86022500Y-145950000D01*
X86262500Y-145620000D01*
G36*
X86502500Y-145950000D02*
G01*
X86022500Y-145950000D01*
X86262500Y-145620000D01*
X86502500Y-145950000D01*
G37*
%TO.C,R7*%
X97185436Y-148265000D02*
X97639564Y-148265000D01*
X97185436Y-149735000D02*
X97639564Y-149735000D01*
%TO.C,U1*%
D12*
X60186000Y-127272000D02*
G75*
G02*
X60126000Y-127272000I-30000J0D01*
G01*
X60126000Y-127272000D02*
G75*
G02*
X60186000Y-127272000I30000J0D01*
G01*
D11*
X59746000Y-126822000D02*
G75*
G02*
X59406000Y-126822000I-170000J0D01*
G01*
X59406000Y-126822000D02*
G75*
G02*
X59746000Y-126822000I170000J0D01*
G01*
X60098227Y-123518354D02*
G75*
G02*
X60106000Y-125122000I-372227J-803646D01*
G01*
X65156000Y-126372000D02*
X60056000Y-126372000D01*
X65156000Y-122272000D02*
X65156000Y-126372000D01*
X60056000Y-125122000D02*
X60056000Y-126372000D01*
X60056000Y-123522000D02*
X60056000Y-122272000D01*
X60056000Y-122272000D02*
X65156000Y-122272000D01*
%TO.C,R21*%
D13*
X132129436Y-166095000D02*
X133583564Y-166095000D01*
X132129436Y-167915000D02*
X133583564Y-167915000D01*
%TO.C,D7*%
X54390000Y-141500000D02*
X54390000Y-143500000D01*
X54390000Y-141500000D02*
X58250000Y-141500000D01*
X54390000Y-143500000D02*
X58250000Y-143500000D01*
%TO.C,U4*%
X55727500Y-136440000D02*
X57547500Y-136440000D01*
X55727500Y-136490000D02*
X55727500Y-136440000D01*
X55727500Y-139560000D02*
X55727500Y-139510000D01*
X57547500Y-136440000D02*
X57547500Y-136490000D01*
X57547500Y-139510000D02*
X57547500Y-139560000D01*
X57547500Y-139560000D02*
X55727500Y-139560000D01*
X55187500Y-136490000D02*
X54947500Y-136160000D01*
X55427500Y-136160000D01*
X55187500Y-136490000D01*
G36*
X55187500Y-136490000D02*
G01*
X54947500Y-136160000D01*
X55427500Y-136160000D01*
X55187500Y-136490000D01*
G37*
%TO.C,R25*%
X81360436Y-145765000D02*
X81814564Y-145765000D01*
X81360436Y-147235000D02*
X81814564Y-147235000D01*
%TO.C,C5*%
X93288748Y-151765000D02*
X93811252Y-151765000D01*
X93288748Y-153235000D02*
X93811252Y-153235000D01*
%TO.C,J3*%
X138964000Y-140661000D02*
X138964000Y-137901000D01*
X136314000Y-140661000D02*
X138964000Y-140661000D01*
X136314000Y-140661000D02*
X136314000Y-137901000D01*
X136314000Y-137901000D02*
X138964000Y-137901000D01*
X135044000Y-140661000D02*
X133664000Y-140661000D01*
X133664000Y-140661000D02*
X133664000Y-139281000D01*
%TO.C,R17*%
X137129436Y-161595000D02*
X138583564Y-161595000D01*
X137129436Y-163415000D02*
X138583564Y-163415000D01*
%TO.C,D5*%
D10*
X135219000Y-146351000D02*
X140419000Y-146351000D01*
X135219000Y-149211000D02*
X140419000Y-149211000D01*
X136939000Y-146351000D02*
X136939000Y-149211000D01*
X140409000Y-148961000D02*
X140419000Y-149191000D01*
X140419000Y-146351000D02*
X140419000Y-146591000D01*
D12*
X135239000Y-149081000D02*
G75*
G02*
X135179000Y-149081000I-30000J0D01*
G01*
X135179000Y-149081000D02*
G75*
G02*
X135239000Y-149081000I30000J0D01*
G01*
D14*
G36*
X135297669Y-146685193D02*
G01*
X134838132Y-146680672D01*
X134841790Y-146278590D01*
X135298990Y-146278590D01*
X135297669Y-146685193D01*
G37*
G36*
X135305899Y-149283562D02*
G01*
X134846362Y-149279041D01*
X134850019Y-148876959D01*
X135307219Y-148876959D01*
X135305899Y-149283562D01*
G37*
%TO.C,R18*%
D13*
X117129436Y-166095000D02*
X118583564Y-166095000D01*
X117129436Y-167915000D02*
X118583564Y-167915000D01*
%TO.C,SW2*%
X83740000Y-160240000D02*
X84840000Y-160240000D01*
X83740000Y-161760000D02*
X83740000Y-161840000D01*
X87060000Y-160240000D02*
X88160000Y-160240000D01*
X88160000Y-161760000D02*
X88160000Y-161840000D01*
%TO.C,R19*%
X122129436Y-166095000D02*
X123583564Y-166095000D01*
X122129436Y-167915000D02*
X123583564Y-167915000D01*
%TO.C,R20*%
X127129436Y-166095000D02*
X128583564Y-166095000D01*
X127129436Y-167915000D02*
X128583564Y-167915000D01*
%TO.C,R27*%
X67860436Y-157315000D02*
X68314564Y-157315000D01*
X67860436Y-158785000D02*
X68314564Y-158785000D01*
%TO.C,SW1*%
X83840000Y-153740000D02*
X84940000Y-153740000D01*
X83840000Y-155260000D02*
X83840000Y-155340000D01*
X87160000Y-153740000D02*
X88260000Y-153740000D01*
X88260000Y-155260000D02*
X88260000Y-155340000D01*
%TO.C,Q3*%
X67302500Y-165440000D02*
X68822500Y-165440000D01*
X67302500Y-165490000D02*
X67302500Y-165440000D01*
X67302500Y-167390000D02*
X67302500Y-166610000D01*
X67302500Y-168560000D02*
X67302500Y-168510000D01*
X68822500Y-165440000D02*
X68822500Y-166440000D01*
X68822500Y-167560000D02*
X68822500Y-168560000D01*
X68822500Y-168560000D02*
X67302500Y-168560000D01*
X66762500Y-166620000D02*
X67002500Y-166950000D01*
X66522500Y-166950000D01*
X66762500Y-166620000D01*
G36*
X67002500Y-166950000D02*
G01*
X66522500Y-166950000D01*
X66762500Y-166620000D01*
X67002500Y-166950000D01*
G37*
%TO.C,R30*%
X89765000Y-155139564D02*
X89765000Y-154685436D01*
X91235000Y-155139564D02*
X91235000Y-154685436D01*
%TO.C,R8*%
X93185436Y-145265000D02*
X93639564Y-145265000D01*
X93185436Y-146735000D02*
X93639564Y-146735000D01*
%TO.C,R6*%
X93185436Y-148265000D02*
X93639564Y-148265000D01*
X93185436Y-149735000D02*
X93639564Y-149735000D01*
%TO.C,R26*%
X81360436Y-137265000D02*
X81814564Y-137265000D01*
X81360436Y-138735000D02*
X81814564Y-138735000D01*
%TO.C,R14*%
X122129436Y-161595000D02*
X123583564Y-161595000D01*
X122129436Y-163415000D02*
X123583564Y-163415000D01*
%TO.C,C4*%
X93887748Y-126384000D02*
X94410252Y-126384000D01*
X93887748Y-127854000D02*
X94410252Y-127854000D01*
%TO.C,C10*%
D10*
X135169000Y-153721000D02*
X135169000Y-151841000D01*
X135319000Y-151691000D02*
X136799000Y-151691000D01*
X136799000Y-153871000D02*
X135319000Y-153871000D01*
X138659000Y-153871000D02*
X140139000Y-153871000D01*
X140139000Y-151691000D02*
X138659000Y-151691000D01*
X140289000Y-153721000D02*
X140289000Y-151841000D01*
X135169000Y-151841000D02*
G75*
G02*
X135319000Y-151691000I150000J0D01*
G01*
X135319000Y-153871000D02*
G75*
G02*
X135169000Y-153721000I0J150000D01*
G01*
X140139000Y-151691000D02*
G75*
G02*
X140289000Y-151841000I0J-150000D01*
G01*
X140289000Y-153721000D02*
G75*
G02*
X140139000Y-153871000I-150000J0D01*
G01*
D12*
X136159000Y-153581000D02*
G75*
G02*
X136099000Y-153581000I-30000J0D01*
G01*
X136099000Y-153581000D02*
G75*
G02*
X136159000Y-153581000I30000J0D01*
G01*
%TO.C,R10*%
D13*
X120202436Y-127309000D02*
X120656564Y-127309000D01*
X120202436Y-125839000D02*
X120656564Y-125839000D01*
%TO.C,R23*%
X118841436Y-137393000D02*
X120295564Y-137393000D01*
X118841436Y-139213000D02*
X120295564Y-139213000D01*
%TO.C,C6*%
X97288748Y-151765000D02*
X97811252Y-151765000D01*
X97288748Y-153235000D02*
X97811252Y-153235000D01*
%TO.C,J2*%
D11*
X101581500Y-120336500D02*
X107581500Y-120336500D01*
X101581500Y-126336500D02*
X101581500Y-120336500D01*
X101581500Y-126336500D02*
X101581500Y-127936500D01*
X101581500Y-126336500D02*
X102681500Y-126336500D01*
X101581500Y-127936500D02*
X102481500Y-127936500D01*
X102481500Y-122036500D02*
X103431500Y-122036500D01*
X102481500Y-123936500D02*
X103431500Y-123936500D01*
X102481500Y-126336500D02*
X102481500Y-122036500D01*
X102481500Y-127936500D02*
X102481500Y-126336500D01*
X103431500Y-122036500D02*
X103431500Y-126336500D01*
X103881500Y-120336500D02*
X103881500Y-120336500D01*
X103881500Y-120336500D02*
X103881500Y-124586500D01*
X103881500Y-124586500D02*
X105231500Y-124586500D01*
X104481500Y-126336500D02*
X104681500Y-126336500D01*
X105231500Y-124586500D02*
X105231500Y-120336500D01*
X105711500Y-122036500D02*
X106661500Y-122036500D01*
X105711500Y-123936500D02*
X106661500Y-123936500D01*
X105711500Y-126336500D02*
X105711500Y-122036500D01*
X106481500Y-126336500D02*
X107581500Y-126336500D01*
X106661500Y-122036500D02*
X106661500Y-126336500D01*
X106681500Y-127936500D02*
X106681500Y-126336500D01*
X106981500Y-126836500D02*
X107281500Y-126836500D01*
X107131500Y-127536500D02*
X106981500Y-126836500D01*
X107281500Y-126836500D02*
X107131500Y-127536500D01*
X107581500Y-120336500D02*
X107581500Y-126336500D01*
X107581500Y-126336500D02*
X107581500Y-127936500D01*
X107581500Y-127936500D02*
X106681500Y-127936500D01*
D12*
X107741500Y-120206500D02*
G75*
G02*
X107681500Y-120206500I-30000J0D01*
G01*
X107681500Y-120206500D02*
G75*
G02*
X107741500Y-120206500I30000J0D01*
G01*
%TO.C,R5*%
D13*
X70772936Y-129265000D02*
X71227064Y-129265000D01*
X70772936Y-130735000D02*
X71227064Y-130735000D01*
%TO.C,C2*%
X67188748Y-133265000D02*
X67711252Y-133265000D01*
X67188748Y-134735000D02*
X67711252Y-134735000D01*
%TO.C,R9*%
X97185436Y-145265000D02*
X97639564Y-145265000D01*
X97185436Y-146735000D02*
X97639564Y-146735000D01*
%TO.C,D8*%
X95840000Y-139650000D02*
X95840000Y-141350000D01*
X95840000Y-139650000D02*
X98500000Y-139650000D01*
X95840000Y-141350000D02*
X98500000Y-141350000D01*
%TO.C,C7*%
X101288748Y-151765000D02*
X101811252Y-151765000D01*
X101288748Y-153235000D02*
X101811252Y-153235000D01*
%TO.C,R1*%
X53860436Y-131265000D02*
X54314564Y-131265000D01*
X53860436Y-132735000D02*
X54314564Y-132735000D01*
%TO.C,R3*%
X62685436Y-129265000D02*
X63139564Y-129265000D01*
X62685436Y-130735000D02*
X63139564Y-130735000D01*
%TO.C,L1*%
D12*
X127722000Y-125514000D02*
G75*
G02*
X127662000Y-125514000I-30000J0D01*
G01*
X127662000Y-125514000D02*
G75*
G02*
X127722000Y-125514000I30000J0D01*
G01*
D11*
X129022000Y-131514000D02*
X132382000Y-131514000D01*
X129002000Y-125514000D02*
X132362000Y-125514000D01*
%TO.C,BZ1*%
D13*
X53740000Y-162890000D02*
X62960000Y-162890000D01*
X53740000Y-165540000D02*
X53410000Y-165540000D01*
X53740000Y-165540000D02*
X53740000Y-162890000D01*
X53740000Y-172110000D02*
X53740000Y-169460000D01*
X62960000Y-162890000D02*
X62960000Y-165540000D01*
X62960000Y-169460000D02*
X62960000Y-172110000D01*
X62960000Y-172110000D02*
X53740000Y-172110000D01*
%TO.C,R22*%
X137129436Y-166095000D02*
X138583564Y-166095000D01*
X137129436Y-167915000D02*
X138583564Y-167915000D01*
%TO.C,R28*%
X67860436Y-160265000D02*
X68314564Y-160265000D01*
X67860436Y-161735000D02*
X68314564Y-161735000D01*
%TO.C,R29*%
X93360436Y-139765000D02*
X93814564Y-139765000D01*
X93360436Y-141235000D02*
X93814564Y-141235000D01*
%TO.C,D1*%
X69252500Y-120540000D02*
X69252500Y-122460000D01*
X69252500Y-122460000D02*
X71937500Y-122460000D01*
X71937500Y-120540000D02*
X69252500Y-120540000D01*
%TO.C,D4*%
D10*
X127019000Y-146351000D02*
X132219000Y-146351000D01*
X127019000Y-149211000D02*
X132219000Y-149211000D01*
X128739000Y-146351000D02*
X128739000Y-149211000D01*
X132209000Y-148961000D02*
X132219000Y-149191000D01*
X132219000Y-146351000D02*
X132219000Y-146591000D01*
D12*
X127039000Y-149081000D02*
G75*
G02*
X126979000Y-149081000I-30000J0D01*
G01*
X126979000Y-149081000D02*
G75*
G02*
X127039000Y-149081000I30000J0D01*
G01*
D14*
G36*
X127097669Y-146685193D02*
G01*
X126638132Y-146680672D01*
X126641790Y-146278590D01*
X127098990Y-146278590D01*
X127097669Y-146685193D01*
G37*
G36*
X127105899Y-149283562D02*
G01*
X126646362Y-149279041D01*
X126650019Y-148876959D01*
X127107219Y-148876959D01*
X127105899Y-149283562D01*
G37*
%TO.C,J1*%
D12*
X47409600Y-120625000D02*
G75*
G02*
X47349600Y-120625000I-30000J0D01*
G01*
X47349600Y-120625000D02*
G75*
G02*
X47409600Y-120625000I30000J0D01*
G01*
D11*
X55229600Y-129565000D02*
X53749600Y-129565000D01*
X55229600Y-120625000D02*
X55229600Y-129565000D01*
X55229600Y-120625000D02*
X53749600Y-120625000D01*
X51519600Y-129565000D02*
X49649600Y-129565000D01*
X51519600Y-120625000D02*
X49649600Y-120625000D01*
%TD*%
M02*
